%TF.GenerationSoftware,KiCad,Pcbnew,8.0.8-8.0.8-0~ubuntu24.04.1*%
%TF.CreationDate,2025-08-03T14:08:21+02:00*%
%TF.ProjectId,atmega328,61746d65-6761-4333-9238-2e6b69636164,rev?*%
%TF.SameCoordinates,Original*%
%TF.FileFunction,Drillmap*%
%TF.FilePolarity,Positive*%
%FSLAX45Y45*%
G04 Gerber Fmt 4.5, Leading zero omitted, Abs format (unit mm)*
G04 Created by KiCad (PCBNEW 8.0.8-8.0.8-0~ubuntu24.04.1) date 2025-08-03 14:08:21*
%MOMM*%
%LPD*%
G01*
G04 APERTURE LIST*
%ADD10C,0.050000*%
%ADD11C,0.200000*%
G04 APERTURE END LIST*
D10*
X12950000Y-5550000D02*
X18100000Y-5550000D01*
X18100000Y-9300000D01*
X12950000Y-9300000D01*
X12950000Y-5550000D01*
D11*
X13208277Y-9613984D02*
X13208277Y-9413984D01*
X13208277Y-9413984D02*
X13255896Y-9413984D01*
X13255896Y-9413984D02*
X13284467Y-9423508D01*
X13284467Y-9423508D02*
X13303515Y-9442555D01*
X13303515Y-9442555D02*
X13313039Y-9461603D01*
X13313039Y-9461603D02*
X13322562Y-9499698D01*
X13322562Y-9499698D02*
X13322562Y-9528270D01*
X13322562Y-9528270D02*
X13313039Y-9566365D01*
X13313039Y-9566365D02*
X13303515Y-9585412D01*
X13303515Y-9585412D02*
X13284467Y-9604460D01*
X13284467Y-9604460D02*
X13255896Y-9613984D01*
X13255896Y-9613984D02*
X13208277Y-9613984D01*
X13408277Y-9613984D02*
X13408277Y-9480650D01*
X13408277Y-9518746D02*
X13417801Y-9499698D01*
X13417801Y-9499698D02*
X13427324Y-9490174D01*
X13427324Y-9490174D02*
X13446372Y-9480650D01*
X13446372Y-9480650D02*
X13465420Y-9480650D01*
X13532086Y-9613984D02*
X13532086Y-9480650D01*
X13532086Y-9413984D02*
X13522562Y-9423508D01*
X13522562Y-9423508D02*
X13532086Y-9433031D01*
X13532086Y-9433031D02*
X13541610Y-9423508D01*
X13541610Y-9423508D02*
X13532086Y-9413984D01*
X13532086Y-9413984D02*
X13532086Y-9433031D01*
X13655896Y-9613984D02*
X13636848Y-9604460D01*
X13636848Y-9604460D02*
X13627324Y-9585412D01*
X13627324Y-9585412D02*
X13627324Y-9413984D01*
X13760658Y-9613984D02*
X13741610Y-9604460D01*
X13741610Y-9604460D02*
X13732086Y-9585412D01*
X13732086Y-9585412D02*
X13732086Y-9413984D01*
X13989229Y-9613984D02*
X13989229Y-9413984D01*
X13989229Y-9413984D02*
X14055896Y-9556841D01*
X14055896Y-9556841D02*
X14122562Y-9413984D01*
X14122562Y-9413984D02*
X14122562Y-9613984D01*
X14303515Y-9613984D02*
X14303515Y-9509222D01*
X14303515Y-9509222D02*
X14293991Y-9490174D01*
X14293991Y-9490174D02*
X14274943Y-9480650D01*
X14274943Y-9480650D02*
X14236848Y-9480650D01*
X14236848Y-9480650D02*
X14217801Y-9490174D01*
X14303515Y-9604460D02*
X14284467Y-9613984D01*
X14284467Y-9613984D02*
X14236848Y-9613984D01*
X14236848Y-9613984D02*
X14217801Y-9604460D01*
X14217801Y-9604460D02*
X14208277Y-9585412D01*
X14208277Y-9585412D02*
X14208277Y-9566365D01*
X14208277Y-9566365D02*
X14217801Y-9547317D01*
X14217801Y-9547317D02*
X14236848Y-9537793D01*
X14236848Y-9537793D02*
X14284467Y-9537793D01*
X14284467Y-9537793D02*
X14303515Y-9528270D01*
X14398753Y-9480650D02*
X14398753Y-9680650D01*
X14398753Y-9490174D02*
X14417801Y-9480650D01*
X14417801Y-9480650D02*
X14455896Y-9480650D01*
X14455896Y-9480650D02*
X14474943Y-9490174D01*
X14474943Y-9490174D02*
X14484467Y-9499698D01*
X14484467Y-9499698D02*
X14493991Y-9518746D01*
X14493991Y-9518746D02*
X14493991Y-9575889D01*
X14493991Y-9575889D02*
X14484467Y-9594936D01*
X14484467Y-9594936D02*
X14474943Y-9604460D01*
X14474943Y-9604460D02*
X14455896Y-9613984D01*
X14455896Y-9613984D02*
X14417801Y-9613984D01*
X14417801Y-9613984D02*
X14398753Y-9604460D01*
X14579705Y-9594936D02*
X14589229Y-9604460D01*
X14589229Y-9604460D02*
X14579705Y-9613984D01*
X14579705Y-9613984D02*
X14570182Y-9604460D01*
X14570182Y-9604460D02*
X14579705Y-9594936D01*
X14579705Y-9594936D02*
X14579705Y-9613984D01*
X14579705Y-9490174D02*
X14589229Y-9499698D01*
X14589229Y-9499698D02*
X14579705Y-9509222D01*
X14579705Y-9509222D02*
X14570182Y-9499698D01*
X14570182Y-9499698D02*
X14579705Y-9490174D01*
X14579705Y-9490174D02*
X14579705Y-9509222D01*
M02*
