G04 #@! TF.GenerationSoftware,KiCad,Pcbnew,8.0.8-8.0.8-0~ubuntu24.04.1*
G04 #@! TF.CreationDate,2025-08-03T14:04:58+02:00*
G04 #@! TF.ProjectId,atmega328,61746d65-6761-4333-9238-2e6b69636164,rev?*
G04 #@! TF.SameCoordinates,Original*
G04 #@! TF.FileFunction,Paste,Top*
G04 #@! TF.FilePolarity,Positive*
%FSLAX46Y46*%
G04 Gerber Fmt 4.6, Leading zero omitted, Abs format (unit mm)*
G04 Created by KiCad (PCBNEW 8.0.8-8.0.8-0~ubuntu24.04.1) date 2025-08-03 14:04:58*
%MOMM*%
%LPD*%
G01*
G04 APERTURE LIST*
G04 Aperture macros list*
%AMRoundRect*
0 Rectangle with rounded corners*
0 $1 Rounding radius*
0 $2 $3 $4 $5 $6 $7 $8 $9 X,Y pos of 4 corners*
0 Add a 4 corners polygon primitive as box body*
4,1,4,$2,$3,$4,$5,$6,$7,$8,$9,$2,$3,0*
0 Add four circle primitives for the rounded corners*
1,1,$1+$1,$2,$3*
1,1,$1+$1,$4,$5*
1,1,$1+$1,$6,$7*
1,1,$1+$1,$8,$9*
0 Add four rect primitives between the rounded corners*
20,1,$1+$1,$2,$3,$4,$5,0*
20,1,$1+$1,$4,$5,$6,$7,0*
20,1,$1+$1,$6,$7,$8,$9,0*
20,1,$1+$1,$8,$9,$2,$3,0*%
G04 Aperture macros list end*
%ADD10RoundRect,0.250000X0.450000X-0.350000X0.450000X0.350000X-0.450000X0.350000X-0.450000X-0.350000X0*%
%ADD11RoundRect,0.250000X0.350000X0.450000X-0.350000X0.450000X-0.350000X-0.450000X0.350000X-0.450000X0*%
%ADD12RoundRect,0.250001X0.624999X-0.462499X0.624999X0.462499X-0.624999X0.462499X-0.624999X-0.462499X0*%
%ADD13RoundRect,0.250000X0.475000X-0.337500X0.475000X0.337500X-0.475000X0.337500X-0.475000X-0.337500X0*%
%ADD14RoundRect,0.250000X-0.475000X0.337500X-0.475000X-0.337500X0.475000X-0.337500X0.475000X0.337500X0*%
%ADD15RoundRect,0.250000X0.337500X0.475000X-0.337500X0.475000X-0.337500X-0.475000X0.337500X-0.475000X0*%
%ADD16RoundRect,0.250000X-0.337500X-0.475000X0.337500X-0.475000X0.337500X0.475000X-0.337500X0.475000X0*%
%ADD17R,1.600000X0.550000*%
%ADD18R,0.550000X1.600000*%
%ADD19RoundRect,0.375000X-0.375000X0.625000X-0.375000X-0.625000X0.375000X-0.625000X0.375000X0.625000X0*%
%ADD20RoundRect,0.500000X-1.400000X0.500000X-1.400000X-0.500000X1.400000X-0.500000X1.400000X0.500000X0*%
G04 APERTURE END LIST*
D10*
X153500000Y-64500000D03*
X153500000Y-62500000D03*
D11*
X158587500Y-80600000D03*
X156587500Y-80600000D03*
X154000000Y-80600000D03*
X152000000Y-80600000D03*
D12*
X157000000Y-82612500D03*
X157000000Y-85587500D03*
X152500000Y-85587500D03*
X152500000Y-82612500D03*
D13*
X151000000Y-64537500D03*
X151000000Y-62462500D03*
X142500000Y-81467500D03*
X142500000Y-79392500D03*
D14*
X142500000Y-72462500D03*
X142500000Y-74537500D03*
D15*
X137487500Y-74080000D03*
X135412500Y-74080000D03*
D13*
X168000000Y-77487500D03*
X168000000Y-75412500D03*
D16*
X151412500Y-72500000D03*
X153487500Y-72500000D03*
X151362500Y-75000000D03*
X153437500Y-75000000D03*
X131462500Y-74080000D03*
X133537500Y-74080000D03*
D15*
X170037500Y-73500000D03*
X167962500Y-73500000D03*
D17*
X156750000Y-70700000D03*
X156750000Y-71500000D03*
X156750000Y-72300000D03*
X156750000Y-73100000D03*
X156750000Y-73900000D03*
X156750000Y-74700000D03*
X156750000Y-75500000D03*
X156750000Y-76300000D03*
D18*
X158200000Y-77750000D03*
X159000000Y-77750000D03*
X159800000Y-77750000D03*
X160600000Y-77750000D03*
X161400000Y-77750000D03*
X162200000Y-77750000D03*
X163000000Y-77750000D03*
X163800000Y-77750000D03*
D17*
X165250000Y-76300000D03*
X165250000Y-75500000D03*
X165250000Y-74700000D03*
X165250000Y-73900000D03*
X165250000Y-73100000D03*
X165250000Y-72300000D03*
X165250000Y-71500000D03*
X165250000Y-70700000D03*
D18*
X163800000Y-69250000D03*
X163000000Y-69250000D03*
X162200000Y-69250000D03*
X161400000Y-69250000D03*
X160600000Y-69250000D03*
X159800000Y-69250000D03*
X159000000Y-69250000D03*
X158200000Y-69250000D03*
D19*
X136800000Y-77280000D03*
X134500000Y-77280000D03*
D20*
X134500000Y-83580000D03*
D19*
X132200000Y-77280000D03*
M02*
