%TF.GenerationSoftware,KiCad,Pcbnew,8.0.8-8.0.8-0~ubuntu24.04.1*%
%TF.CreationDate,2025-08-03T14:08:21+02:00*%
%TF.ProjectId,atmega328,61746d65-6761-4333-9238-2e6b69636164,rev?*%
%TF.SameCoordinates,Original*%
%TF.FileFunction,Drillmap*%
%TF.FilePolarity,Positive*%
%FSLAX45Y45*%
G04 Gerber Fmt 4.5, Leading zero omitted, Abs format (unit mm)*
G04 Created by KiCad (PCBNEW 8.0.8-8.0.8-0~ubuntu24.04.1) date 2025-08-03 14:08:21*
%MOMM*%
%LPD*%
G01*
G04 APERTURE LIST*
%ADD10C,0.050000*%
%ADD11C,0.200000*%
%ADD12C,0.100000*%
%ADD13C,0.130000*%
%ADD14C,0.140000*%
G04 APERTURE END LIST*
D10*
X12950000Y-5550000D02*
X18100000Y-5550000D01*
X18100000Y-9300000D01*
X12950000Y-9300000D01*
X12950000Y-5550000D01*
D11*
D12*
X15435000Y-7485000D02*
X15465000Y-7515000D01*
X15465000Y-7485000D02*
X15435000Y-7515000D01*
X15535000Y-6935000D02*
X15565000Y-6965000D01*
X15565000Y-6935000D02*
X15535000Y-6965000D01*
X15635000Y-6875000D02*
X15665000Y-6905000D01*
X15665000Y-6875000D02*
X15635000Y-6905000D01*
X15685000Y-6735000D02*
X15715000Y-6765000D01*
X15715000Y-6735000D02*
X15685000Y-6765000D01*
X15735000Y-6647500D02*
X15765000Y-6677500D01*
X15765000Y-6647500D02*
X15735000Y-6677500D01*
X15885000Y-6635000D02*
X15915000Y-6665000D01*
X15915000Y-6635000D02*
X15885000Y-6665000D01*
X16335000Y-7435000D02*
X16365000Y-7465000D01*
X16365000Y-7435000D02*
X16335000Y-7465000D01*
X16935000Y-7535000D02*
X16965000Y-7565000D01*
X16965000Y-7535000D02*
X16935000Y-7565000D01*
X13209000Y-6793000D02*
G75*
G02*
X13129000Y-6793000I-40000J0D01*
G01*
X13129000Y-6793000D02*
G75*
G02*
X13209000Y-6793000I40000J0D01*
G01*
X13971000Y-6793000D02*
G75*
G02*
X13891000Y-6793000I-40000J0D01*
G01*
X13891000Y-6793000D02*
G75*
G02*
X13971000Y-6793000I40000J0D01*
G01*
X14690000Y-7455000D02*
G75*
G02*
X14610000Y-7455000I-40000J0D01*
G01*
X14610000Y-7455000D02*
G75*
G02*
X14690000Y-7455000I40000J0D01*
G01*
X14690000Y-7943000D02*
G75*
G02*
X14610000Y-7943000I-40000J0D01*
G01*
X14610000Y-7943000D02*
G75*
G02*
X14690000Y-7943000I40000J0D01*
G01*
X13342000Y-8943000D02*
X13342000Y-9043000D01*
X13292000Y-8993000D02*
X13392000Y-8993000D01*
X13596000Y-8943000D02*
X13596000Y-9043000D01*
X13546000Y-8993000D02*
X13646000Y-8993000D01*
X13850000Y-8943000D02*
X13850000Y-9043000D01*
X13800000Y-8993000D02*
X13900000Y-8993000D01*
X14104000Y-8943000D02*
X14104000Y-9043000D01*
X14054000Y-8993000D02*
X14154000Y-8993000D01*
X15276000Y-9000000D02*
X15276000Y-9100000D01*
X15226000Y-9050000D02*
X15326000Y-9050000D01*
X15530000Y-9000000D02*
X15530000Y-9100000D01*
X15480000Y-9050000D02*
X15580000Y-9050000D01*
X15734000Y-5750000D02*
X15734000Y-5850000D01*
X15684000Y-5800000D02*
X15784000Y-5800000D01*
X15784000Y-9000000D02*
X15784000Y-9100000D01*
X15734000Y-9050000D02*
X15834000Y-9050000D01*
X15988000Y-5750000D02*
X15988000Y-5850000D01*
X15938000Y-5800000D02*
X16038000Y-5800000D01*
X16038000Y-9000000D02*
X16038000Y-9100000D01*
X15988000Y-9050000D02*
X16088000Y-9050000D01*
X16242000Y-5750000D02*
X16242000Y-5850000D01*
X16192000Y-5800000D02*
X16292000Y-5800000D01*
X16292000Y-9000000D02*
X16292000Y-9100000D01*
X16242000Y-9050000D02*
X16342000Y-9050000D01*
X16496000Y-5750000D02*
X16496000Y-5850000D01*
X16446000Y-5800000D02*
X16546000Y-5800000D01*
X16546000Y-9000000D02*
X16546000Y-9100000D01*
X16496000Y-9050000D02*
X16596000Y-9050000D01*
X16750000Y-5750000D02*
X16750000Y-5850000D01*
X16700000Y-5800000D02*
X16800000Y-5800000D01*
X16800000Y-9000000D02*
X16800000Y-9100000D01*
X16750000Y-9050000D02*
X16850000Y-9050000D01*
X17054000Y-9000000D02*
X17054000Y-9100000D01*
X17004000Y-9050000D02*
X17104000Y-9050000D01*
X17800000Y-5988000D02*
X17800000Y-6088000D01*
X17750000Y-6038000D02*
X17850000Y-6038000D01*
X17800000Y-6242000D02*
X17800000Y-6342000D01*
X17750000Y-6292000D02*
X17850000Y-6292000D01*
X17800000Y-6496000D02*
X17800000Y-6596000D01*
X17750000Y-6546000D02*
X17850000Y-6546000D01*
X17800000Y-6750000D02*
X17800000Y-6850000D01*
X17750000Y-6800000D02*
X17850000Y-6800000D01*
X17800000Y-7004000D02*
X17800000Y-7104000D01*
X17750000Y-7054000D02*
X17850000Y-7054000D01*
X17800000Y-7258000D02*
X17800000Y-7358000D01*
X17750000Y-7308000D02*
X17850000Y-7308000D01*
X17800000Y-7512000D02*
X17800000Y-7612000D01*
X17750000Y-7562000D02*
X17850000Y-7562000D01*
X17800000Y-7988000D02*
X17800000Y-8088000D01*
X17750000Y-8038000D02*
X17850000Y-8038000D01*
X17800000Y-8242000D02*
X17800000Y-8342000D01*
X17750000Y-8292000D02*
X17850000Y-8292000D01*
X17800000Y-8496000D02*
X17800000Y-8596000D01*
X17750000Y-8546000D02*
X17850000Y-8546000D01*
X17800000Y-8750000D02*
X17800000Y-8850000D01*
X17750000Y-8800000D02*
X17850000Y-8800000D01*
D13*
X14120962Y-6288962D02*
X14120962Y-6197038D01*
X14029038Y-6197038D01*
X14029038Y-6288962D01*
X14120962Y-6288962D01*
X14770962Y-6288962D02*
X14770962Y-6197038D01*
X14679038Y-6197038D01*
X14679038Y-6288962D01*
X14770962Y-6288962D01*
D14*
X13451750Y-6065000D02*
X13521750Y-5995000D01*
X13451750Y-5925000D01*
X13381750Y-5995000D01*
X13451750Y-6065000D01*
X13451750Y-6461000D02*
X13521750Y-6391000D01*
X13451750Y-6321000D01*
X13381750Y-6391000D01*
X13451750Y-6461000D01*
D11*
X13208277Y-9613984D02*
X13208277Y-9413984D01*
X13208277Y-9413984D02*
X13255896Y-9413984D01*
X13255896Y-9413984D02*
X13284467Y-9423508D01*
X13284467Y-9423508D02*
X13303515Y-9442555D01*
X13303515Y-9442555D02*
X13313039Y-9461603D01*
X13313039Y-9461603D02*
X13322562Y-9499698D01*
X13322562Y-9499698D02*
X13322562Y-9528270D01*
X13322562Y-9528270D02*
X13313039Y-9566365D01*
X13313039Y-9566365D02*
X13303515Y-9585412D01*
X13303515Y-9585412D02*
X13284467Y-9604460D01*
X13284467Y-9604460D02*
X13255896Y-9613984D01*
X13255896Y-9613984D02*
X13208277Y-9613984D01*
X13408277Y-9613984D02*
X13408277Y-9480650D01*
X13408277Y-9518746D02*
X13417801Y-9499698D01*
X13417801Y-9499698D02*
X13427324Y-9490174D01*
X13427324Y-9490174D02*
X13446372Y-9480650D01*
X13446372Y-9480650D02*
X13465420Y-9480650D01*
X13532086Y-9613984D02*
X13532086Y-9480650D01*
X13532086Y-9413984D02*
X13522562Y-9423508D01*
X13522562Y-9423508D02*
X13532086Y-9433031D01*
X13532086Y-9433031D02*
X13541610Y-9423508D01*
X13541610Y-9423508D02*
X13532086Y-9413984D01*
X13532086Y-9413984D02*
X13532086Y-9433031D01*
X13655896Y-9613984D02*
X13636848Y-9604460D01*
X13636848Y-9604460D02*
X13627324Y-9585412D01*
X13627324Y-9585412D02*
X13627324Y-9413984D01*
X13760658Y-9613984D02*
X13741610Y-9604460D01*
X13741610Y-9604460D02*
X13732086Y-9585412D01*
X13732086Y-9585412D02*
X13732086Y-9413984D01*
X13989229Y-9613984D02*
X13989229Y-9413984D01*
X13989229Y-9413984D02*
X14055896Y-9556841D01*
X14055896Y-9556841D02*
X14122562Y-9413984D01*
X14122562Y-9413984D02*
X14122562Y-9613984D01*
X14303515Y-9613984D02*
X14303515Y-9509222D01*
X14303515Y-9509222D02*
X14293991Y-9490174D01*
X14293991Y-9490174D02*
X14274943Y-9480650D01*
X14274943Y-9480650D02*
X14236848Y-9480650D01*
X14236848Y-9480650D02*
X14217801Y-9490174D01*
X14303515Y-9604460D02*
X14284467Y-9613984D01*
X14284467Y-9613984D02*
X14236848Y-9613984D01*
X14236848Y-9613984D02*
X14217801Y-9604460D01*
X14217801Y-9604460D02*
X14208277Y-9585412D01*
X14208277Y-9585412D02*
X14208277Y-9566365D01*
X14208277Y-9566365D02*
X14217801Y-9547317D01*
X14217801Y-9547317D02*
X14236848Y-9537793D01*
X14236848Y-9537793D02*
X14284467Y-9537793D01*
X14284467Y-9537793D02*
X14303515Y-9528270D01*
X14398753Y-9480650D02*
X14398753Y-9680650D01*
X14398753Y-9490174D02*
X14417801Y-9480650D01*
X14417801Y-9480650D02*
X14455896Y-9480650D01*
X14455896Y-9480650D02*
X14474943Y-9490174D01*
X14474943Y-9490174D02*
X14484467Y-9499698D01*
X14484467Y-9499698D02*
X14493991Y-9518746D01*
X14493991Y-9518746D02*
X14493991Y-9575889D01*
X14493991Y-9575889D02*
X14484467Y-9594936D01*
X14484467Y-9594936D02*
X14474943Y-9604460D01*
X14474943Y-9604460D02*
X14455896Y-9613984D01*
X14455896Y-9613984D02*
X14417801Y-9613984D01*
X14417801Y-9613984D02*
X14398753Y-9604460D01*
X14579705Y-9594936D02*
X14589229Y-9604460D01*
X14589229Y-9604460D02*
X14579705Y-9613984D01*
X14579705Y-9613984D02*
X14570182Y-9604460D01*
X14570182Y-9604460D02*
X14579705Y-9594936D01*
X14579705Y-9594936D02*
X14579705Y-9613984D01*
X14579705Y-9490174D02*
X14589229Y-9499698D01*
X14589229Y-9499698D02*
X14579705Y-9509222D01*
X14579705Y-9509222D02*
X14570182Y-9499698D01*
X14570182Y-9499698D02*
X14579705Y-9490174D01*
X14579705Y-9490174D02*
X14579705Y-9509222D01*
D12*
X12917500Y-9927500D02*
X12947500Y-9957500D01*
X12947500Y-9927500D02*
X12917500Y-9957500D01*
D11*
X13246372Y-9833984D02*
X13265420Y-9833984D01*
X13265420Y-9833984D02*
X13284467Y-9843508D01*
X13284467Y-9843508D02*
X13293991Y-9853031D01*
X13293991Y-9853031D02*
X13303515Y-9872079D01*
X13303515Y-9872079D02*
X13313039Y-9910174D01*
X13313039Y-9910174D02*
X13313039Y-9957793D01*
X13313039Y-9957793D02*
X13303515Y-9995889D01*
X13303515Y-9995889D02*
X13293991Y-10014936D01*
X13293991Y-10014936D02*
X13284467Y-10024460D01*
X13284467Y-10024460D02*
X13265420Y-10033984D01*
X13265420Y-10033984D02*
X13246372Y-10033984D01*
X13246372Y-10033984D02*
X13227324Y-10024460D01*
X13227324Y-10024460D02*
X13217801Y-10014936D01*
X13217801Y-10014936D02*
X13208277Y-9995889D01*
X13208277Y-9995889D02*
X13198753Y-9957793D01*
X13198753Y-9957793D02*
X13198753Y-9910174D01*
X13198753Y-9910174D02*
X13208277Y-9872079D01*
X13208277Y-9872079D02*
X13217801Y-9853031D01*
X13217801Y-9853031D02*
X13227324Y-9843508D01*
X13227324Y-9843508D02*
X13246372Y-9833984D01*
X13398753Y-10014936D02*
X13408277Y-10024460D01*
X13408277Y-10024460D02*
X13398753Y-10033984D01*
X13398753Y-10033984D02*
X13389229Y-10024460D01*
X13389229Y-10024460D02*
X13398753Y-10014936D01*
X13398753Y-10014936D02*
X13398753Y-10033984D01*
X13474943Y-9833984D02*
X13598753Y-9833984D01*
X13598753Y-9833984D02*
X13532086Y-9910174D01*
X13532086Y-9910174D02*
X13560658Y-9910174D01*
X13560658Y-9910174D02*
X13579705Y-9919698D01*
X13579705Y-9919698D02*
X13589229Y-9929222D01*
X13589229Y-9929222D02*
X13598753Y-9948270D01*
X13598753Y-9948270D02*
X13598753Y-9995889D01*
X13598753Y-9995889D02*
X13589229Y-10014936D01*
X13589229Y-10014936D02*
X13579705Y-10024460D01*
X13579705Y-10024460D02*
X13560658Y-10033984D01*
X13560658Y-10033984D02*
X13503515Y-10033984D01*
X13503515Y-10033984D02*
X13484467Y-10024460D01*
X13484467Y-10024460D02*
X13474943Y-10014936D01*
X13722562Y-9833984D02*
X13741610Y-9833984D01*
X13741610Y-9833984D02*
X13760658Y-9843508D01*
X13760658Y-9843508D02*
X13770182Y-9853031D01*
X13770182Y-9853031D02*
X13779705Y-9872079D01*
X13779705Y-9872079D02*
X13789229Y-9910174D01*
X13789229Y-9910174D02*
X13789229Y-9957793D01*
X13789229Y-9957793D02*
X13779705Y-9995889D01*
X13779705Y-9995889D02*
X13770182Y-10014936D01*
X13770182Y-10014936D02*
X13760658Y-10024460D01*
X13760658Y-10024460D02*
X13741610Y-10033984D01*
X13741610Y-10033984D02*
X13722562Y-10033984D01*
X13722562Y-10033984D02*
X13703515Y-10024460D01*
X13703515Y-10024460D02*
X13693991Y-10014936D01*
X13693991Y-10014936D02*
X13684467Y-9995889D01*
X13684467Y-9995889D02*
X13674943Y-9957793D01*
X13674943Y-9957793D02*
X13674943Y-9910174D01*
X13674943Y-9910174D02*
X13684467Y-9872079D01*
X13684467Y-9872079D02*
X13693991Y-9853031D01*
X13693991Y-9853031D02*
X13703515Y-9843508D01*
X13703515Y-9843508D02*
X13722562Y-9833984D01*
X13913039Y-9833984D02*
X13932086Y-9833984D01*
X13932086Y-9833984D02*
X13951134Y-9843508D01*
X13951134Y-9843508D02*
X13960658Y-9853031D01*
X13960658Y-9853031D02*
X13970182Y-9872079D01*
X13970182Y-9872079D02*
X13979705Y-9910174D01*
X13979705Y-9910174D02*
X13979705Y-9957793D01*
X13979705Y-9957793D02*
X13970182Y-9995889D01*
X13970182Y-9995889D02*
X13960658Y-10014936D01*
X13960658Y-10014936D02*
X13951134Y-10024460D01*
X13951134Y-10024460D02*
X13932086Y-10033984D01*
X13932086Y-10033984D02*
X13913039Y-10033984D01*
X13913039Y-10033984D02*
X13893991Y-10024460D01*
X13893991Y-10024460D02*
X13884467Y-10014936D01*
X13884467Y-10014936D02*
X13874943Y-9995889D01*
X13874943Y-9995889D02*
X13865420Y-9957793D01*
X13865420Y-9957793D02*
X13865420Y-9910174D01*
X13865420Y-9910174D02*
X13874943Y-9872079D01*
X13874943Y-9872079D02*
X13884467Y-9853031D01*
X13884467Y-9853031D02*
X13893991Y-9843508D01*
X13893991Y-9843508D02*
X13913039Y-9833984D01*
X14065420Y-10033984D02*
X14065420Y-9900650D01*
X14065420Y-9919698D02*
X14074943Y-9910174D01*
X14074943Y-9910174D02*
X14093991Y-9900650D01*
X14093991Y-9900650D02*
X14122563Y-9900650D01*
X14122563Y-9900650D02*
X14141610Y-9910174D01*
X14141610Y-9910174D02*
X14151134Y-9929222D01*
X14151134Y-9929222D02*
X14151134Y-10033984D01*
X14151134Y-9929222D02*
X14160658Y-9910174D01*
X14160658Y-9910174D02*
X14179705Y-9900650D01*
X14179705Y-9900650D02*
X14208277Y-9900650D01*
X14208277Y-9900650D02*
X14227324Y-9910174D01*
X14227324Y-9910174D02*
X14236848Y-9929222D01*
X14236848Y-9929222D02*
X14236848Y-10033984D01*
X14332086Y-10033984D02*
X14332086Y-9900650D01*
X14332086Y-9919698D02*
X14341610Y-9910174D01*
X14341610Y-9910174D02*
X14360658Y-9900650D01*
X14360658Y-9900650D02*
X14389229Y-9900650D01*
X14389229Y-9900650D02*
X14408277Y-9910174D01*
X14408277Y-9910174D02*
X14417801Y-9929222D01*
X14417801Y-9929222D02*
X14417801Y-10033984D01*
X14417801Y-9929222D02*
X14427324Y-9910174D01*
X14427324Y-9910174D02*
X14446372Y-9900650D01*
X14446372Y-9900650D02*
X14474943Y-9900650D01*
X14474943Y-9900650D02*
X14493991Y-9910174D01*
X14493991Y-9910174D02*
X14503515Y-9929222D01*
X14503515Y-9929222D02*
X14503515Y-10033984D01*
X14893991Y-9824460D02*
X14722563Y-10081603D01*
X15151134Y-9833984D02*
X15170182Y-9833984D01*
X15170182Y-9833984D02*
X15189229Y-9843508D01*
X15189229Y-9843508D02*
X15198753Y-9853031D01*
X15198753Y-9853031D02*
X15208277Y-9872079D01*
X15208277Y-9872079D02*
X15217801Y-9910174D01*
X15217801Y-9910174D02*
X15217801Y-9957793D01*
X15217801Y-9957793D02*
X15208277Y-9995889D01*
X15208277Y-9995889D02*
X15198753Y-10014936D01*
X15198753Y-10014936D02*
X15189229Y-10024460D01*
X15189229Y-10024460D02*
X15170182Y-10033984D01*
X15170182Y-10033984D02*
X15151134Y-10033984D01*
X15151134Y-10033984D02*
X15132086Y-10024460D01*
X15132086Y-10024460D02*
X15122563Y-10014936D01*
X15122563Y-10014936D02*
X15113039Y-9995889D01*
X15113039Y-9995889D02*
X15103515Y-9957793D01*
X15103515Y-9957793D02*
X15103515Y-9910174D01*
X15103515Y-9910174D02*
X15113039Y-9872079D01*
X15113039Y-9872079D02*
X15122563Y-9853031D01*
X15122563Y-9853031D02*
X15132086Y-9843508D01*
X15132086Y-9843508D02*
X15151134Y-9833984D01*
X15303515Y-10014936D02*
X15313039Y-10024460D01*
X15313039Y-10024460D02*
X15303515Y-10033984D01*
X15303515Y-10033984D02*
X15293991Y-10024460D01*
X15293991Y-10024460D02*
X15303515Y-10014936D01*
X15303515Y-10014936D02*
X15303515Y-10033984D01*
X15436848Y-9833984D02*
X15455896Y-9833984D01*
X15455896Y-9833984D02*
X15474944Y-9843508D01*
X15474944Y-9843508D02*
X15484467Y-9853031D01*
X15484467Y-9853031D02*
X15493991Y-9872079D01*
X15493991Y-9872079D02*
X15503515Y-9910174D01*
X15503515Y-9910174D02*
X15503515Y-9957793D01*
X15503515Y-9957793D02*
X15493991Y-9995889D01*
X15493991Y-9995889D02*
X15484467Y-10014936D01*
X15484467Y-10014936D02*
X15474944Y-10024460D01*
X15474944Y-10024460D02*
X15455896Y-10033984D01*
X15455896Y-10033984D02*
X15436848Y-10033984D01*
X15436848Y-10033984D02*
X15417801Y-10024460D01*
X15417801Y-10024460D02*
X15408277Y-10014936D01*
X15408277Y-10014936D02*
X15398753Y-9995889D01*
X15398753Y-9995889D02*
X15389229Y-9957793D01*
X15389229Y-9957793D02*
X15389229Y-9910174D01*
X15389229Y-9910174D02*
X15398753Y-9872079D01*
X15398753Y-9872079D02*
X15408277Y-9853031D01*
X15408277Y-9853031D02*
X15417801Y-9843508D01*
X15417801Y-9843508D02*
X15436848Y-9833984D01*
X15693991Y-10033984D02*
X15579706Y-10033984D01*
X15636848Y-10033984D02*
X15636848Y-9833984D01*
X15636848Y-9833984D02*
X15617801Y-9862555D01*
X15617801Y-9862555D02*
X15598753Y-9881603D01*
X15598753Y-9881603D02*
X15579706Y-9891127D01*
X15884467Y-10033984D02*
X15770182Y-10033984D01*
X15827325Y-10033984D02*
X15827325Y-9833984D01*
X15827325Y-9833984D02*
X15808277Y-9862555D01*
X15808277Y-9862555D02*
X15789229Y-9881603D01*
X15789229Y-9881603D02*
X15770182Y-9891127D01*
X15998753Y-9919698D02*
X15979706Y-9910174D01*
X15979706Y-9910174D02*
X15970182Y-9900650D01*
X15970182Y-9900650D02*
X15960658Y-9881603D01*
X15960658Y-9881603D02*
X15960658Y-9872079D01*
X15960658Y-9872079D02*
X15970182Y-9853031D01*
X15970182Y-9853031D02*
X15979706Y-9843508D01*
X15979706Y-9843508D02*
X15998753Y-9833984D01*
X15998753Y-9833984D02*
X16036848Y-9833984D01*
X16036848Y-9833984D02*
X16055896Y-9843508D01*
X16055896Y-9843508D02*
X16065420Y-9853031D01*
X16065420Y-9853031D02*
X16074944Y-9872079D01*
X16074944Y-9872079D02*
X16074944Y-9881603D01*
X16074944Y-9881603D02*
X16065420Y-9900650D01*
X16065420Y-9900650D02*
X16055896Y-9910174D01*
X16055896Y-9910174D02*
X16036848Y-9919698D01*
X16036848Y-9919698D02*
X15998753Y-9919698D01*
X15998753Y-9919698D02*
X15979706Y-9929222D01*
X15979706Y-9929222D02*
X15970182Y-9938746D01*
X15970182Y-9938746D02*
X15960658Y-9957793D01*
X15960658Y-9957793D02*
X15960658Y-9995889D01*
X15960658Y-9995889D02*
X15970182Y-10014936D01*
X15970182Y-10014936D02*
X15979706Y-10024460D01*
X15979706Y-10024460D02*
X15998753Y-10033984D01*
X15998753Y-10033984D02*
X16036848Y-10033984D01*
X16036848Y-10033984D02*
X16055896Y-10024460D01*
X16055896Y-10024460D02*
X16065420Y-10014936D01*
X16065420Y-10014936D02*
X16074944Y-9995889D01*
X16074944Y-9995889D02*
X16074944Y-9957793D01*
X16074944Y-9957793D02*
X16065420Y-9938746D01*
X16065420Y-9938746D02*
X16055896Y-9929222D01*
X16055896Y-9929222D02*
X16036848Y-9919698D01*
X16151134Y-9833984D02*
X16151134Y-9872079D01*
X16227325Y-9833984D02*
X16227325Y-9872079D01*
X16522563Y-10110174D02*
X16513039Y-10100650D01*
X16513039Y-10100650D02*
X16493991Y-10072079D01*
X16493991Y-10072079D02*
X16484468Y-10053031D01*
X16484468Y-10053031D02*
X16474944Y-10024460D01*
X16474944Y-10024460D02*
X16465420Y-9976841D01*
X16465420Y-9976841D02*
X16465420Y-9938746D01*
X16465420Y-9938746D02*
X16474944Y-9891127D01*
X16474944Y-9891127D02*
X16484468Y-9862555D01*
X16484468Y-9862555D02*
X16493991Y-9843508D01*
X16493991Y-9843508D02*
X16513039Y-9814936D01*
X16513039Y-9814936D02*
X16522563Y-9805412D01*
X16627325Y-9919698D02*
X16608277Y-9910174D01*
X16608277Y-9910174D02*
X16598753Y-9900650D01*
X16598753Y-9900650D02*
X16589229Y-9881603D01*
X16589229Y-9881603D02*
X16589229Y-9872079D01*
X16589229Y-9872079D02*
X16598753Y-9853031D01*
X16598753Y-9853031D02*
X16608277Y-9843508D01*
X16608277Y-9843508D02*
X16627325Y-9833984D01*
X16627325Y-9833984D02*
X16665420Y-9833984D01*
X16665420Y-9833984D02*
X16684468Y-9843508D01*
X16684468Y-9843508D02*
X16693991Y-9853031D01*
X16693991Y-9853031D02*
X16703515Y-9872079D01*
X16703515Y-9872079D02*
X16703515Y-9881603D01*
X16703515Y-9881603D02*
X16693991Y-9900650D01*
X16693991Y-9900650D02*
X16684468Y-9910174D01*
X16684468Y-9910174D02*
X16665420Y-9919698D01*
X16665420Y-9919698D02*
X16627325Y-9919698D01*
X16627325Y-9919698D02*
X16608277Y-9929222D01*
X16608277Y-9929222D02*
X16598753Y-9938746D01*
X16598753Y-9938746D02*
X16589229Y-9957793D01*
X16589229Y-9957793D02*
X16589229Y-9995889D01*
X16589229Y-9995889D02*
X16598753Y-10014936D01*
X16598753Y-10014936D02*
X16608277Y-10024460D01*
X16608277Y-10024460D02*
X16627325Y-10033984D01*
X16627325Y-10033984D02*
X16665420Y-10033984D01*
X16665420Y-10033984D02*
X16684468Y-10024460D01*
X16684468Y-10024460D02*
X16693991Y-10014936D01*
X16693991Y-10014936D02*
X16703515Y-9995889D01*
X16703515Y-9995889D02*
X16703515Y-9957793D01*
X16703515Y-9957793D02*
X16693991Y-9938746D01*
X16693991Y-9938746D02*
X16684468Y-9929222D01*
X16684468Y-9929222D02*
X16665420Y-9919698D01*
X16941611Y-10033984D02*
X16941611Y-9833984D01*
X17027325Y-10033984D02*
X17027325Y-9929222D01*
X17027325Y-9929222D02*
X17017801Y-9910174D01*
X17017801Y-9910174D02*
X16998753Y-9900650D01*
X16998753Y-9900650D02*
X16970182Y-9900650D01*
X16970182Y-9900650D02*
X16951134Y-9910174D01*
X16951134Y-9910174D02*
X16941611Y-9919698D01*
X17151134Y-10033984D02*
X17132087Y-10024460D01*
X17132087Y-10024460D02*
X17122563Y-10014936D01*
X17122563Y-10014936D02*
X17113039Y-9995889D01*
X17113039Y-9995889D02*
X17113039Y-9938746D01*
X17113039Y-9938746D02*
X17122563Y-9919698D01*
X17122563Y-9919698D02*
X17132087Y-9910174D01*
X17132087Y-9910174D02*
X17151134Y-9900650D01*
X17151134Y-9900650D02*
X17179706Y-9900650D01*
X17179706Y-9900650D02*
X17198753Y-9910174D01*
X17198753Y-9910174D02*
X17208277Y-9919698D01*
X17208277Y-9919698D02*
X17217801Y-9938746D01*
X17217801Y-9938746D02*
X17217801Y-9995889D01*
X17217801Y-9995889D02*
X17208277Y-10014936D01*
X17208277Y-10014936D02*
X17198753Y-10024460D01*
X17198753Y-10024460D02*
X17179706Y-10033984D01*
X17179706Y-10033984D02*
X17151134Y-10033984D01*
X17332087Y-10033984D02*
X17313039Y-10024460D01*
X17313039Y-10024460D02*
X17303515Y-10005412D01*
X17303515Y-10005412D02*
X17303515Y-9833984D01*
X17484468Y-10024460D02*
X17465420Y-10033984D01*
X17465420Y-10033984D02*
X17427325Y-10033984D01*
X17427325Y-10033984D02*
X17408277Y-10024460D01*
X17408277Y-10024460D02*
X17398753Y-10005412D01*
X17398753Y-10005412D02*
X17398753Y-9929222D01*
X17398753Y-9929222D02*
X17408277Y-9910174D01*
X17408277Y-9910174D02*
X17427325Y-9900650D01*
X17427325Y-9900650D02*
X17465420Y-9900650D01*
X17465420Y-9900650D02*
X17484468Y-9910174D01*
X17484468Y-9910174D02*
X17493992Y-9929222D01*
X17493992Y-9929222D02*
X17493992Y-9948270D01*
X17493992Y-9948270D02*
X17398753Y-9967317D01*
X17570182Y-10024460D02*
X17589230Y-10033984D01*
X17589230Y-10033984D02*
X17627325Y-10033984D01*
X17627325Y-10033984D02*
X17646373Y-10024460D01*
X17646373Y-10024460D02*
X17655896Y-10005412D01*
X17655896Y-10005412D02*
X17655896Y-9995889D01*
X17655896Y-9995889D02*
X17646373Y-9976841D01*
X17646373Y-9976841D02*
X17627325Y-9967317D01*
X17627325Y-9967317D02*
X17598753Y-9967317D01*
X17598753Y-9967317D02*
X17579706Y-9957793D01*
X17579706Y-9957793D02*
X17570182Y-9938746D01*
X17570182Y-9938746D02*
X17570182Y-9929222D01*
X17570182Y-9929222D02*
X17579706Y-9910174D01*
X17579706Y-9910174D02*
X17598753Y-9900650D01*
X17598753Y-9900650D02*
X17627325Y-9900650D01*
X17627325Y-9900650D02*
X17646373Y-9910174D01*
X17722563Y-10110174D02*
X17732087Y-10100650D01*
X17732087Y-10100650D02*
X17751134Y-10072079D01*
X17751134Y-10072079D02*
X17760658Y-10053031D01*
X17760658Y-10053031D02*
X17770182Y-10024460D01*
X17770182Y-10024460D02*
X17779706Y-9976841D01*
X17779706Y-9976841D02*
X17779706Y-9938746D01*
X17779706Y-9938746D02*
X17770182Y-9891127D01*
X17770182Y-9891127D02*
X17760658Y-9862555D01*
X17760658Y-9862555D02*
X17751134Y-9843508D01*
X17751134Y-9843508D02*
X17732087Y-9814936D01*
X17732087Y-9814936D02*
X17722563Y-9805412D01*
D12*
X12947500Y-10206500D02*
G75*
G02*
X12867500Y-10206500I-40000J0D01*
G01*
X12867500Y-10206500D02*
G75*
G02*
X12947500Y-10206500I40000J0D01*
G01*
D11*
X13246372Y-10097984D02*
X13265420Y-10097984D01*
X13265420Y-10097984D02*
X13284467Y-10107508D01*
X13284467Y-10107508D02*
X13293991Y-10117031D01*
X13293991Y-10117031D02*
X13303515Y-10136079D01*
X13303515Y-10136079D02*
X13313039Y-10174174D01*
X13313039Y-10174174D02*
X13313039Y-10221793D01*
X13313039Y-10221793D02*
X13303515Y-10259889D01*
X13303515Y-10259889D02*
X13293991Y-10278936D01*
X13293991Y-10278936D02*
X13284467Y-10288460D01*
X13284467Y-10288460D02*
X13265420Y-10297984D01*
X13265420Y-10297984D02*
X13246372Y-10297984D01*
X13246372Y-10297984D02*
X13227324Y-10288460D01*
X13227324Y-10288460D02*
X13217801Y-10278936D01*
X13217801Y-10278936D02*
X13208277Y-10259889D01*
X13208277Y-10259889D02*
X13198753Y-10221793D01*
X13198753Y-10221793D02*
X13198753Y-10174174D01*
X13198753Y-10174174D02*
X13208277Y-10136079D01*
X13208277Y-10136079D02*
X13217801Y-10117031D01*
X13217801Y-10117031D02*
X13227324Y-10107508D01*
X13227324Y-10107508D02*
X13246372Y-10097984D01*
X13398753Y-10278936D02*
X13408277Y-10288460D01*
X13408277Y-10288460D02*
X13398753Y-10297984D01*
X13398753Y-10297984D02*
X13389229Y-10288460D01*
X13389229Y-10288460D02*
X13398753Y-10278936D01*
X13398753Y-10278936D02*
X13398753Y-10297984D01*
X13522562Y-10183698D02*
X13503515Y-10174174D01*
X13503515Y-10174174D02*
X13493991Y-10164650D01*
X13493991Y-10164650D02*
X13484467Y-10145603D01*
X13484467Y-10145603D02*
X13484467Y-10136079D01*
X13484467Y-10136079D02*
X13493991Y-10117031D01*
X13493991Y-10117031D02*
X13503515Y-10107508D01*
X13503515Y-10107508D02*
X13522562Y-10097984D01*
X13522562Y-10097984D02*
X13560658Y-10097984D01*
X13560658Y-10097984D02*
X13579705Y-10107508D01*
X13579705Y-10107508D02*
X13589229Y-10117031D01*
X13589229Y-10117031D02*
X13598753Y-10136079D01*
X13598753Y-10136079D02*
X13598753Y-10145603D01*
X13598753Y-10145603D02*
X13589229Y-10164650D01*
X13589229Y-10164650D02*
X13579705Y-10174174D01*
X13579705Y-10174174D02*
X13560658Y-10183698D01*
X13560658Y-10183698D02*
X13522562Y-10183698D01*
X13522562Y-10183698D02*
X13503515Y-10193222D01*
X13503515Y-10193222D02*
X13493991Y-10202746D01*
X13493991Y-10202746D02*
X13484467Y-10221793D01*
X13484467Y-10221793D02*
X13484467Y-10259889D01*
X13484467Y-10259889D02*
X13493991Y-10278936D01*
X13493991Y-10278936D02*
X13503515Y-10288460D01*
X13503515Y-10288460D02*
X13522562Y-10297984D01*
X13522562Y-10297984D02*
X13560658Y-10297984D01*
X13560658Y-10297984D02*
X13579705Y-10288460D01*
X13579705Y-10288460D02*
X13589229Y-10278936D01*
X13589229Y-10278936D02*
X13598753Y-10259889D01*
X13598753Y-10259889D02*
X13598753Y-10221793D01*
X13598753Y-10221793D02*
X13589229Y-10202746D01*
X13589229Y-10202746D02*
X13579705Y-10193222D01*
X13579705Y-10193222D02*
X13560658Y-10183698D01*
X13722562Y-10097984D02*
X13741610Y-10097984D01*
X13741610Y-10097984D02*
X13760658Y-10107508D01*
X13760658Y-10107508D02*
X13770182Y-10117031D01*
X13770182Y-10117031D02*
X13779705Y-10136079D01*
X13779705Y-10136079D02*
X13789229Y-10174174D01*
X13789229Y-10174174D02*
X13789229Y-10221793D01*
X13789229Y-10221793D02*
X13779705Y-10259889D01*
X13779705Y-10259889D02*
X13770182Y-10278936D01*
X13770182Y-10278936D02*
X13760658Y-10288460D01*
X13760658Y-10288460D02*
X13741610Y-10297984D01*
X13741610Y-10297984D02*
X13722562Y-10297984D01*
X13722562Y-10297984D02*
X13703515Y-10288460D01*
X13703515Y-10288460D02*
X13693991Y-10278936D01*
X13693991Y-10278936D02*
X13684467Y-10259889D01*
X13684467Y-10259889D02*
X13674943Y-10221793D01*
X13674943Y-10221793D02*
X13674943Y-10174174D01*
X13674943Y-10174174D02*
X13684467Y-10136079D01*
X13684467Y-10136079D02*
X13693991Y-10117031D01*
X13693991Y-10117031D02*
X13703515Y-10107508D01*
X13703515Y-10107508D02*
X13722562Y-10097984D01*
X13913039Y-10097984D02*
X13932086Y-10097984D01*
X13932086Y-10097984D02*
X13951134Y-10107508D01*
X13951134Y-10107508D02*
X13960658Y-10117031D01*
X13960658Y-10117031D02*
X13970182Y-10136079D01*
X13970182Y-10136079D02*
X13979705Y-10174174D01*
X13979705Y-10174174D02*
X13979705Y-10221793D01*
X13979705Y-10221793D02*
X13970182Y-10259889D01*
X13970182Y-10259889D02*
X13960658Y-10278936D01*
X13960658Y-10278936D02*
X13951134Y-10288460D01*
X13951134Y-10288460D02*
X13932086Y-10297984D01*
X13932086Y-10297984D02*
X13913039Y-10297984D01*
X13913039Y-10297984D02*
X13893991Y-10288460D01*
X13893991Y-10288460D02*
X13884467Y-10278936D01*
X13884467Y-10278936D02*
X13874943Y-10259889D01*
X13874943Y-10259889D02*
X13865420Y-10221793D01*
X13865420Y-10221793D02*
X13865420Y-10174174D01*
X13865420Y-10174174D02*
X13874943Y-10136079D01*
X13874943Y-10136079D02*
X13884467Y-10117031D01*
X13884467Y-10117031D02*
X13893991Y-10107508D01*
X13893991Y-10107508D02*
X13913039Y-10097984D01*
X14065420Y-10297984D02*
X14065420Y-10164650D01*
X14065420Y-10183698D02*
X14074943Y-10174174D01*
X14074943Y-10174174D02*
X14093991Y-10164650D01*
X14093991Y-10164650D02*
X14122563Y-10164650D01*
X14122563Y-10164650D02*
X14141610Y-10174174D01*
X14141610Y-10174174D02*
X14151134Y-10193222D01*
X14151134Y-10193222D02*
X14151134Y-10297984D01*
X14151134Y-10193222D02*
X14160658Y-10174174D01*
X14160658Y-10174174D02*
X14179705Y-10164650D01*
X14179705Y-10164650D02*
X14208277Y-10164650D01*
X14208277Y-10164650D02*
X14227324Y-10174174D01*
X14227324Y-10174174D02*
X14236848Y-10193222D01*
X14236848Y-10193222D02*
X14236848Y-10297984D01*
X14332086Y-10297984D02*
X14332086Y-10164650D01*
X14332086Y-10183698D02*
X14341610Y-10174174D01*
X14341610Y-10174174D02*
X14360658Y-10164650D01*
X14360658Y-10164650D02*
X14389229Y-10164650D01*
X14389229Y-10164650D02*
X14408277Y-10174174D01*
X14408277Y-10174174D02*
X14417801Y-10193222D01*
X14417801Y-10193222D02*
X14417801Y-10297984D01*
X14417801Y-10193222D02*
X14427324Y-10174174D01*
X14427324Y-10174174D02*
X14446372Y-10164650D01*
X14446372Y-10164650D02*
X14474943Y-10164650D01*
X14474943Y-10164650D02*
X14493991Y-10174174D01*
X14493991Y-10174174D02*
X14503515Y-10193222D01*
X14503515Y-10193222D02*
X14503515Y-10297984D01*
X14893991Y-10088460D02*
X14722563Y-10345603D01*
X15151134Y-10097984D02*
X15170182Y-10097984D01*
X15170182Y-10097984D02*
X15189229Y-10107508D01*
X15189229Y-10107508D02*
X15198753Y-10117031D01*
X15198753Y-10117031D02*
X15208277Y-10136079D01*
X15208277Y-10136079D02*
X15217801Y-10174174D01*
X15217801Y-10174174D02*
X15217801Y-10221793D01*
X15217801Y-10221793D02*
X15208277Y-10259889D01*
X15208277Y-10259889D02*
X15198753Y-10278936D01*
X15198753Y-10278936D02*
X15189229Y-10288460D01*
X15189229Y-10288460D02*
X15170182Y-10297984D01*
X15170182Y-10297984D02*
X15151134Y-10297984D01*
X15151134Y-10297984D02*
X15132086Y-10288460D01*
X15132086Y-10288460D02*
X15122563Y-10278936D01*
X15122563Y-10278936D02*
X15113039Y-10259889D01*
X15113039Y-10259889D02*
X15103515Y-10221793D01*
X15103515Y-10221793D02*
X15103515Y-10174174D01*
X15103515Y-10174174D02*
X15113039Y-10136079D01*
X15113039Y-10136079D02*
X15122563Y-10117031D01*
X15122563Y-10117031D02*
X15132086Y-10107508D01*
X15132086Y-10107508D02*
X15151134Y-10097984D01*
X15303515Y-10278936D02*
X15313039Y-10288460D01*
X15313039Y-10288460D02*
X15303515Y-10297984D01*
X15303515Y-10297984D02*
X15293991Y-10288460D01*
X15293991Y-10288460D02*
X15303515Y-10278936D01*
X15303515Y-10278936D02*
X15303515Y-10297984D01*
X15436848Y-10097984D02*
X15455896Y-10097984D01*
X15455896Y-10097984D02*
X15474944Y-10107508D01*
X15474944Y-10107508D02*
X15484467Y-10117031D01*
X15484467Y-10117031D02*
X15493991Y-10136079D01*
X15493991Y-10136079D02*
X15503515Y-10174174D01*
X15503515Y-10174174D02*
X15503515Y-10221793D01*
X15503515Y-10221793D02*
X15493991Y-10259889D01*
X15493991Y-10259889D02*
X15484467Y-10278936D01*
X15484467Y-10278936D02*
X15474944Y-10288460D01*
X15474944Y-10288460D02*
X15455896Y-10297984D01*
X15455896Y-10297984D02*
X15436848Y-10297984D01*
X15436848Y-10297984D02*
X15417801Y-10288460D01*
X15417801Y-10288460D02*
X15408277Y-10278936D01*
X15408277Y-10278936D02*
X15398753Y-10259889D01*
X15398753Y-10259889D02*
X15389229Y-10221793D01*
X15389229Y-10221793D02*
X15389229Y-10174174D01*
X15389229Y-10174174D02*
X15398753Y-10136079D01*
X15398753Y-10136079D02*
X15408277Y-10117031D01*
X15408277Y-10117031D02*
X15417801Y-10107508D01*
X15417801Y-10107508D02*
X15436848Y-10097984D01*
X15570182Y-10097984D02*
X15693991Y-10097984D01*
X15693991Y-10097984D02*
X15627325Y-10174174D01*
X15627325Y-10174174D02*
X15655896Y-10174174D01*
X15655896Y-10174174D02*
X15674944Y-10183698D01*
X15674944Y-10183698D02*
X15684467Y-10193222D01*
X15684467Y-10193222D02*
X15693991Y-10212270D01*
X15693991Y-10212270D02*
X15693991Y-10259889D01*
X15693991Y-10259889D02*
X15684467Y-10278936D01*
X15684467Y-10278936D02*
X15674944Y-10288460D01*
X15674944Y-10288460D02*
X15655896Y-10297984D01*
X15655896Y-10297984D02*
X15598753Y-10297984D01*
X15598753Y-10297984D02*
X15579706Y-10288460D01*
X15579706Y-10288460D02*
X15570182Y-10278936D01*
X15884467Y-10297984D02*
X15770182Y-10297984D01*
X15827325Y-10297984D02*
X15827325Y-10097984D01*
X15827325Y-10097984D02*
X15808277Y-10126555D01*
X15808277Y-10126555D02*
X15789229Y-10145603D01*
X15789229Y-10145603D02*
X15770182Y-10155127D01*
X16065420Y-10097984D02*
X15970182Y-10097984D01*
X15970182Y-10097984D02*
X15960658Y-10193222D01*
X15960658Y-10193222D02*
X15970182Y-10183698D01*
X15970182Y-10183698D02*
X15989229Y-10174174D01*
X15989229Y-10174174D02*
X16036848Y-10174174D01*
X16036848Y-10174174D02*
X16055896Y-10183698D01*
X16055896Y-10183698D02*
X16065420Y-10193222D01*
X16065420Y-10193222D02*
X16074944Y-10212270D01*
X16074944Y-10212270D02*
X16074944Y-10259889D01*
X16074944Y-10259889D02*
X16065420Y-10278936D01*
X16065420Y-10278936D02*
X16055896Y-10288460D01*
X16055896Y-10288460D02*
X16036848Y-10297984D01*
X16036848Y-10297984D02*
X15989229Y-10297984D01*
X15989229Y-10297984D02*
X15970182Y-10288460D01*
X15970182Y-10288460D02*
X15960658Y-10278936D01*
X16151134Y-10097984D02*
X16151134Y-10136079D01*
X16227325Y-10097984D02*
X16227325Y-10136079D01*
X16522563Y-10374174D02*
X16513039Y-10364650D01*
X16513039Y-10364650D02*
X16493991Y-10336079D01*
X16493991Y-10336079D02*
X16484468Y-10317031D01*
X16484468Y-10317031D02*
X16474944Y-10288460D01*
X16474944Y-10288460D02*
X16465420Y-10240841D01*
X16465420Y-10240841D02*
X16465420Y-10202746D01*
X16465420Y-10202746D02*
X16474944Y-10155127D01*
X16474944Y-10155127D02*
X16484468Y-10126555D01*
X16484468Y-10126555D02*
X16493991Y-10107508D01*
X16493991Y-10107508D02*
X16513039Y-10078936D01*
X16513039Y-10078936D02*
X16522563Y-10069412D01*
X16684468Y-10164650D02*
X16684468Y-10297984D01*
X16636848Y-10088460D02*
X16589229Y-10231317D01*
X16589229Y-10231317D02*
X16713039Y-10231317D01*
X16941611Y-10297984D02*
X16941611Y-10097984D01*
X17027325Y-10297984D02*
X17027325Y-10193222D01*
X17027325Y-10193222D02*
X17017801Y-10174174D01*
X17017801Y-10174174D02*
X16998753Y-10164650D01*
X16998753Y-10164650D02*
X16970182Y-10164650D01*
X16970182Y-10164650D02*
X16951134Y-10174174D01*
X16951134Y-10174174D02*
X16941611Y-10183698D01*
X17151134Y-10297984D02*
X17132087Y-10288460D01*
X17132087Y-10288460D02*
X17122563Y-10278936D01*
X17122563Y-10278936D02*
X17113039Y-10259889D01*
X17113039Y-10259889D02*
X17113039Y-10202746D01*
X17113039Y-10202746D02*
X17122563Y-10183698D01*
X17122563Y-10183698D02*
X17132087Y-10174174D01*
X17132087Y-10174174D02*
X17151134Y-10164650D01*
X17151134Y-10164650D02*
X17179706Y-10164650D01*
X17179706Y-10164650D02*
X17198753Y-10174174D01*
X17198753Y-10174174D02*
X17208277Y-10183698D01*
X17208277Y-10183698D02*
X17217801Y-10202746D01*
X17217801Y-10202746D02*
X17217801Y-10259889D01*
X17217801Y-10259889D02*
X17208277Y-10278936D01*
X17208277Y-10278936D02*
X17198753Y-10288460D01*
X17198753Y-10288460D02*
X17179706Y-10297984D01*
X17179706Y-10297984D02*
X17151134Y-10297984D01*
X17332087Y-10297984D02*
X17313039Y-10288460D01*
X17313039Y-10288460D02*
X17303515Y-10269412D01*
X17303515Y-10269412D02*
X17303515Y-10097984D01*
X17484468Y-10288460D02*
X17465420Y-10297984D01*
X17465420Y-10297984D02*
X17427325Y-10297984D01*
X17427325Y-10297984D02*
X17408277Y-10288460D01*
X17408277Y-10288460D02*
X17398753Y-10269412D01*
X17398753Y-10269412D02*
X17398753Y-10193222D01*
X17398753Y-10193222D02*
X17408277Y-10174174D01*
X17408277Y-10174174D02*
X17427325Y-10164650D01*
X17427325Y-10164650D02*
X17465420Y-10164650D01*
X17465420Y-10164650D02*
X17484468Y-10174174D01*
X17484468Y-10174174D02*
X17493992Y-10193222D01*
X17493992Y-10193222D02*
X17493992Y-10212270D01*
X17493992Y-10212270D02*
X17398753Y-10231317D01*
X17570182Y-10288460D02*
X17589230Y-10297984D01*
X17589230Y-10297984D02*
X17627325Y-10297984D01*
X17627325Y-10297984D02*
X17646373Y-10288460D01*
X17646373Y-10288460D02*
X17655896Y-10269412D01*
X17655896Y-10269412D02*
X17655896Y-10259889D01*
X17655896Y-10259889D02*
X17646373Y-10240841D01*
X17646373Y-10240841D02*
X17627325Y-10231317D01*
X17627325Y-10231317D02*
X17598753Y-10231317D01*
X17598753Y-10231317D02*
X17579706Y-10221793D01*
X17579706Y-10221793D02*
X17570182Y-10202746D01*
X17570182Y-10202746D02*
X17570182Y-10193222D01*
X17570182Y-10193222D02*
X17579706Y-10174174D01*
X17579706Y-10174174D02*
X17598753Y-10164650D01*
X17598753Y-10164650D02*
X17627325Y-10164650D01*
X17627325Y-10164650D02*
X17646373Y-10174174D01*
X17722563Y-10374174D02*
X17732087Y-10364650D01*
X17732087Y-10364650D02*
X17751134Y-10336079D01*
X17751134Y-10336079D02*
X17760658Y-10317031D01*
X17760658Y-10317031D02*
X17770182Y-10288460D01*
X17770182Y-10288460D02*
X17779706Y-10240841D01*
X17779706Y-10240841D02*
X17779706Y-10202746D01*
X17779706Y-10202746D02*
X17770182Y-10155127D01*
X17770182Y-10155127D02*
X17760658Y-10126555D01*
X17760658Y-10126555D02*
X17751134Y-10107508D01*
X17751134Y-10107508D02*
X17732087Y-10078936D01*
X17732087Y-10078936D02*
X17722563Y-10069412D01*
D12*
X12897500Y-10420500D02*
X12897500Y-10520500D01*
X12847500Y-10470500D02*
X12947500Y-10470500D01*
D11*
X13313039Y-10561984D02*
X13198753Y-10561984D01*
X13255896Y-10561984D02*
X13255896Y-10361984D01*
X13255896Y-10361984D02*
X13236848Y-10390555D01*
X13236848Y-10390555D02*
X13217801Y-10409603D01*
X13217801Y-10409603D02*
X13198753Y-10419127D01*
X13398753Y-10542936D02*
X13408277Y-10552460D01*
X13408277Y-10552460D02*
X13398753Y-10561984D01*
X13398753Y-10561984D02*
X13389229Y-10552460D01*
X13389229Y-10552460D02*
X13398753Y-10542936D01*
X13398753Y-10542936D02*
X13398753Y-10561984D01*
X13532086Y-10361984D02*
X13551134Y-10361984D01*
X13551134Y-10361984D02*
X13570182Y-10371508D01*
X13570182Y-10371508D02*
X13579705Y-10381031D01*
X13579705Y-10381031D02*
X13589229Y-10400079D01*
X13589229Y-10400079D02*
X13598753Y-10438174D01*
X13598753Y-10438174D02*
X13598753Y-10485793D01*
X13598753Y-10485793D02*
X13589229Y-10523889D01*
X13589229Y-10523889D02*
X13579705Y-10542936D01*
X13579705Y-10542936D02*
X13570182Y-10552460D01*
X13570182Y-10552460D02*
X13551134Y-10561984D01*
X13551134Y-10561984D02*
X13532086Y-10561984D01*
X13532086Y-10561984D02*
X13513039Y-10552460D01*
X13513039Y-10552460D02*
X13503515Y-10542936D01*
X13503515Y-10542936D02*
X13493991Y-10523889D01*
X13493991Y-10523889D02*
X13484467Y-10485793D01*
X13484467Y-10485793D02*
X13484467Y-10438174D01*
X13484467Y-10438174D02*
X13493991Y-10400079D01*
X13493991Y-10400079D02*
X13503515Y-10381031D01*
X13503515Y-10381031D02*
X13513039Y-10371508D01*
X13513039Y-10371508D02*
X13532086Y-10361984D01*
X13722562Y-10361984D02*
X13741610Y-10361984D01*
X13741610Y-10361984D02*
X13760658Y-10371508D01*
X13760658Y-10371508D02*
X13770182Y-10381031D01*
X13770182Y-10381031D02*
X13779705Y-10400079D01*
X13779705Y-10400079D02*
X13789229Y-10438174D01*
X13789229Y-10438174D02*
X13789229Y-10485793D01*
X13789229Y-10485793D02*
X13779705Y-10523889D01*
X13779705Y-10523889D02*
X13770182Y-10542936D01*
X13770182Y-10542936D02*
X13760658Y-10552460D01*
X13760658Y-10552460D02*
X13741610Y-10561984D01*
X13741610Y-10561984D02*
X13722562Y-10561984D01*
X13722562Y-10561984D02*
X13703515Y-10552460D01*
X13703515Y-10552460D02*
X13693991Y-10542936D01*
X13693991Y-10542936D02*
X13684467Y-10523889D01*
X13684467Y-10523889D02*
X13674943Y-10485793D01*
X13674943Y-10485793D02*
X13674943Y-10438174D01*
X13674943Y-10438174D02*
X13684467Y-10400079D01*
X13684467Y-10400079D02*
X13693991Y-10381031D01*
X13693991Y-10381031D02*
X13703515Y-10371508D01*
X13703515Y-10371508D02*
X13722562Y-10361984D01*
X13913039Y-10361984D02*
X13932086Y-10361984D01*
X13932086Y-10361984D02*
X13951134Y-10371508D01*
X13951134Y-10371508D02*
X13960658Y-10381031D01*
X13960658Y-10381031D02*
X13970182Y-10400079D01*
X13970182Y-10400079D02*
X13979705Y-10438174D01*
X13979705Y-10438174D02*
X13979705Y-10485793D01*
X13979705Y-10485793D02*
X13970182Y-10523889D01*
X13970182Y-10523889D02*
X13960658Y-10542936D01*
X13960658Y-10542936D02*
X13951134Y-10552460D01*
X13951134Y-10552460D02*
X13932086Y-10561984D01*
X13932086Y-10561984D02*
X13913039Y-10561984D01*
X13913039Y-10561984D02*
X13893991Y-10552460D01*
X13893991Y-10552460D02*
X13884467Y-10542936D01*
X13884467Y-10542936D02*
X13874943Y-10523889D01*
X13874943Y-10523889D02*
X13865420Y-10485793D01*
X13865420Y-10485793D02*
X13865420Y-10438174D01*
X13865420Y-10438174D02*
X13874943Y-10400079D01*
X13874943Y-10400079D02*
X13884467Y-10381031D01*
X13884467Y-10381031D02*
X13893991Y-10371508D01*
X13893991Y-10371508D02*
X13913039Y-10361984D01*
X14065420Y-10561984D02*
X14065420Y-10428650D01*
X14065420Y-10447698D02*
X14074943Y-10438174D01*
X14074943Y-10438174D02*
X14093991Y-10428650D01*
X14093991Y-10428650D02*
X14122563Y-10428650D01*
X14122563Y-10428650D02*
X14141610Y-10438174D01*
X14141610Y-10438174D02*
X14151134Y-10457222D01*
X14151134Y-10457222D02*
X14151134Y-10561984D01*
X14151134Y-10457222D02*
X14160658Y-10438174D01*
X14160658Y-10438174D02*
X14179705Y-10428650D01*
X14179705Y-10428650D02*
X14208277Y-10428650D01*
X14208277Y-10428650D02*
X14227324Y-10438174D01*
X14227324Y-10438174D02*
X14236848Y-10457222D01*
X14236848Y-10457222D02*
X14236848Y-10561984D01*
X14332086Y-10561984D02*
X14332086Y-10428650D01*
X14332086Y-10447698D02*
X14341610Y-10438174D01*
X14341610Y-10438174D02*
X14360658Y-10428650D01*
X14360658Y-10428650D02*
X14389229Y-10428650D01*
X14389229Y-10428650D02*
X14408277Y-10438174D01*
X14408277Y-10438174D02*
X14417801Y-10457222D01*
X14417801Y-10457222D02*
X14417801Y-10561984D01*
X14417801Y-10457222D02*
X14427324Y-10438174D01*
X14427324Y-10438174D02*
X14446372Y-10428650D01*
X14446372Y-10428650D02*
X14474943Y-10428650D01*
X14474943Y-10428650D02*
X14493991Y-10438174D01*
X14493991Y-10438174D02*
X14503515Y-10457222D01*
X14503515Y-10457222D02*
X14503515Y-10561984D01*
X14893991Y-10352460D02*
X14722563Y-10609603D01*
X15151134Y-10361984D02*
X15170182Y-10361984D01*
X15170182Y-10361984D02*
X15189229Y-10371508D01*
X15189229Y-10371508D02*
X15198753Y-10381031D01*
X15198753Y-10381031D02*
X15208277Y-10400079D01*
X15208277Y-10400079D02*
X15217801Y-10438174D01*
X15217801Y-10438174D02*
X15217801Y-10485793D01*
X15217801Y-10485793D02*
X15208277Y-10523889D01*
X15208277Y-10523889D02*
X15198753Y-10542936D01*
X15198753Y-10542936D02*
X15189229Y-10552460D01*
X15189229Y-10552460D02*
X15170182Y-10561984D01*
X15170182Y-10561984D02*
X15151134Y-10561984D01*
X15151134Y-10561984D02*
X15132086Y-10552460D01*
X15132086Y-10552460D02*
X15122563Y-10542936D01*
X15122563Y-10542936D02*
X15113039Y-10523889D01*
X15113039Y-10523889D02*
X15103515Y-10485793D01*
X15103515Y-10485793D02*
X15103515Y-10438174D01*
X15103515Y-10438174D02*
X15113039Y-10400079D01*
X15113039Y-10400079D02*
X15122563Y-10381031D01*
X15122563Y-10381031D02*
X15132086Y-10371508D01*
X15132086Y-10371508D02*
X15151134Y-10361984D01*
X15303515Y-10542936D02*
X15313039Y-10552460D01*
X15313039Y-10552460D02*
X15303515Y-10561984D01*
X15303515Y-10561984D02*
X15293991Y-10552460D01*
X15293991Y-10552460D02*
X15303515Y-10542936D01*
X15303515Y-10542936D02*
X15303515Y-10561984D01*
X15436848Y-10361984D02*
X15455896Y-10361984D01*
X15455896Y-10361984D02*
X15474944Y-10371508D01*
X15474944Y-10371508D02*
X15484467Y-10381031D01*
X15484467Y-10381031D02*
X15493991Y-10400079D01*
X15493991Y-10400079D02*
X15503515Y-10438174D01*
X15503515Y-10438174D02*
X15503515Y-10485793D01*
X15503515Y-10485793D02*
X15493991Y-10523889D01*
X15493991Y-10523889D02*
X15484467Y-10542936D01*
X15484467Y-10542936D02*
X15474944Y-10552460D01*
X15474944Y-10552460D02*
X15455896Y-10561984D01*
X15455896Y-10561984D02*
X15436848Y-10561984D01*
X15436848Y-10561984D02*
X15417801Y-10552460D01*
X15417801Y-10552460D02*
X15408277Y-10542936D01*
X15408277Y-10542936D02*
X15398753Y-10523889D01*
X15398753Y-10523889D02*
X15389229Y-10485793D01*
X15389229Y-10485793D02*
X15389229Y-10438174D01*
X15389229Y-10438174D02*
X15398753Y-10400079D01*
X15398753Y-10400079D02*
X15408277Y-10381031D01*
X15408277Y-10381031D02*
X15417801Y-10371508D01*
X15417801Y-10371508D02*
X15436848Y-10361984D01*
X15570182Y-10361984D02*
X15693991Y-10361984D01*
X15693991Y-10361984D02*
X15627325Y-10438174D01*
X15627325Y-10438174D02*
X15655896Y-10438174D01*
X15655896Y-10438174D02*
X15674944Y-10447698D01*
X15674944Y-10447698D02*
X15684467Y-10457222D01*
X15684467Y-10457222D02*
X15693991Y-10476270D01*
X15693991Y-10476270D02*
X15693991Y-10523889D01*
X15693991Y-10523889D02*
X15684467Y-10542936D01*
X15684467Y-10542936D02*
X15674944Y-10552460D01*
X15674944Y-10552460D02*
X15655896Y-10561984D01*
X15655896Y-10561984D02*
X15598753Y-10561984D01*
X15598753Y-10561984D02*
X15579706Y-10552460D01*
X15579706Y-10552460D02*
X15570182Y-10542936D01*
X15789229Y-10561984D02*
X15827325Y-10561984D01*
X15827325Y-10561984D02*
X15846372Y-10552460D01*
X15846372Y-10552460D02*
X15855896Y-10542936D01*
X15855896Y-10542936D02*
X15874944Y-10514365D01*
X15874944Y-10514365D02*
X15884467Y-10476270D01*
X15884467Y-10476270D02*
X15884467Y-10400079D01*
X15884467Y-10400079D02*
X15874944Y-10381031D01*
X15874944Y-10381031D02*
X15865420Y-10371508D01*
X15865420Y-10371508D02*
X15846372Y-10361984D01*
X15846372Y-10361984D02*
X15808277Y-10361984D01*
X15808277Y-10361984D02*
X15789229Y-10371508D01*
X15789229Y-10371508D02*
X15779706Y-10381031D01*
X15779706Y-10381031D02*
X15770182Y-10400079D01*
X15770182Y-10400079D02*
X15770182Y-10447698D01*
X15770182Y-10447698D02*
X15779706Y-10466746D01*
X15779706Y-10466746D02*
X15789229Y-10476270D01*
X15789229Y-10476270D02*
X15808277Y-10485793D01*
X15808277Y-10485793D02*
X15846372Y-10485793D01*
X15846372Y-10485793D02*
X15865420Y-10476270D01*
X15865420Y-10476270D02*
X15874944Y-10466746D01*
X15874944Y-10466746D02*
X15884467Y-10447698D01*
X16055896Y-10428650D02*
X16055896Y-10561984D01*
X16008277Y-10352460D02*
X15960658Y-10495317D01*
X15960658Y-10495317D02*
X16084467Y-10495317D01*
X16151134Y-10361984D02*
X16151134Y-10400079D01*
X16227325Y-10361984D02*
X16227325Y-10400079D01*
X16522563Y-10638174D02*
X16513039Y-10628650D01*
X16513039Y-10628650D02*
X16493991Y-10600079D01*
X16493991Y-10600079D02*
X16484468Y-10581031D01*
X16484468Y-10581031D02*
X16474944Y-10552460D01*
X16474944Y-10552460D02*
X16465420Y-10504841D01*
X16465420Y-10504841D02*
X16465420Y-10466746D01*
X16465420Y-10466746D02*
X16474944Y-10419127D01*
X16474944Y-10419127D02*
X16484468Y-10390555D01*
X16484468Y-10390555D02*
X16493991Y-10371508D01*
X16493991Y-10371508D02*
X16513039Y-10342936D01*
X16513039Y-10342936D02*
X16522563Y-10333412D01*
X16589229Y-10381031D02*
X16598753Y-10371508D01*
X16598753Y-10371508D02*
X16617801Y-10361984D01*
X16617801Y-10361984D02*
X16665420Y-10361984D01*
X16665420Y-10361984D02*
X16684468Y-10371508D01*
X16684468Y-10371508D02*
X16693991Y-10381031D01*
X16693991Y-10381031D02*
X16703515Y-10400079D01*
X16703515Y-10400079D02*
X16703515Y-10419127D01*
X16703515Y-10419127D02*
X16693991Y-10447698D01*
X16693991Y-10447698D02*
X16579706Y-10561984D01*
X16579706Y-10561984D02*
X16703515Y-10561984D01*
X16817801Y-10447698D02*
X16798753Y-10438174D01*
X16798753Y-10438174D02*
X16789230Y-10428650D01*
X16789230Y-10428650D02*
X16779706Y-10409603D01*
X16779706Y-10409603D02*
X16779706Y-10400079D01*
X16779706Y-10400079D02*
X16789230Y-10381031D01*
X16789230Y-10381031D02*
X16798753Y-10371508D01*
X16798753Y-10371508D02*
X16817801Y-10361984D01*
X16817801Y-10361984D02*
X16855896Y-10361984D01*
X16855896Y-10361984D02*
X16874944Y-10371508D01*
X16874944Y-10371508D02*
X16884468Y-10381031D01*
X16884468Y-10381031D02*
X16893991Y-10400079D01*
X16893991Y-10400079D02*
X16893991Y-10409603D01*
X16893991Y-10409603D02*
X16884468Y-10428650D01*
X16884468Y-10428650D02*
X16874944Y-10438174D01*
X16874944Y-10438174D02*
X16855896Y-10447698D01*
X16855896Y-10447698D02*
X16817801Y-10447698D01*
X16817801Y-10447698D02*
X16798753Y-10457222D01*
X16798753Y-10457222D02*
X16789230Y-10466746D01*
X16789230Y-10466746D02*
X16779706Y-10485793D01*
X16779706Y-10485793D02*
X16779706Y-10523889D01*
X16779706Y-10523889D02*
X16789230Y-10542936D01*
X16789230Y-10542936D02*
X16798753Y-10552460D01*
X16798753Y-10552460D02*
X16817801Y-10561984D01*
X16817801Y-10561984D02*
X16855896Y-10561984D01*
X16855896Y-10561984D02*
X16874944Y-10552460D01*
X16874944Y-10552460D02*
X16884468Y-10542936D01*
X16884468Y-10542936D02*
X16893991Y-10523889D01*
X16893991Y-10523889D02*
X16893991Y-10485793D01*
X16893991Y-10485793D02*
X16884468Y-10466746D01*
X16884468Y-10466746D02*
X16874944Y-10457222D01*
X16874944Y-10457222D02*
X16855896Y-10447698D01*
X17132087Y-10561984D02*
X17132087Y-10361984D01*
X17217801Y-10561984D02*
X17217801Y-10457222D01*
X17217801Y-10457222D02*
X17208277Y-10438174D01*
X17208277Y-10438174D02*
X17189230Y-10428650D01*
X17189230Y-10428650D02*
X17160658Y-10428650D01*
X17160658Y-10428650D02*
X17141611Y-10438174D01*
X17141611Y-10438174D02*
X17132087Y-10447698D01*
X17341611Y-10561984D02*
X17322563Y-10552460D01*
X17322563Y-10552460D02*
X17313039Y-10542936D01*
X17313039Y-10542936D02*
X17303515Y-10523889D01*
X17303515Y-10523889D02*
X17303515Y-10466746D01*
X17303515Y-10466746D02*
X17313039Y-10447698D01*
X17313039Y-10447698D02*
X17322563Y-10438174D01*
X17322563Y-10438174D02*
X17341611Y-10428650D01*
X17341611Y-10428650D02*
X17370182Y-10428650D01*
X17370182Y-10428650D02*
X17389230Y-10438174D01*
X17389230Y-10438174D02*
X17398753Y-10447698D01*
X17398753Y-10447698D02*
X17408277Y-10466746D01*
X17408277Y-10466746D02*
X17408277Y-10523889D01*
X17408277Y-10523889D02*
X17398753Y-10542936D01*
X17398753Y-10542936D02*
X17389230Y-10552460D01*
X17389230Y-10552460D02*
X17370182Y-10561984D01*
X17370182Y-10561984D02*
X17341611Y-10561984D01*
X17522563Y-10561984D02*
X17503515Y-10552460D01*
X17503515Y-10552460D02*
X17493992Y-10533412D01*
X17493992Y-10533412D02*
X17493992Y-10361984D01*
X17674944Y-10552460D02*
X17655896Y-10561984D01*
X17655896Y-10561984D02*
X17617801Y-10561984D01*
X17617801Y-10561984D02*
X17598753Y-10552460D01*
X17598753Y-10552460D02*
X17589230Y-10533412D01*
X17589230Y-10533412D02*
X17589230Y-10457222D01*
X17589230Y-10457222D02*
X17598753Y-10438174D01*
X17598753Y-10438174D02*
X17617801Y-10428650D01*
X17617801Y-10428650D02*
X17655896Y-10428650D01*
X17655896Y-10428650D02*
X17674944Y-10438174D01*
X17674944Y-10438174D02*
X17684468Y-10457222D01*
X17684468Y-10457222D02*
X17684468Y-10476270D01*
X17684468Y-10476270D02*
X17589230Y-10495317D01*
X17760658Y-10552460D02*
X17779706Y-10561984D01*
X17779706Y-10561984D02*
X17817801Y-10561984D01*
X17817801Y-10561984D02*
X17836849Y-10552460D01*
X17836849Y-10552460D02*
X17846373Y-10533412D01*
X17846373Y-10533412D02*
X17846373Y-10523889D01*
X17846373Y-10523889D02*
X17836849Y-10504841D01*
X17836849Y-10504841D02*
X17817801Y-10495317D01*
X17817801Y-10495317D02*
X17789230Y-10495317D01*
X17789230Y-10495317D02*
X17770182Y-10485793D01*
X17770182Y-10485793D02*
X17760658Y-10466746D01*
X17760658Y-10466746D02*
X17760658Y-10457222D01*
X17760658Y-10457222D02*
X17770182Y-10438174D01*
X17770182Y-10438174D02*
X17789230Y-10428650D01*
X17789230Y-10428650D02*
X17817801Y-10428650D01*
X17817801Y-10428650D02*
X17836849Y-10438174D01*
X17913039Y-10638174D02*
X17922563Y-10628650D01*
X17922563Y-10628650D02*
X17941611Y-10600079D01*
X17941611Y-10600079D02*
X17951134Y-10581031D01*
X17951134Y-10581031D02*
X17960658Y-10552460D01*
X17960658Y-10552460D02*
X17970182Y-10504841D01*
X17970182Y-10504841D02*
X17970182Y-10466746D01*
X17970182Y-10466746D02*
X17960658Y-10419127D01*
X17960658Y-10419127D02*
X17951134Y-10390555D01*
X17951134Y-10390555D02*
X17941611Y-10371508D01*
X17941611Y-10371508D02*
X17922563Y-10342936D01*
X17922563Y-10342936D02*
X17913039Y-10333412D01*
D13*
X12928462Y-10780462D02*
X12928462Y-10688538D01*
X12836538Y-10688538D01*
X12836538Y-10780462D01*
X12928462Y-10780462D01*
D11*
X13313039Y-10825984D02*
X13198753Y-10825984D01*
X13255896Y-10825984D02*
X13255896Y-10625984D01*
X13255896Y-10625984D02*
X13236848Y-10654555D01*
X13236848Y-10654555D02*
X13217801Y-10673603D01*
X13217801Y-10673603D02*
X13198753Y-10683127D01*
X13398753Y-10806936D02*
X13408277Y-10816460D01*
X13408277Y-10816460D02*
X13398753Y-10825984D01*
X13398753Y-10825984D02*
X13389229Y-10816460D01*
X13389229Y-10816460D02*
X13398753Y-10806936D01*
X13398753Y-10806936D02*
X13398753Y-10825984D01*
X13474943Y-10625984D02*
X13598753Y-10625984D01*
X13598753Y-10625984D02*
X13532086Y-10702174D01*
X13532086Y-10702174D02*
X13560658Y-10702174D01*
X13560658Y-10702174D02*
X13579705Y-10711698D01*
X13579705Y-10711698D02*
X13589229Y-10721222D01*
X13589229Y-10721222D02*
X13598753Y-10740270D01*
X13598753Y-10740270D02*
X13598753Y-10787889D01*
X13598753Y-10787889D02*
X13589229Y-10806936D01*
X13589229Y-10806936D02*
X13579705Y-10816460D01*
X13579705Y-10816460D02*
X13560658Y-10825984D01*
X13560658Y-10825984D02*
X13503515Y-10825984D01*
X13503515Y-10825984D02*
X13484467Y-10816460D01*
X13484467Y-10816460D02*
X13474943Y-10806936D01*
X13722562Y-10625984D02*
X13741610Y-10625984D01*
X13741610Y-10625984D02*
X13760658Y-10635508D01*
X13760658Y-10635508D02*
X13770182Y-10645031D01*
X13770182Y-10645031D02*
X13779705Y-10664079D01*
X13779705Y-10664079D02*
X13789229Y-10702174D01*
X13789229Y-10702174D02*
X13789229Y-10749793D01*
X13789229Y-10749793D02*
X13779705Y-10787889D01*
X13779705Y-10787889D02*
X13770182Y-10806936D01*
X13770182Y-10806936D02*
X13760658Y-10816460D01*
X13760658Y-10816460D02*
X13741610Y-10825984D01*
X13741610Y-10825984D02*
X13722562Y-10825984D01*
X13722562Y-10825984D02*
X13703515Y-10816460D01*
X13703515Y-10816460D02*
X13693991Y-10806936D01*
X13693991Y-10806936D02*
X13684467Y-10787889D01*
X13684467Y-10787889D02*
X13674943Y-10749793D01*
X13674943Y-10749793D02*
X13674943Y-10702174D01*
X13674943Y-10702174D02*
X13684467Y-10664079D01*
X13684467Y-10664079D02*
X13693991Y-10645031D01*
X13693991Y-10645031D02*
X13703515Y-10635508D01*
X13703515Y-10635508D02*
X13722562Y-10625984D01*
X13913039Y-10625984D02*
X13932086Y-10625984D01*
X13932086Y-10625984D02*
X13951134Y-10635508D01*
X13951134Y-10635508D02*
X13960658Y-10645031D01*
X13960658Y-10645031D02*
X13970182Y-10664079D01*
X13970182Y-10664079D02*
X13979705Y-10702174D01*
X13979705Y-10702174D02*
X13979705Y-10749793D01*
X13979705Y-10749793D02*
X13970182Y-10787889D01*
X13970182Y-10787889D02*
X13960658Y-10806936D01*
X13960658Y-10806936D02*
X13951134Y-10816460D01*
X13951134Y-10816460D02*
X13932086Y-10825984D01*
X13932086Y-10825984D02*
X13913039Y-10825984D01*
X13913039Y-10825984D02*
X13893991Y-10816460D01*
X13893991Y-10816460D02*
X13884467Y-10806936D01*
X13884467Y-10806936D02*
X13874943Y-10787889D01*
X13874943Y-10787889D02*
X13865420Y-10749793D01*
X13865420Y-10749793D02*
X13865420Y-10702174D01*
X13865420Y-10702174D02*
X13874943Y-10664079D01*
X13874943Y-10664079D02*
X13884467Y-10645031D01*
X13884467Y-10645031D02*
X13893991Y-10635508D01*
X13893991Y-10635508D02*
X13913039Y-10625984D01*
X14065420Y-10825984D02*
X14065420Y-10692650D01*
X14065420Y-10711698D02*
X14074943Y-10702174D01*
X14074943Y-10702174D02*
X14093991Y-10692650D01*
X14093991Y-10692650D02*
X14122563Y-10692650D01*
X14122563Y-10692650D02*
X14141610Y-10702174D01*
X14141610Y-10702174D02*
X14151134Y-10721222D01*
X14151134Y-10721222D02*
X14151134Y-10825984D01*
X14151134Y-10721222D02*
X14160658Y-10702174D01*
X14160658Y-10702174D02*
X14179705Y-10692650D01*
X14179705Y-10692650D02*
X14208277Y-10692650D01*
X14208277Y-10692650D02*
X14227324Y-10702174D01*
X14227324Y-10702174D02*
X14236848Y-10721222D01*
X14236848Y-10721222D02*
X14236848Y-10825984D01*
X14332086Y-10825984D02*
X14332086Y-10692650D01*
X14332086Y-10711698D02*
X14341610Y-10702174D01*
X14341610Y-10702174D02*
X14360658Y-10692650D01*
X14360658Y-10692650D02*
X14389229Y-10692650D01*
X14389229Y-10692650D02*
X14408277Y-10702174D01*
X14408277Y-10702174D02*
X14417801Y-10721222D01*
X14417801Y-10721222D02*
X14417801Y-10825984D01*
X14417801Y-10721222D02*
X14427324Y-10702174D01*
X14427324Y-10702174D02*
X14446372Y-10692650D01*
X14446372Y-10692650D02*
X14474943Y-10692650D01*
X14474943Y-10692650D02*
X14493991Y-10702174D01*
X14493991Y-10702174D02*
X14503515Y-10721222D01*
X14503515Y-10721222D02*
X14503515Y-10825984D01*
X14893991Y-10616460D02*
X14722563Y-10873603D01*
X15151134Y-10625984D02*
X15170182Y-10625984D01*
X15170182Y-10625984D02*
X15189229Y-10635508D01*
X15189229Y-10635508D02*
X15198753Y-10645031D01*
X15198753Y-10645031D02*
X15208277Y-10664079D01*
X15208277Y-10664079D02*
X15217801Y-10702174D01*
X15217801Y-10702174D02*
X15217801Y-10749793D01*
X15217801Y-10749793D02*
X15208277Y-10787889D01*
X15208277Y-10787889D02*
X15198753Y-10806936D01*
X15198753Y-10806936D02*
X15189229Y-10816460D01*
X15189229Y-10816460D02*
X15170182Y-10825984D01*
X15170182Y-10825984D02*
X15151134Y-10825984D01*
X15151134Y-10825984D02*
X15132086Y-10816460D01*
X15132086Y-10816460D02*
X15122563Y-10806936D01*
X15122563Y-10806936D02*
X15113039Y-10787889D01*
X15113039Y-10787889D02*
X15103515Y-10749793D01*
X15103515Y-10749793D02*
X15103515Y-10702174D01*
X15103515Y-10702174D02*
X15113039Y-10664079D01*
X15113039Y-10664079D02*
X15122563Y-10645031D01*
X15122563Y-10645031D02*
X15132086Y-10635508D01*
X15132086Y-10635508D02*
X15151134Y-10625984D01*
X15303515Y-10806936D02*
X15313039Y-10816460D01*
X15313039Y-10816460D02*
X15303515Y-10825984D01*
X15303515Y-10825984D02*
X15293991Y-10816460D01*
X15293991Y-10816460D02*
X15303515Y-10806936D01*
X15303515Y-10806936D02*
X15303515Y-10825984D01*
X15436848Y-10625984D02*
X15455896Y-10625984D01*
X15455896Y-10625984D02*
X15474944Y-10635508D01*
X15474944Y-10635508D02*
X15484467Y-10645031D01*
X15484467Y-10645031D02*
X15493991Y-10664079D01*
X15493991Y-10664079D02*
X15503515Y-10702174D01*
X15503515Y-10702174D02*
X15503515Y-10749793D01*
X15503515Y-10749793D02*
X15493991Y-10787889D01*
X15493991Y-10787889D02*
X15484467Y-10806936D01*
X15484467Y-10806936D02*
X15474944Y-10816460D01*
X15474944Y-10816460D02*
X15455896Y-10825984D01*
X15455896Y-10825984D02*
X15436848Y-10825984D01*
X15436848Y-10825984D02*
X15417801Y-10816460D01*
X15417801Y-10816460D02*
X15408277Y-10806936D01*
X15408277Y-10806936D02*
X15398753Y-10787889D01*
X15398753Y-10787889D02*
X15389229Y-10749793D01*
X15389229Y-10749793D02*
X15389229Y-10702174D01*
X15389229Y-10702174D02*
X15398753Y-10664079D01*
X15398753Y-10664079D02*
X15408277Y-10645031D01*
X15408277Y-10645031D02*
X15417801Y-10635508D01*
X15417801Y-10635508D02*
X15436848Y-10625984D01*
X15684467Y-10625984D02*
X15589229Y-10625984D01*
X15589229Y-10625984D02*
X15579706Y-10721222D01*
X15579706Y-10721222D02*
X15589229Y-10711698D01*
X15589229Y-10711698D02*
X15608277Y-10702174D01*
X15608277Y-10702174D02*
X15655896Y-10702174D01*
X15655896Y-10702174D02*
X15674944Y-10711698D01*
X15674944Y-10711698D02*
X15684467Y-10721222D01*
X15684467Y-10721222D02*
X15693991Y-10740270D01*
X15693991Y-10740270D02*
X15693991Y-10787889D01*
X15693991Y-10787889D02*
X15684467Y-10806936D01*
X15684467Y-10806936D02*
X15674944Y-10816460D01*
X15674944Y-10816460D02*
X15655896Y-10825984D01*
X15655896Y-10825984D02*
X15608277Y-10825984D01*
X15608277Y-10825984D02*
X15589229Y-10816460D01*
X15589229Y-10816460D02*
X15579706Y-10806936D01*
X15884467Y-10825984D02*
X15770182Y-10825984D01*
X15827325Y-10825984D02*
X15827325Y-10625984D01*
X15827325Y-10625984D02*
X15808277Y-10654555D01*
X15808277Y-10654555D02*
X15789229Y-10673603D01*
X15789229Y-10673603D02*
X15770182Y-10683127D01*
X15960658Y-10645031D02*
X15970182Y-10635508D01*
X15970182Y-10635508D02*
X15989229Y-10625984D01*
X15989229Y-10625984D02*
X16036848Y-10625984D01*
X16036848Y-10625984D02*
X16055896Y-10635508D01*
X16055896Y-10635508D02*
X16065420Y-10645031D01*
X16065420Y-10645031D02*
X16074944Y-10664079D01*
X16074944Y-10664079D02*
X16074944Y-10683127D01*
X16074944Y-10683127D02*
X16065420Y-10711698D01*
X16065420Y-10711698D02*
X15951134Y-10825984D01*
X15951134Y-10825984D02*
X16074944Y-10825984D01*
X16151134Y-10625984D02*
X16151134Y-10664079D01*
X16227325Y-10625984D02*
X16227325Y-10664079D01*
X16522563Y-10902174D02*
X16513039Y-10892650D01*
X16513039Y-10892650D02*
X16493991Y-10864079D01*
X16493991Y-10864079D02*
X16484468Y-10845031D01*
X16484468Y-10845031D02*
X16474944Y-10816460D01*
X16474944Y-10816460D02*
X16465420Y-10768841D01*
X16465420Y-10768841D02*
X16465420Y-10730746D01*
X16465420Y-10730746D02*
X16474944Y-10683127D01*
X16474944Y-10683127D02*
X16484468Y-10654555D01*
X16484468Y-10654555D02*
X16493991Y-10635508D01*
X16493991Y-10635508D02*
X16513039Y-10606936D01*
X16513039Y-10606936D02*
X16522563Y-10597412D01*
X16589229Y-10645031D02*
X16598753Y-10635508D01*
X16598753Y-10635508D02*
X16617801Y-10625984D01*
X16617801Y-10625984D02*
X16665420Y-10625984D01*
X16665420Y-10625984D02*
X16684468Y-10635508D01*
X16684468Y-10635508D02*
X16693991Y-10645031D01*
X16693991Y-10645031D02*
X16703515Y-10664079D01*
X16703515Y-10664079D02*
X16703515Y-10683127D01*
X16703515Y-10683127D02*
X16693991Y-10711698D01*
X16693991Y-10711698D02*
X16579706Y-10825984D01*
X16579706Y-10825984D02*
X16703515Y-10825984D01*
X16941611Y-10825984D02*
X16941611Y-10625984D01*
X17027325Y-10825984D02*
X17027325Y-10721222D01*
X17027325Y-10721222D02*
X17017801Y-10702174D01*
X17017801Y-10702174D02*
X16998753Y-10692650D01*
X16998753Y-10692650D02*
X16970182Y-10692650D01*
X16970182Y-10692650D02*
X16951134Y-10702174D01*
X16951134Y-10702174D02*
X16941611Y-10711698D01*
X17151134Y-10825984D02*
X17132087Y-10816460D01*
X17132087Y-10816460D02*
X17122563Y-10806936D01*
X17122563Y-10806936D02*
X17113039Y-10787889D01*
X17113039Y-10787889D02*
X17113039Y-10730746D01*
X17113039Y-10730746D02*
X17122563Y-10711698D01*
X17122563Y-10711698D02*
X17132087Y-10702174D01*
X17132087Y-10702174D02*
X17151134Y-10692650D01*
X17151134Y-10692650D02*
X17179706Y-10692650D01*
X17179706Y-10692650D02*
X17198753Y-10702174D01*
X17198753Y-10702174D02*
X17208277Y-10711698D01*
X17208277Y-10711698D02*
X17217801Y-10730746D01*
X17217801Y-10730746D02*
X17217801Y-10787889D01*
X17217801Y-10787889D02*
X17208277Y-10806936D01*
X17208277Y-10806936D02*
X17198753Y-10816460D01*
X17198753Y-10816460D02*
X17179706Y-10825984D01*
X17179706Y-10825984D02*
X17151134Y-10825984D01*
X17332087Y-10825984D02*
X17313039Y-10816460D01*
X17313039Y-10816460D02*
X17303515Y-10797412D01*
X17303515Y-10797412D02*
X17303515Y-10625984D01*
X17484468Y-10816460D02*
X17465420Y-10825984D01*
X17465420Y-10825984D02*
X17427325Y-10825984D01*
X17427325Y-10825984D02*
X17408277Y-10816460D01*
X17408277Y-10816460D02*
X17398753Y-10797412D01*
X17398753Y-10797412D02*
X17398753Y-10721222D01*
X17398753Y-10721222D02*
X17408277Y-10702174D01*
X17408277Y-10702174D02*
X17427325Y-10692650D01*
X17427325Y-10692650D02*
X17465420Y-10692650D01*
X17465420Y-10692650D02*
X17484468Y-10702174D01*
X17484468Y-10702174D02*
X17493992Y-10721222D01*
X17493992Y-10721222D02*
X17493992Y-10740270D01*
X17493992Y-10740270D02*
X17398753Y-10759317D01*
X17570182Y-10816460D02*
X17589230Y-10825984D01*
X17589230Y-10825984D02*
X17627325Y-10825984D01*
X17627325Y-10825984D02*
X17646373Y-10816460D01*
X17646373Y-10816460D02*
X17655896Y-10797412D01*
X17655896Y-10797412D02*
X17655896Y-10787889D01*
X17655896Y-10787889D02*
X17646373Y-10768841D01*
X17646373Y-10768841D02*
X17627325Y-10759317D01*
X17627325Y-10759317D02*
X17598753Y-10759317D01*
X17598753Y-10759317D02*
X17579706Y-10749793D01*
X17579706Y-10749793D02*
X17570182Y-10730746D01*
X17570182Y-10730746D02*
X17570182Y-10721222D01*
X17570182Y-10721222D02*
X17579706Y-10702174D01*
X17579706Y-10702174D02*
X17598753Y-10692650D01*
X17598753Y-10692650D02*
X17627325Y-10692650D01*
X17627325Y-10692650D02*
X17646373Y-10702174D01*
X17722563Y-10902174D02*
X17732087Y-10892650D01*
X17732087Y-10892650D02*
X17751134Y-10864079D01*
X17751134Y-10864079D02*
X17760658Y-10845031D01*
X17760658Y-10845031D02*
X17770182Y-10816460D01*
X17770182Y-10816460D02*
X17779706Y-10768841D01*
X17779706Y-10768841D02*
X17779706Y-10730746D01*
X17779706Y-10730746D02*
X17770182Y-10683127D01*
X17770182Y-10683127D02*
X17760658Y-10654555D01*
X17760658Y-10654555D02*
X17751134Y-10635508D01*
X17751134Y-10635508D02*
X17732087Y-10606936D01*
X17732087Y-10606936D02*
X17722563Y-10597412D01*
D14*
X12877500Y-11068500D02*
X12947500Y-10998500D01*
X12877500Y-10928500D01*
X12807500Y-10998500D01*
X12877500Y-11068500D01*
D11*
X13313039Y-11089984D02*
X13198753Y-11089984D01*
X13255896Y-11089984D02*
X13255896Y-10889984D01*
X13255896Y-10889984D02*
X13236848Y-10918555D01*
X13236848Y-10918555D02*
X13217801Y-10937603D01*
X13217801Y-10937603D02*
X13198753Y-10947127D01*
X13398753Y-11070936D02*
X13408277Y-11080460D01*
X13408277Y-11080460D02*
X13398753Y-11089984D01*
X13398753Y-11089984D02*
X13389229Y-11080460D01*
X13389229Y-11080460D02*
X13398753Y-11070936D01*
X13398753Y-11070936D02*
X13398753Y-11089984D01*
X13579705Y-10956650D02*
X13579705Y-11089984D01*
X13532086Y-10880460D02*
X13484467Y-11023317D01*
X13484467Y-11023317D02*
X13608277Y-11023317D01*
X13722562Y-10889984D02*
X13741610Y-10889984D01*
X13741610Y-10889984D02*
X13760658Y-10899508D01*
X13760658Y-10899508D02*
X13770182Y-10909031D01*
X13770182Y-10909031D02*
X13779705Y-10928079D01*
X13779705Y-10928079D02*
X13789229Y-10966174D01*
X13789229Y-10966174D02*
X13789229Y-11013793D01*
X13789229Y-11013793D02*
X13779705Y-11051889D01*
X13779705Y-11051889D02*
X13770182Y-11070936D01*
X13770182Y-11070936D02*
X13760658Y-11080460D01*
X13760658Y-11080460D02*
X13741610Y-11089984D01*
X13741610Y-11089984D02*
X13722562Y-11089984D01*
X13722562Y-11089984D02*
X13703515Y-11080460D01*
X13703515Y-11080460D02*
X13693991Y-11070936D01*
X13693991Y-11070936D02*
X13684467Y-11051889D01*
X13684467Y-11051889D02*
X13674943Y-11013793D01*
X13674943Y-11013793D02*
X13674943Y-10966174D01*
X13674943Y-10966174D02*
X13684467Y-10928079D01*
X13684467Y-10928079D02*
X13693991Y-10909031D01*
X13693991Y-10909031D02*
X13703515Y-10899508D01*
X13703515Y-10899508D02*
X13722562Y-10889984D01*
X13913039Y-10889984D02*
X13932086Y-10889984D01*
X13932086Y-10889984D02*
X13951134Y-10899508D01*
X13951134Y-10899508D02*
X13960658Y-10909031D01*
X13960658Y-10909031D02*
X13970182Y-10928079D01*
X13970182Y-10928079D02*
X13979705Y-10966174D01*
X13979705Y-10966174D02*
X13979705Y-11013793D01*
X13979705Y-11013793D02*
X13970182Y-11051889D01*
X13970182Y-11051889D02*
X13960658Y-11070936D01*
X13960658Y-11070936D02*
X13951134Y-11080460D01*
X13951134Y-11080460D02*
X13932086Y-11089984D01*
X13932086Y-11089984D02*
X13913039Y-11089984D01*
X13913039Y-11089984D02*
X13893991Y-11080460D01*
X13893991Y-11080460D02*
X13884467Y-11070936D01*
X13884467Y-11070936D02*
X13874943Y-11051889D01*
X13874943Y-11051889D02*
X13865420Y-11013793D01*
X13865420Y-11013793D02*
X13865420Y-10966174D01*
X13865420Y-10966174D02*
X13874943Y-10928079D01*
X13874943Y-10928079D02*
X13884467Y-10909031D01*
X13884467Y-10909031D02*
X13893991Y-10899508D01*
X13893991Y-10899508D02*
X13913039Y-10889984D01*
X14065420Y-11089984D02*
X14065420Y-10956650D01*
X14065420Y-10975698D02*
X14074943Y-10966174D01*
X14074943Y-10966174D02*
X14093991Y-10956650D01*
X14093991Y-10956650D02*
X14122563Y-10956650D01*
X14122563Y-10956650D02*
X14141610Y-10966174D01*
X14141610Y-10966174D02*
X14151134Y-10985222D01*
X14151134Y-10985222D02*
X14151134Y-11089984D01*
X14151134Y-10985222D02*
X14160658Y-10966174D01*
X14160658Y-10966174D02*
X14179705Y-10956650D01*
X14179705Y-10956650D02*
X14208277Y-10956650D01*
X14208277Y-10956650D02*
X14227324Y-10966174D01*
X14227324Y-10966174D02*
X14236848Y-10985222D01*
X14236848Y-10985222D02*
X14236848Y-11089984D01*
X14332086Y-11089984D02*
X14332086Y-10956650D01*
X14332086Y-10975698D02*
X14341610Y-10966174D01*
X14341610Y-10966174D02*
X14360658Y-10956650D01*
X14360658Y-10956650D02*
X14389229Y-10956650D01*
X14389229Y-10956650D02*
X14408277Y-10966174D01*
X14408277Y-10966174D02*
X14417801Y-10985222D01*
X14417801Y-10985222D02*
X14417801Y-11089984D01*
X14417801Y-10985222D02*
X14427324Y-10966174D01*
X14427324Y-10966174D02*
X14446372Y-10956650D01*
X14446372Y-10956650D02*
X14474943Y-10956650D01*
X14474943Y-10956650D02*
X14493991Y-10966174D01*
X14493991Y-10966174D02*
X14503515Y-10985222D01*
X14503515Y-10985222D02*
X14503515Y-11089984D01*
X14893991Y-10880460D02*
X14722563Y-11137603D01*
X15151134Y-10889984D02*
X15170182Y-10889984D01*
X15170182Y-10889984D02*
X15189229Y-10899508D01*
X15189229Y-10899508D02*
X15198753Y-10909031D01*
X15198753Y-10909031D02*
X15208277Y-10928079D01*
X15208277Y-10928079D02*
X15217801Y-10966174D01*
X15217801Y-10966174D02*
X15217801Y-11013793D01*
X15217801Y-11013793D02*
X15208277Y-11051889D01*
X15208277Y-11051889D02*
X15198753Y-11070936D01*
X15198753Y-11070936D02*
X15189229Y-11080460D01*
X15189229Y-11080460D02*
X15170182Y-11089984D01*
X15170182Y-11089984D02*
X15151134Y-11089984D01*
X15151134Y-11089984D02*
X15132086Y-11080460D01*
X15132086Y-11080460D02*
X15122563Y-11070936D01*
X15122563Y-11070936D02*
X15113039Y-11051889D01*
X15113039Y-11051889D02*
X15103515Y-11013793D01*
X15103515Y-11013793D02*
X15103515Y-10966174D01*
X15103515Y-10966174D02*
X15113039Y-10928079D01*
X15113039Y-10928079D02*
X15122563Y-10909031D01*
X15122563Y-10909031D02*
X15132086Y-10899508D01*
X15132086Y-10899508D02*
X15151134Y-10889984D01*
X15303515Y-11070936D02*
X15313039Y-11080460D01*
X15313039Y-11080460D02*
X15303515Y-11089984D01*
X15303515Y-11089984D02*
X15293991Y-11080460D01*
X15293991Y-11080460D02*
X15303515Y-11070936D01*
X15303515Y-11070936D02*
X15303515Y-11089984D01*
X15436848Y-10889984D02*
X15455896Y-10889984D01*
X15455896Y-10889984D02*
X15474944Y-10899508D01*
X15474944Y-10899508D02*
X15484467Y-10909031D01*
X15484467Y-10909031D02*
X15493991Y-10928079D01*
X15493991Y-10928079D02*
X15503515Y-10966174D01*
X15503515Y-10966174D02*
X15503515Y-11013793D01*
X15503515Y-11013793D02*
X15493991Y-11051889D01*
X15493991Y-11051889D02*
X15484467Y-11070936D01*
X15484467Y-11070936D02*
X15474944Y-11080460D01*
X15474944Y-11080460D02*
X15455896Y-11089984D01*
X15455896Y-11089984D02*
X15436848Y-11089984D01*
X15436848Y-11089984D02*
X15417801Y-11080460D01*
X15417801Y-11080460D02*
X15408277Y-11070936D01*
X15408277Y-11070936D02*
X15398753Y-11051889D01*
X15398753Y-11051889D02*
X15389229Y-11013793D01*
X15389229Y-11013793D02*
X15389229Y-10966174D01*
X15389229Y-10966174D02*
X15398753Y-10928079D01*
X15398753Y-10928079D02*
X15408277Y-10909031D01*
X15408277Y-10909031D02*
X15417801Y-10899508D01*
X15417801Y-10899508D02*
X15436848Y-10889984D01*
X15684467Y-10889984D02*
X15589229Y-10889984D01*
X15589229Y-10889984D02*
X15579706Y-10985222D01*
X15579706Y-10985222D02*
X15589229Y-10975698D01*
X15589229Y-10975698D02*
X15608277Y-10966174D01*
X15608277Y-10966174D02*
X15655896Y-10966174D01*
X15655896Y-10966174D02*
X15674944Y-10975698D01*
X15674944Y-10975698D02*
X15684467Y-10985222D01*
X15684467Y-10985222D02*
X15693991Y-11004270D01*
X15693991Y-11004270D02*
X15693991Y-11051889D01*
X15693991Y-11051889D02*
X15684467Y-11070936D01*
X15684467Y-11070936D02*
X15674944Y-11080460D01*
X15674944Y-11080460D02*
X15655896Y-11089984D01*
X15655896Y-11089984D02*
X15608277Y-11089984D01*
X15608277Y-11089984D02*
X15589229Y-11080460D01*
X15589229Y-11080460D02*
X15579706Y-11070936D01*
X15874944Y-10889984D02*
X15779706Y-10889984D01*
X15779706Y-10889984D02*
X15770182Y-10985222D01*
X15770182Y-10985222D02*
X15779706Y-10975698D01*
X15779706Y-10975698D02*
X15798753Y-10966174D01*
X15798753Y-10966174D02*
X15846372Y-10966174D01*
X15846372Y-10966174D02*
X15865420Y-10975698D01*
X15865420Y-10975698D02*
X15874944Y-10985222D01*
X15874944Y-10985222D02*
X15884467Y-11004270D01*
X15884467Y-11004270D02*
X15884467Y-11051889D01*
X15884467Y-11051889D02*
X15874944Y-11070936D01*
X15874944Y-11070936D02*
X15865420Y-11080460D01*
X15865420Y-11080460D02*
X15846372Y-11089984D01*
X15846372Y-11089984D02*
X15798753Y-11089984D01*
X15798753Y-11089984D02*
X15779706Y-11080460D01*
X15779706Y-11080460D02*
X15770182Y-11070936D01*
X16074944Y-11089984D02*
X15960658Y-11089984D01*
X16017801Y-11089984D02*
X16017801Y-10889984D01*
X16017801Y-10889984D02*
X15998753Y-10918555D01*
X15998753Y-10918555D02*
X15979706Y-10937603D01*
X15979706Y-10937603D02*
X15960658Y-10947127D01*
X16151134Y-10889984D02*
X16151134Y-10928079D01*
X16227325Y-10889984D02*
X16227325Y-10928079D01*
X16522563Y-11166174D02*
X16513039Y-11156650D01*
X16513039Y-11156650D02*
X16493991Y-11128079D01*
X16493991Y-11128079D02*
X16484468Y-11109031D01*
X16484468Y-11109031D02*
X16474944Y-11080460D01*
X16474944Y-11080460D02*
X16465420Y-11032841D01*
X16465420Y-11032841D02*
X16465420Y-10994746D01*
X16465420Y-10994746D02*
X16474944Y-10947127D01*
X16474944Y-10947127D02*
X16484468Y-10918555D01*
X16484468Y-10918555D02*
X16493991Y-10899508D01*
X16493991Y-10899508D02*
X16513039Y-10870936D01*
X16513039Y-10870936D02*
X16522563Y-10861412D01*
X16589229Y-10909031D02*
X16598753Y-10899508D01*
X16598753Y-10899508D02*
X16617801Y-10889984D01*
X16617801Y-10889984D02*
X16665420Y-10889984D01*
X16665420Y-10889984D02*
X16684468Y-10899508D01*
X16684468Y-10899508D02*
X16693991Y-10909031D01*
X16693991Y-10909031D02*
X16703515Y-10928079D01*
X16703515Y-10928079D02*
X16703515Y-10947127D01*
X16703515Y-10947127D02*
X16693991Y-10975698D01*
X16693991Y-10975698D02*
X16579706Y-11089984D01*
X16579706Y-11089984D02*
X16703515Y-11089984D01*
X16941611Y-11089984D02*
X16941611Y-10889984D01*
X17027325Y-11089984D02*
X17027325Y-10985222D01*
X17027325Y-10985222D02*
X17017801Y-10966174D01*
X17017801Y-10966174D02*
X16998753Y-10956650D01*
X16998753Y-10956650D02*
X16970182Y-10956650D01*
X16970182Y-10956650D02*
X16951134Y-10966174D01*
X16951134Y-10966174D02*
X16941611Y-10975698D01*
X17151134Y-11089984D02*
X17132087Y-11080460D01*
X17132087Y-11080460D02*
X17122563Y-11070936D01*
X17122563Y-11070936D02*
X17113039Y-11051889D01*
X17113039Y-11051889D02*
X17113039Y-10994746D01*
X17113039Y-10994746D02*
X17122563Y-10975698D01*
X17122563Y-10975698D02*
X17132087Y-10966174D01*
X17132087Y-10966174D02*
X17151134Y-10956650D01*
X17151134Y-10956650D02*
X17179706Y-10956650D01*
X17179706Y-10956650D02*
X17198753Y-10966174D01*
X17198753Y-10966174D02*
X17208277Y-10975698D01*
X17208277Y-10975698D02*
X17217801Y-10994746D01*
X17217801Y-10994746D02*
X17217801Y-11051889D01*
X17217801Y-11051889D02*
X17208277Y-11070936D01*
X17208277Y-11070936D02*
X17198753Y-11080460D01*
X17198753Y-11080460D02*
X17179706Y-11089984D01*
X17179706Y-11089984D02*
X17151134Y-11089984D01*
X17332087Y-11089984D02*
X17313039Y-11080460D01*
X17313039Y-11080460D02*
X17303515Y-11061412D01*
X17303515Y-11061412D02*
X17303515Y-10889984D01*
X17484468Y-11080460D02*
X17465420Y-11089984D01*
X17465420Y-11089984D02*
X17427325Y-11089984D01*
X17427325Y-11089984D02*
X17408277Y-11080460D01*
X17408277Y-11080460D02*
X17398753Y-11061412D01*
X17398753Y-11061412D02*
X17398753Y-10985222D01*
X17398753Y-10985222D02*
X17408277Y-10966174D01*
X17408277Y-10966174D02*
X17427325Y-10956650D01*
X17427325Y-10956650D02*
X17465420Y-10956650D01*
X17465420Y-10956650D02*
X17484468Y-10966174D01*
X17484468Y-10966174D02*
X17493992Y-10985222D01*
X17493992Y-10985222D02*
X17493992Y-11004270D01*
X17493992Y-11004270D02*
X17398753Y-11023317D01*
X17570182Y-11080460D02*
X17589230Y-11089984D01*
X17589230Y-11089984D02*
X17627325Y-11089984D01*
X17627325Y-11089984D02*
X17646373Y-11080460D01*
X17646373Y-11080460D02*
X17655896Y-11061412D01*
X17655896Y-11061412D02*
X17655896Y-11051889D01*
X17655896Y-11051889D02*
X17646373Y-11032841D01*
X17646373Y-11032841D02*
X17627325Y-11023317D01*
X17627325Y-11023317D02*
X17598753Y-11023317D01*
X17598753Y-11023317D02*
X17579706Y-11013793D01*
X17579706Y-11013793D02*
X17570182Y-10994746D01*
X17570182Y-10994746D02*
X17570182Y-10985222D01*
X17570182Y-10985222D02*
X17579706Y-10966174D01*
X17579706Y-10966174D02*
X17598753Y-10956650D01*
X17598753Y-10956650D02*
X17627325Y-10956650D01*
X17627325Y-10956650D02*
X17646373Y-10966174D01*
X17722563Y-11166174D02*
X17732087Y-11156650D01*
X17732087Y-11156650D02*
X17751134Y-11128079D01*
X17751134Y-11128079D02*
X17760658Y-11109031D01*
X17760658Y-11109031D02*
X17770182Y-11080460D01*
X17770182Y-11080460D02*
X17779706Y-11032841D01*
X17779706Y-11032841D02*
X17779706Y-10994746D01*
X17779706Y-10994746D02*
X17770182Y-10947127D01*
X17770182Y-10947127D02*
X17760658Y-10918555D01*
X17760658Y-10918555D02*
X17751134Y-10899508D01*
X17751134Y-10899508D02*
X17732087Y-10870936D01*
X17732087Y-10870936D02*
X17722563Y-10861412D01*
M02*
