M48
; DRILL file {KiCad 8.0.8-8.0.8-0~ubuntu24.04.1} date 2025-08-03T14:07:57+0200
; FORMAT={-:-/ absolute / metric / decimal}
; #@! TF.CreationDate,2025-08-03T14:07:57+02:00
; #@! TF.GenerationSoftware,Kicad,Pcbnew,8.0.8-8.0.8-0~ubuntu24.04.1
; #@! TF.FileFunction,Plated,1,2,PTH
FMAT,2
METRIC
; #@! TA.AperFunction,Plated,PTH,ViaDrill
T1C0.300
; #@! TA.AperFunction,Plated,PTH,ComponentDrill
T2C0.800
; #@! TA.AperFunction,Plated,PTH,ComponentDrill
T3C1.000
; #@! TA.AperFunction,Plated,PTH,ComponentDrill
T4C1.300
; #@! TA.AperFunction,Plated,PTH,ComponentDrill
T5C1.400
%
G90
G05
T1
X154.5Y-75.0
X155.5Y-69.5
X156.5Y-68.9
X157.0Y-67.5
X157.5Y-66.625
X159.0Y-66.5
X163.5Y-74.5
X169.5Y-75.5
T2
X131.69Y-67.93
X139.31Y-67.93
X146.5Y-74.55
X146.5Y-79.43
T3
X133.42Y-89.93
X135.96Y-89.93
X138.5Y-89.93
X141.04Y-89.93
X152.76Y-90.5
X155.3Y-90.5
X157.34Y-58.0
X157.84Y-90.5
X159.88Y-58.0
X160.38Y-90.5
X162.42Y-58.0
X162.92Y-90.5
X164.96Y-58.0
X165.46Y-90.5
X167.5Y-58.0
X168.0Y-90.5
X170.54Y-90.5
X178.0Y-60.38
X178.0Y-62.92
X178.0Y-65.46
X178.0Y-68.0
X178.0Y-70.54
X178.0Y-73.08
X178.0Y-75.62
X178.0Y-80.38
X178.0Y-82.92
X178.0Y-85.46
X178.0Y-88.0
T4
X140.75Y-62.43
X147.25Y-62.43
T5
X134.517Y-59.95
X134.517Y-63.91
M30
