G04 #@! TF.GenerationSoftware,KiCad,Pcbnew,8.0.8-8.0.8-0~ubuntu24.04.1*
G04 #@! TF.CreationDate,2025-08-03T14:04:54+02:00*
G04 #@! TF.ProjectId,atmega328,61746d65-6761-4333-9238-2e6b69636164,rev?*
G04 #@! TF.SameCoordinates,Original*
G04 #@! TF.FileFunction,Copper,L1,Top*
G04 #@! TF.FilePolarity,Positive*
%FSLAX46Y46*%
G04 Gerber Fmt 4.6, Leading zero omitted, Abs format (unit mm)*
G04 Created by KiCad (PCBNEW 8.0.8-8.0.8-0~ubuntu24.04.1) date 2025-08-03 14:04:54*
%MOMM*%
%LPD*%
G01*
G04 APERTURE LIST*
G04 Aperture macros list*
%AMRoundRect*
0 Rectangle with rounded corners*
0 $1 Rounding radius*
0 $2 $3 $4 $5 $6 $7 $8 $9 X,Y pos of 4 corners*
0 Add a 4 corners polygon primitive as box body*
4,1,4,$2,$3,$4,$5,$6,$7,$8,$9,$2,$3,0*
0 Add four circle primitives for the rounded corners*
1,1,$1+$1,$2,$3*
1,1,$1+$1,$4,$5*
1,1,$1+$1,$6,$7*
1,1,$1+$1,$8,$9*
0 Add four rect primitives between the rounded corners*
20,1,$1+$1,$2,$3,$4,$5,0*
20,1,$1+$1,$4,$5,$6,$7,0*
20,1,$1+$1,$6,$7,$8,$9,0*
20,1,$1+$1,$8,$9,$2,$3,0*%
G04 Aperture macros list end*
G04 #@! TA.AperFunction,SMDPad,CuDef*
%ADD10RoundRect,0.250000X0.450000X-0.350000X0.450000X0.350000X-0.450000X0.350000X-0.450000X-0.350000X0*%
G04 #@! TD*
G04 #@! TA.AperFunction,SMDPad,CuDef*
%ADD11RoundRect,0.250000X0.350000X0.450000X-0.350000X0.450000X-0.350000X-0.450000X0.350000X-0.450000X0*%
G04 #@! TD*
G04 #@! TA.AperFunction,SMDPad,CuDef*
%ADD12RoundRect,0.250001X0.624999X-0.462499X0.624999X0.462499X-0.624999X0.462499X-0.624999X-0.462499X0*%
G04 #@! TD*
G04 #@! TA.AperFunction,SMDPad,CuDef*
%ADD13RoundRect,0.250000X0.475000X-0.337500X0.475000X0.337500X-0.475000X0.337500X-0.475000X-0.337500X0*%
G04 #@! TD*
G04 #@! TA.AperFunction,SMDPad,CuDef*
%ADD14RoundRect,0.250000X-0.475000X0.337500X-0.475000X-0.337500X0.475000X-0.337500X0.475000X0.337500X0*%
G04 #@! TD*
G04 #@! TA.AperFunction,SMDPad,CuDef*
%ADD15RoundRect,0.250000X0.337500X0.475000X-0.337500X0.475000X-0.337500X-0.475000X0.337500X-0.475000X0*%
G04 #@! TD*
G04 #@! TA.AperFunction,SMDPad,CuDef*
%ADD16RoundRect,0.250000X-0.337500X-0.475000X0.337500X-0.475000X0.337500X0.475000X-0.337500X0.475000X0*%
G04 #@! TD*
G04 #@! TA.AperFunction,SMDPad,CuDef*
%ADD17R,1.600000X0.550000*%
G04 #@! TD*
G04 #@! TA.AperFunction,SMDPad,CuDef*
%ADD18R,0.550000X1.600000*%
G04 #@! TD*
G04 #@! TA.AperFunction,ComponentPad*
%ADD19R,1.700000X1.700000*%
G04 #@! TD*
G04 #@! TA.AperFunction,ComponentPad*
%ADD20O,1.700000X1.700000*%
G04 #@! TD*
G04 #@! TA.AperFunction,ComponentPad*
%ADD21C,1.500000*%
G04 #@! TD*
G04 #@! TA.AperFunction,ComponentPad*
%ADD22RoundRect,0.250001X-0.949999X0.949999X-0.949999X-0.949999X0.949999X-0.949999X0.949999X0.949999X0*%
G04 #@! TD*
G04 #@! TA.AperFunction,ComponentPad*
%ADD23C,2.400000*%
G04 #@! TD*
G04 #@! TA.AperFunction,ComponentPad*
%ADD24R,2.250000X2.250000*%
G04 #@! TD*
G04 #@! TA.AperFunction,ComponentPad*
%ADD25C,2.250000*%
G04 #@! TD*
G04 #@! TA.AperFunction,ComponentPad*
%ADD26C,1.600000*%
G04 #@! TD*
G04 #@! TA.AperFunction,ComponentPad*
%ADD27O,1.600000X1.600000*%
G04 #@! TD*
G04 #@! TA.AperFunction,SMDPad,CuDef*
%ADD28RoundRect,0.375000X-0.375000X0.625000X-0.375000X-0.625000X0.375000X-0.625000X0.375000X0.625000X0*%
G04 #@! TD*
G04 #@! TA.AperFunction,SMDPad,CuDef*
%ADD29RoundRect,0.500000X-1.400000X0.500000X-1.400000X-0.500000X1.400000X-0.500000X1.400000X0.500000X0*%
G04 #@! TD*
G04 #@! TA.AperFunction,ViaPad*
%ADD30C,0.600000*%
G04 #@! TD*
G04 #@! TA.AperFunction,Conductor*
%ADD31C,0.200000*%
G04 #@! TD*
G04 #@! TA.AperFunction,Conductor*
%ADD32C,0.500000*%
G04 #@! TD*
G04 #@! TA.AperFunction,Conductor*
%ADD33C,0.400000*%
G04 #@! TD*
G04 APERTURE END LIST*
D10*
X153500000Y-64500000D03*
X153500000Y-62500000D03*
D11*
X158587500Y-80600000D03*
X156587500Y-80600000D03*
X154000000Y-80600000D03*
X152000000Y-80600000D03*
D12*
X157000000Y-82612500D03*
X157000000Y-85587500D03*
X152500000Y-85587500D03*
X152500000Y-82612500D03*
D13*
X151000000Y-64537500D03*
X151000000Y-62462500D03*
X142500000Y-81467500D03*
X142500000Y-79392500D03*
D14*
X142500000Y-72462500D03*
X142500000Y-74537500D03*
D15*
X137487500Y-74080000D03*
X135412500Y-74080000D03*
D13*
X168000000Y-77487500D03*
X168000000Y-75412500D03*
D16*
X151412500Y-72500000D03*
X153487500Y-72500000D03*
X151362500Y-75000000D03*
X153437500Y-75000000D03*
X131462500Y-74080000D03*
X133537500Y-74080000D03*
D15*
X170037500Y-73500000D03*
X167962500Y-73500000D03*
D17*
X156750000Y-70700000D03*
X156750000Y-71500000D03*
X156750000Y-72300000D03*
X156750000Y-73100000D03*
X156750000Y-73900000D03*
X156750000Y-74700000D03*
X156750000Y-75500000D03*
X156750000Y-76300000D03*
D18*
X158200000Y-77750000D03*
X159000000Y-77750000D03*
X159800000Y-77750000D03*
X160600000Y-77750000D03*
X161400000Y-77750000D03*
X162200000Y-77750000D03*
X163000000Y-77750000D03*
X163800000Y-77750000D03*
D17*
X165250000Y-76300000D03*
X165250000Y-75500000D03*
X165250000Y-74700000D03*
X165250000Y-73900000D03*
X165250000Y-73100000D03*
X165250000Y-72300000D03*
X165250000Y-71500000D03*
X165250000Y-70700000D03*
D18*
X163800000Y-69250000D03*
X163000000Y-69250000D03*
X162200000Y-69250000D03*
X161400000Y-69250000D03*
X160600000Y-69250000D03*
X159800000Y-69250000D03*
X159000000Y-69250000D03*
X158200000Y-69250000D03*
D19*
X152760000Y-90500000D03*
D20*
X155300000Y-90500000D03*
X157840000Y-90500000D03*
X160380000Y-90500000D03*
X162920000Y-90500000D03*
X165460000Y-90500000D03*
X168000000Y-90500000D03*
X170540000Y-90500000D03*
D19*
X141040000Y-89930000D03*
D20*
X138500000Y-89930000D03*
X135960000Y-89930000D03*
X133420000Y-89930000D03*
D19*
X178000000Y-75620000D03*
D20*
X178000000Y-73080000D03*
X178000000Y-70540000D03*
X178000000Y-68000000D03*
X178000000Y-65460000D03*
X178000000Y-62920000D03*
X178000000Y-60380000D03*
D21*
X146500000Y-74550000D03*
X146500000Y-79430000D03*
D22*
X134517500Y-59950000D03*
D23*
X134517500Y-63910000D03*
D19*
X167500000Y-58000000D03*
D20*
X164960000Y-58000000D03*
X162420000Y-58000000D03*
X159880000Y-58000000D03*
X157340000Y-58000000D03*
D19*
X178000000Y-88000000D03*
D20*
X178000000Y-85460000D03*
X178000000Y-82920000D03*
X178000000Y-80380000D03*
D24*
X147250000Y-62430000D03*
D25*
X140750000Y-62430000D03*
D26*
X139310000Y-67930000D03*
D27*
X131690000Y-67930000D03*
D28*
X136800000Y-77280000D03*
X134500000Y-77280000D03*
D29*
X134500000Y-83580000D03*
D28*
X132200000Y-77280000D03*
D30*
X154500000Y-75000000D03*
X169500000Y-75500000D03*
X155500000Y-69500000D03*
X156500000Y-68900000D03*
X157000000Y-67500000D03*
X163500000Y-74500000D03*
X159000000Y-66500000D03*
X157500000Y-66625000D03*
D31*
X152000000Y-80600000D02*
X152000000Y-82112500D01*
X152000000Y-82112500D02*
X152500000Y-82612500D01*
X154000000Y-80600000D02*
X154000000Y-86000000D01*
X154000000Y-86000000D02*
X156000000Y-88000000D01*
X158200000Y-77750000D02*
X155750000Y-77750000D01*
X155750000Y-77750000D02*
X154000000Y-79500000D01*
X154000000Y-79500000D02*
X154000000Y-80600000D01*
X165250000Y-73900000D02*
X167562500Y-73900000D01*
X167562500Y-73900000D02*
X167962500Y-73500000D01*
X160600000Y-65395000D02*
X160600000Y-65100000D01*
X160600000Y-65100000D02*
X158087500Y-62587500D01*
X158087500Y-62587500D02*
X153500000Y-62587500D01*
X165250000Y-76300000D02*
X165250000Y-77250000D01*
X165250000Y-77250000D02*
X168380000Y-80380000D01*
X168380000Y-80380000D02*
X178000000Y-80380000D01*
X163800000Y-77750000D02*
X163800000Y-77800000D01*
X163800000Y-77800000D02*
X169000000Y-83000000D01*
X169000000Y-83000000D02*
X177920000Y-83000000D01*
X177920000Y-83000000D02*
X178000000Y-82920000D01*
X163000000Y-77750000D02*
X163000000Y-79250000D01*
X169250000Y-85500000D02*
X177960000Y-85500000D01*
X163000000Y-79250000D02*
X169250000Y-85500000D01*
X177960000Y-85500000D02*
X178000000Y-85460000D01*
X162200000Y-77750000D02*
X162200000Y-80200000D01*
X162200000Y-80200000D02*
X170000000Y-88000000D01*
X170000000Y-88000000D02*
X178000000Y-88000000D01*
X156587500Y-80600000D02*
X156587500Y-82200000D01*
X156587500Y-82200000D02*
X157000000Y-82612500D01*
X131550000Y-74080000D02*
X131550000Y-74530000D01*
D32*
X152330000Y-69930000D02*
X137570000Y-69930000D01*
X153400000Y-71000000D02*
X153500000Y-70900000D01*
X153400000Y-71000000D02*
X152330000Y-69930000D01*
D31*
X168000000Y-75500000D02*
X169500000Y-75500000D01*
D32*
X137570000Y-69930000D02*
X135500000Y-72000000D01*
X134500000Y-77280000D02*
X134500000Y-88850000D01*
D33*
X154750000Y-74750000D02*
X154500000Y-75000000D01*
D31*
X165250000Y-75500000D02*
X168000000Y-75500000D01*
D33*
X154500000Y-75000000D02*
X153350000Y-75000000D01*
X156750000Y-73100000D02*
X154000000Y-73100000D01*
X153350000Y-75000000D02*
X153650000Y-74700000D01*
D32*
X153400000Y-71000000D02*
X153400000Y-72500000D01*
X134500000Y-75930000D02*
X134500000Y-77280000D01*
D33*
X154750000Y-74700000D02*
X154750000Y-74750000D01*
D32*
X135500000Y-72000000D02*
X135500000Y-74080000D01*
D33*
X153400000Y-72500000D02*
X153400000Y-74950000D01*
D32*
X153500000Y-70900000D02*
X153500000Y-64412500D01*
D33*
X154750000Y-74700000D02*
X156750000Y-74700000D01*
D31*
X177880000Y-75500000D02*
X178000000Y-75620000D01*
D33*
X153400000Y-72500000D02*
X153150000Y-72250000D01*
D32*
X134500000Y-88850000D02*
X133420000Y-89930000D01*
D33*
X153400000Y-74950000D02*
X153350000Y-75000000D01*
D31*
X169500000Y-75500000D02*
X177880000Y-75500000D01*
D32*
X135500000Y-74930000D02*
X134500000Y-75930000D01*
D33*
X154000000Y-73100000D02*
X153400000Y-72500000D01*
D32*
X135500000Y-74080000D02*
X135500000Y-74930000D01*
D31*
X142600000Y-74550000D02*
X142500000Y-74450000D01*
X148880000Y-76930000D02*
X146500000Y-74550000D01*
X146500000Y-74550000D02*
X142600000Y-74550000D01*
X153620000Y-76880000D02*
X148930000Y-76880000D01*
X148930000Y-76880000D02*
X148880000Y-76930000D01*
X156750000Y-75500000D02*
X155000000Y-75500000D01*
X155000000Y-75500000D02*
X153620000Y-76880000D01*
X155250000Y-76300000D02*
X154050000Y-77500000D01*
X154050000Y-77500000D02*
X148430000Y-77500000D01*
X146450000Y-79480000D02*
X146500000Y-79430000D01*
X142500000Y-79480000D02*
X146450000Y-79480000D01*
X156750000Y-76300000D02*
X155250000Y-76300000D01*
X148430000Y-77500000D02*
X146500000Y-79430000D01*
X153587500Y-62500000D02*
X153500000Y-62587500D01*
X160600000Y-64900000D02*
X162500000Y-63000000D01*
X160600000Y-65395000D02*
X160600000Y-64900000D01*
X147370000Y-62550000D02*
X147250000Y-62430000D01*
X151000000Y-62550000D02*
X150880000Y-62430000D01*
X162500000Y-63000000D02*
X162500000Y-58080000D01*
X160600000Y-65395000D02*
X160600000Y-69250000D01*
X153500000Y-62587500D02*
X151037500Y-62587500D01*
X162500000Y-58080000D02*
X162420000Y-58000000D01*
X151000000Y-62550000D02*
X147370000Y-62550000D01*
X151037500Y-62587500D02*
X151000000Y-62550000D01*
D32*
X133450000Y-70980000D02*
X136500000Y-67930000D01*
X133450000Y-74980000D02*
X132200000Y-76230000D01*
X132200000Y-76230000D02*
X132200000Y-77280000D01*
X133450000Y-74080000D02*
X133450000Y-74980000D01*
X136500000Y-67930000D02*
X139310000Y-67930000D01*
X133450000Y-74080000D02*
X133450000Y-70980000D01*
D31*
X153000000Y-82700000D02*
X153087500Y-82612500D01*
X159800000Y-77750000D02*
X159812500Y-77762500D01*
X159800000Y-83800000D02*
X165460000Y-89460000D01*
X159800000Y-77750000D02*
X159800000Y-83800000D01*
X165460000Y-89460000D02*
X165460000Y-90500000D01*
X155750000Y-71500000D02*
X156750000Y-71500000D01*
X155500000Y-71250000D02*
X155750000Y-71500000D01*
X155500000Y-69500000D02*
X155500000Y-71250000D01*
X158500000Y-80600000D02*
X158500000Y-81500000D01*
X158500000Y-80600000D02*
X158500000Y-80000000D01*
X159000000Y-85500000D02*
X162920000Y-89420000D01*
X158500000Y-80000000D02*
X159000000Y-79500000D01*
X159000000Y-79500000D02*
X159000000Y-77750000D01*
X158500000Y-81500000D02*
X159000000Y-82000000D01*
X159000000Y-82000000D02*
X159000000Y-85500000D01*
X162920000Y-89420000D02*
X162920000Y-90500000D01*
X159000000Y-88000000D02*
X160380000Y-89380000D01*
X156000000Y-88000000D02*
X159000000Y-88000000D01*
X160380000Y-89380000D02*
X160380000Y-90500000D01*
X156500000Y-68900000D02*
X156750000Y-69150000D01*
X156750000Y-69150000D02*
X156750000Y-70700000D01*
X177800000Y-80380000D02*
X178000000Y-80380000D01*
X170500000Y-90500000D02*
X170540000Y-90500000D01*
X161400000Y-81360000D02*
X170540000Y-90500000D01*
X161400000Y-77750000D02*
X161400000Y-81360000D01*
X160600000Y-82600000D02*
X168000000Y-90000000D01*
X168000000Y-90000000D02*
X168000000Y-90500000D01*
X160600000Y-77750000D02*
X160600000Y-82600000D01*
X166700000Y-72300000D02*
X168500000Y-70500000D01*
X168500000Y-70500000D02*
X177960000Y-70500000D01*
X177960000Y-70500000D02*
X178000000Y-70540000D01*
X165250000Y-72300000D02*
X166700000Y-72300000D01*
X157000000Y-67500000D02*
X158200000Y-68700000D01*
X158200000Y-68700000D02*
X158200000Y-69250000D01*
X177960000Y-65500000D02*
X178000000Y-65460000D01*
X170000000Y-65500000D02*
X177960000Y-65500000D01*
X165250000Y-70700000D02*
X165250000Y-70250000D01*
X165250000Y-70250000D02*
X170000000Y-65500000D01*
X162200000Y-69250000D02*
X162200000Y-67300000D01*
X167500000Y-62000000D02*
X167500000Y-58000000D01*
X162200000Y-67300000D02*
X167500000Y-62000000D01*
X170995000Y-60380000D02*
X178000000Y-60380000D01*
X163000000Y-68375000D02*
X170995000Y-60380000D01*
X163000000Y-69250000D02*
X163000000Y-68375000D01*
X163700000Y-74700000D02*
X163500000Y-74500000D01*
X165250000Y-74700000D02*
X163700000Y-74700000D01*
X165250000Y-71500000D02*
X166217157Y-71500000D01*
X169717157Y-68000000D02*
X178000000Y-68000000D01*
X166217157Y-71500000D02*
X169717157Y-68000000D01*
X164960000Y-62540000D02*
X164960000Y-58000000D01*
X161400000Y-69250000D02*
X161400000Y-66100000D01*
X161400000Y-66100000D02*
X164960000Y-62540000D01*
X163800000Y-69250000D02*
X164250000Y-69250000D01*
X164250000Y-69250000D02*
X170580000Y-62920000D01*
X170580000Y-62920000D02*
X178000000Y-62920000D01*
X159000000Y-66500000D02*
X159800000Y-67300000D01*
X159800000Y-67300000D02*
X159800000Y-69250000D01*
X157500000Y-66625000D02*
X159000000Y-68125000D01*
X159000000Y-68125000D02*
X159000000Y-69250000D01*
X156675000Y-82375000D02*
X157000000Y-82700000D01*
D32*
X131690000Y-67930000D02*
X131690000Y-66737500D01*
X131690000Y-66737500D02*
X134517500Y-63910000D01*
G04 #@! TA.AperFunction,Conductor*
G36*
X159414075Y-57807007D02*
G01*
X159380000Y-57934174D01*
X159380000Y-58065826D01*
X159414075Y-58192993D01*
X159446988Y-58250000D01*
X157773012Y-58250000D01*
X157805925Y-58192993D01*
X157840000Y-58065826D01*
X157840000Y-57934174D01*
X157805925Y-57807007D01*
X157773012Y-57750000D01*
X159446988Y-57750000D01*
X159414075Y-57807007D01*
G37*
G04 #@! TD.AperFunction*
G04 #@! TA.AperFunction,Conductor*
G36*
X180442539Y-56020185D02*
G01*
X180488294Y-56072989D01*
X180499500Y-56124500D01*
X180499500Y-92375500D01*
X180479815Y-92442539D01*
X180427011Y-92488294D01*
X180375500Y-92499500D01*
X130124500Y-92499500D01*
X130057461Y-92479815D01*
X130011706Y-92427011D01*
X130000500Y-92375500D01*
X130000500Y-76591829D01*
X131199500Y-76591829D01*
X131199500Y-77968150D01*
X131199501Y-77968175D01*
X131202291Y-78003627D01*
X131246380Y-78155385D01*
X131246382Y-78155390D01*
X131326827Y-78291416D01*
X131326834Y-78291425D01*
X131438574Y-78403165D01*
X131438578Y-78403168D01*
X131438580Y-78403170D01*
X131574610Y-78483618D01*
X131726373Y-78527709D01*
X131761837Y-78530500D01*
X132638162Y-78530499D01*
X132673627Y-78527709D01*
X132825390Y-78483618D01*
X132961420Y-78403170D01*
X133073170Y-78291420D01*
X133153618Y-78155390D01*
X133197709Y-78003627D01*
X133200500Y-77968163D01*
X133200499Y-76591838D01*
X133197709Y-76556373D01*
X133153618Y-76404610D01*
X133073170Y-76268580D01*
X133073168Y-76268578D01*
X133073165Y-76268574D01*
X133058883Y-76254292D01*
X133025398Y-76192969D01*
X133030382Y-76123277D01*
X133058881Y-76078932D01*
X133850500Y-75287314D01*
X133916392Y-75173186D01*
X133929450Y-75124448D01*
X133965813Y-75064789D01*
X134005890Y-75040360D01*
X134114977Y-74999674D01*
X134117326Y-74998798D01*
X134117326Y-74998797D01*
X134117331Y-74998796D01*
X134232546Y-74912546D01*
X134318796Y-74797331D01*
X134338194Y-74745323D01*
X134358818Y-74690027D01*
X134400689Y-74634093D01*
X134466153Y-74609676D01*
X134534426Y-74624527D01*
X134583832Y-74673932D01*
X134591182Y-74690027D01*
X134631202Y-74797328D01*
X134631206Y-74797335D01*
X134692528Y-74879250D01*
X134716946Y-74944714D01*
X134702095Y-75012987D01*
X134680943Y-75041242D01*
X134192686Y-75529500D01*
X134099502Y-75622683D01*
X134099500Y-75622686D01*
X134033608Y-75736812D01*
X133999500Y-75864108D01*
X133999500Y-75946996D01*
X133979815Y-76014035D01*
X133927011Y-76059790D01*
X133910095Y-76066072D01*
X133874614Y-76076380D01*
X133874611Y-76076381D01*
X133738583Y-76156827D01*
X133738574Y-76156834D01*
X133626834Y-76268574D01*
X133626827Y-76268583D01*
X133546382Y-76404609D01*
X133546380Y-76404614D01*
X133502292Y-76556366D01*
X133502290Y-76556379D01*
X133499500Y-76591829D01*
X133499500Y-77968150D01*
X133499501Y-77968175D01*
X133502291Y-78003627D01*
X133546380Y-78155385D01*
X133546382Y-78155390D01*
X133626827Y-78291416D01*
X133626834Y-78291425D01*
X133738574Y-78403165D01*
X133738578Y-78403168D01*
X133738580Y-78403170D01*
X133874610Y-78483618D01*
X133910094Y-78493926D01*
X133968979Y-78531532D01*
X133998187Y-78595004D01*
X133999500Y-78613003D01*
X133999500Y-82205500D01*
X133979815Y-82272539D01*
X133927011Y-82318294D01*
X133875500Y-82329500D01*
X133049998Y-82329500D01*
X133049980Y-82329501D01*
X132947203Y-82340000D01*
X132947200Y-82340001D01*
X132780668Y-82395185D01*
X132780663Y-82395187D01*
X132631342Y-82487289D01*
X132507289Y-82611342D01*
X132415187Y-82760663D01*
X132415186Y-82760666D01*
X132360001Y-82927203D01*
X132360001Y-82927204D01*
X132360000Y-82927204D01*
X132349500Y-83029983D01*
X132349500Y-84130001D01*
X132349501Y-84130019D01*
X132360000Y-84232796D01*
X132360001Y-84232799D01*
X132415185Y-84399331D01*
X132415187Y-84399336D01*
X132440664Y-84440641D01*
X132507288Y-84548656D01*
X132631344Y-84672712D01*
X132780666Y-84764814D01*
X132947203Y-84819999D01*
X133049991Y-84830500D01*
X133875500Y-84830499D01*
X133942539Y-84850183D01*
X133988294Y-84902987D01*
X133999500Y-84954499D01*
X133999500Y-88591323D01*
X133979815Y-88658362D01*
X133963181Y-88679005D01*
X133813118Y-88829067D01*
X133751795Y-88862551D01*
X133702652Y-88863274D01*
X133521976Y-88829500D01*
X133318024Y-88829500D01*
X133117544Y-88866976D01*
X133117541Y-88866976D01*
X133117541Y-88866977D01*
X132927364Y-88940651D01*
X132927357Y-88940655D01*
X132753960Y-89048017D01*
X132753958Y-89048019D01*
X132603237Y-89185418D01*
X132480327Y-89348178D01*
X132389422Y-89530739D01*
X132389417Y-89530752D01*
X132333602Y-89726917D01*
X132314785Y-89929999D01*
X132314785Y-89930000D01*
X132333602Y-90133082D01*
X132389417Y-90329247D01*
X132389422Y-90329260D01*
X132480327Y-90511821D01*
X132603237Y-90674581D01*
X132753958Y-90811980D01*
X132753960Y-90811982D01*
X132853141Y-90873392D01*
X132927363Y-90919348D01*
X133117544Y-90993024D01*
X133318024Y-91030500D01*
X133318026Y-91030500D01*
X133521974Y-91030500D01*
X133521976Y-91030500D01*
X133722456Y-90993024D01*
X133912637Y-90919348D01*
X134086041Y-90811981D01*
X134236764Y-90674579D01*
X134359673Y-90511821D01*
X134450582Y-90329250D01*
X134506397Y-90133083D01*
X134525215Y-89930000D01*
X134506397Y-89726917D01*
X134487464Y-89660375D01*
X134488050Y-89590513D01*
X134519047Y-89538765D01*
X134790959Y-89266854D01*
X134852281Y-89233370D01*
X134921973Y-89238354D01*
X134977906Y-89280226D01*
X135002323Y-89345690D01*
X134989639Y-89409807D01*
X134929424Y-89530734D01*
X134929417Y-89530752D01*
X134873602Y-89726917D01*
X134854785Y-89929999D01*
X134854785Y-89930000D01*
X134873602Y-90133082D01*
X134929417Y-90329247D01*
X134929422Y-90329260D01*
X135020327Y-90511821D01*
X135143237Y-90674581D01*
X135293958Y-90811980D01*
X135293960Y-90811982D01*
X135393141Y-90873392D01*
X135467363Y-90919348D01*
X135657544Y-90993024D01*
X135858024Y-91030500D01*
X135858026Y-91030500D01*
X136061974Y-91030500D01*
X136061976Y-91030500D01*
X136262456Y-90993024D01*
X136452637Y-90919348D01*
X136626041Y-90811981D01*
X136776764Y-90674579D01*
X136899673Y-90511821D01*
X136990582Y-90329250D01*
X137046397Y-90133083D01*
X137065215Y-89930000D01*
X137065215Y-89929999D01*
X137394785Y-89929999D01*
X137394785Y-89930000D01*
X137413602Y-90133082D01*
X137469417Y-90329247D01*
X137469422Y-90329260D01*
X137560327Y-90511821D01*
X137683237Y-90674581D01*
X137833958Y-90811980D01*
X137833960Y-90811982D01*
X137933141Y-90873392D01*
X138007363Y-90919348D01*
X138197544Y-90993024D01*
X138398024Y-91030500D01*
X138398026Y-91030500D01*
X138601974Y-91030500D01*
X138601976Y-91030500D01*
X138802456Y-90993024D01*
X138992637Y-90919348D01*
X139166041Y-90811981D01*
X139316764Y-90674579D01*
X139439673Y-90511821D01*
X139445560Y-90499999D01*
X139455000Y-90481041D01*
X139502503Y-90429803D01*
X139570165Y-90412382D01*
X139636506Y-90434307D01*
X139680461Y-90488619D01*
X139690000Y-90536312D01*
X139690000Y-90827844D01*
X139696401Y-90887372D01*
X139696403Y-90887379D01*
X139746645Y-91022086D01*
X139746649Y-91022093D01*
X139832809Y-91137187D01*
X139832812Y-91137190D01*
X139947906Y-91223350D01*
X139947913Y-91223354D01*
X140082620Y-91273596D01*
X140082627Y-91273598D01*
X140142155Y-91279999D01*
X140142172Y-91280000D01*
X140790000Y-91280000D01*
X140790000Y-90363012D01*
X140847007Y-90395925D01*
X140974174Y-90430000D01*
X141105826Y-90430000D01*
X141232993Y-90395925D01*
X141290000Y-90363012D01*
X141290000Y-91280000D01*
X141937828Y-91280000D01*
X141937844Y-91279999D01*
X141997372Y-91273598D01*
X141997379Y-91273596D01*
X142132086Y-91223354D01*
X142132093Y-91223350D01*
X142247187Y-91137190D01*
X142247190Y-91137187D01*
X142333350Y-91022093D01*
X142333354Y-91022086D01*
X142383596Y-90887379D01*
X142383598Y-90887372D01*
X142389999Y-90827844D01*
X142390000Y-90827827D01*
X142390000Y-90180000D01*
X141473012Y-90180000D01*
X141505925Y-90122993D01*
X141540000Y-89995826D01*
X141540000Y-89864174D01*
X141505925Y-89737007D01*
X141473012Y-89680000D01*
X142390000Y-89680000D01*
X142390000Y-89625321D01*
X151659500Y-89625321D01*
X151659500Y-91374678D01*
X151674032Y-91447735D01*
X151674033Y-91447739D01*
X151674034Y-91447740D01*
X151729399Y-91530601D01*
X151812260Y-91585966D01*
X151812264Y-91585967D01*
X151885321Y-91600499D01*
X151885324Y-91600500D01*
X151885326Y-91600500D01*
X153634676Y-91600500D01*
X153634677Y-91600499D01*
X153707740Y-91585966D01*
X153790601Y-91530601D01*
X153845966Y-91447740D01*
X153860500Y-91374674D01*
X153860500Y-90499999D01*
X154194785Y-90499999D01*
X154194785Y-90500000D01*
X154213602Y-90703082D01*
X154269417Y-90899247D01*
X154269422Y-90899260D01*
X154360327Y-91081821D01*
X154483237Y-91244581D01*
X154633958Y-91381980D01*
X154633960Y-91381982D01*
X154733141Y-91443392D01*
X154807363Y-91489348D01*
X154997544Y-91563024D01*
X155198024Y-91600500D01*
X155198026Y-91600500D01*
X155401974Y-91600500D01*
X155401976Y-91600500D01*
X155602456Y-91563024D01*
X155792637Y-91489348D01*
X155966041Y-91381981D01*
X156116764Y-91244579D01*
X156239673Y-91081821D01*
X156330582Y-90899250D01*
X156386397Y-90703083D01*
X156405215Y-90500000D01*
X156405215Y-90499999D01*
X156734785Y-90499999D01*
X156734785Y-90500000D01*
X156753602Y-90703082D01*
X156809417Y-90899247D01*
X156809422Y-90899260D01*
X156900327Y-91081821D01*
X157023237Y-91244581D01*
X157173958Y-91381980D01*
X157173960Y-91381982D01*
X157273141Y-91443392D01*
X157347363Y-91489348D01*
X157537544Y-91563024D01*
X157738024Y-91600500D01*
X157738026Y-91600500D01*
X157941974Y-91600500D01*
X157941976Y-91600500D01*
X158142456Y-91563024D01*
X158332637Y-91489348D01*
X158506041Y-91381981D01*
X158656764Y-91244579D01*
X158779673Y-91081821D01*
X158870582Y-90899250D01*
X158926397Y-90703083D01*
X158945215Y-90500000D01*
X158944160Y-90488619D01*
X158926397Y-90296917D01*
X158893131Y-90180000D01*
X158870582Y-90100750D01*
X158859313Y-90078119D01*
X158785559Y-89930000D01*
X158779673Y-89918179D01*
X158656764Y-89755421D01*
X158656762Y-89755418D01*
X158506041Y-89618019D01*
X158506039Y-89618017D01*
X158332642Y-89510655D01*
X158332639Y-89510653D01*
X158332637Y-89510652D01*
X158332636Y-89510651D01*
X158332635Y-89510651D01*
X158188734Y-89454904D01*
X158142456Y-89436976D01*
X157941976Y-89399500D01*
X157738024Y-89399500D01*
X157537544Y-89436976D01*
X157537541Y-89436976D01*
X157537541Y-89436977D01*
X157347364Y-89510651D01*
X157347357Y-89510655D01*
X157173960Y-89618017D01*
X157173958Y-89618019D01*
X157023237Y-89755418D01*
X156900327Y-89918178D01*
X156809422Y-90100739D01*
X156809417Y-90100752D01*
X156753602Y-90296917D01*
X156734785Y-90499999D01*
X156405215Y-90499999D01*
X156404160Y-90488619D01*
X156386397Y-90296917D01*
X156353131Y-90180000D01*
X156330582Y-90100750D01*
X156319313Y-90078119D01*
X156245559Y-89930000D01*
X156239673Y-89918179D01*
X156116764Y-89755421D01*
X156116762Y-89755418D01*
X155966041Y-89618019D01*
X155966039Y-89618017D01*
X155792642Y-89510655D01*
X155792639Y-89510653D01*
X155792637Y-89510652D01*
X155792636Y-89510651D01*
X155792635Y-89510651D01*
X155648734Y-89454904D01*
X155602456Y-89436976D01*
X155401976Y-89399500D01*
X155198024Y-89399500D01*
X154997544Y-89436976D01*
X154997541Y-89436976D01*
X154997541Y-89436977D01*
X154807364Y-89510651D01*
X154807357Y-89510655D01*
X154633960Y-89618017D01*
X154633958Y-89618019D01*
X154483237Y-89755418D01*
X154360327Y-89918178D01*
X154269422Y-90100739D01*
X154269417Y-90100752D01*
X154213602Y-90296917D01*
X154194785Y-90499999D01*
X153860500Y-90499999D01*
X153860500Y-89625326D01*
X153860500Y-89625323D01*
X153860499Y-89625321D01*
X153845967Y-89552264D01*
X153845966Y-89552260D01*
X153831595Y-89530752D01*
X153790601Y-89469399D01*
X153707740Y-89414034D01*
X153707739Y-89414033D01*
X153707735Y-89414032D01*
X153634677Y-89399500D01*
X153634674Y-89399500D01*
X151885326Y-89399500D01*
X151885323Y-89399500D01*
X151812264Y-89414032D01*
X151812260Y-89414033D01*
X151729399Y-89469399D01*
X151674033Y-89552260D01*
X151674032Y-89552264D01*
X151659500Y-89625321D01*
X142390000Y-89625321D01*
X142390000Y-89032172D01*
X142389999Y-89032155D01*
X142383598Y-88972627D01*
X142383596Y-88972620D01*
X142333354Y-88837913D01*
X142333350Y-88837906D01*
X142247190Y-88722812D01*
X142247187Y-88722809D01*
X142132093Y-88636649D01*
X142132086Y-88636645D01*
X141997379Y-88586403D01*
X141997372Y-88586401D01*
X141937844Y-88580000D01*
X141290000Y-88580000D01*
X141290000Y-89496988D01*
X141232993Y-89464075D01*
X141105826Y-89430000D01*
X140974174Y-89430000D01*
X140847007Y-89464075D01*
X140790000Y-89496988D01*
X140790000Y-88580000D01*
X140142155Y-88580000D01*
X140082627Y-88586401D01*
X140082620Y-88586403D01*
X139947913Y-88636645D01*
X139947906Y-88636649D01*
X139832812Y-88722809D01*
X139832809Y-88722812D01*
X139746649Y-88837906D01*
X139746645Y-88837913D01*
X139696403Y-88972620D01*
X139696401Y-88972627D01*
X139690000Y-89032155D01*
X139690000Y-89323687D01*
X139670315Y-89390726D01*
X139617511Y-89436481D01*
X139548353Y-89446425D01*
X139484797Y-89417400D01*
X139455000Y-89378960D01*
X139452919Y-89374780D01*
X139439673Y-89348179D01*
X139437794Y-89345690D01*
X139316762Y-89185418D01*
X139166041Y-89048019D01*
X139166039Y-89048017D01*
X138992642Y-88940655D01*
X138992635Y-88940651D01*
X138897546Y-88903814D01*
X138802456Y-88866976D01*
X138601976Y-88829500D01*
X138398024Y-88829500D01*
X138197544Y-88866976D01*
X138197541Y-88866976D01*
X138197541Y-88866977D01*
X138007364Y-88940651D01*
X138007357Y-88940655D01*
X137833960Y-89048017D01*
X137833958Y-89048019D01*
X137683237Y-89185418D01*
X137560327Y-89348178D01*
X137469422Y-89530739D01*
X137469417Y-89530752D01*
X137413602Y-89726917D01*
X137394785Y-89929999D01*
X137065215Y-89929999D01*
X137059115Y-89864174D01*
X137046397Y-89726917D01*
X137027465Y-89660380D01*
X136990582Y-89530750D01*
X136990574Y-89530734D01*
X136925289Y-89399624D01*
X136899673Y-89348179D01*
X136821594Y-89244786D01*
X136776762Y-89185418D01*
X136626041Y-89048019D01*
X136626039Y-89048017D01*
X136452642Y-88940655D01*
X136452635Y-88940651D01*
X136357546Y-88903814D01*
X136262456Y-88866976D01*
X136061976Y-88829500D01*
X135858024Y-88829500D01*
X135657544Y-88866976D01*
X135657541Y-88866976D01*
X135657541Y-88866977D01*
X135467364Y-88940651D01*
X135467357Y-88940655D01*
X135293962Y-89048016D01*
X135171698Y-89159474D01*
X135108893Y-89190090D01*
X135039506Y-89181892D01*
X134985567Y-89137482D01*
X134964199Y-89070960D01*
X134968383Y-89035752D01*
X135000500Y-88915892D01*
X135000500Y-88784107D01*
X135000500Y-86099985D01*
X151125000Y-86099985D01*
X151135493Y-86202689D01*
X151135494Y-86202696D01*
X151190641Y-86369118D01*
X151190643Y-86369123D01*
X151282684Y-86518344D01*
X151406655Y-86642315D01*
X151555876Y-86734356D01*
X151555881Y-86734358D01*
X151722303Y-86789505D01*
X151722310Y-86789506D01*
X151825014Y-86799999D01*
X151825027Y-86800000D01*
X152250000Y-86800000D01*
X152250000Y-85837500D01*
X151125000Y-85837500D01*
X151125000Y-86099985D01*
X135000500Y-86099985D01*
X135000500Y-85075014D01*
X151125000Y-85075014D01*
X151125000Y-85337500D01*
X152250000Y-85337500D01*
X152250000Y-84375000D01*
X151825014Y-84375000D01*
X151722310Y-84385493D01*
X151722303Y-84385494D01*
X151555881Y-84440641D01*
X151555876Y-84440643D01*
X151406655Y-84532684D01*
X151282684Y-84656655D01*
X151190643Y-84805876D01*
X151190641Y-84805881D01*
X151135494Y-84972303D01*
X151135493Y-84972310D01*
X151125000Y-85075014D01*
X135000500Y-85075014D01*
X135000500Y-84954499D01*
X135020185Y-84887460D01*
X135072989Y-84841705D01*
X135124500Y-84830499D01*
X135950002Y-84830499D01*
X135950008Y-84830499D01*
X136052797Y-84819999D01*
X136219334Y-84764814D01*
X136368656Y-84672712D01*
X136492712Y-84548656D01*
X136584814Y-84399334D01*
X136639999Y-84232797D01*
X136650500Y-84130009D01*
X136650499Y-83029992D01*
X136639999Y-82927203D01*
X136584814Y-82760666D01*
X136492712Y-82611344D01*
X136368656Y-82487288D01*
X136219334Y-82395186D01*
X136052797Y-82340001D01*
X136052795Y-82340000D01*
X135950016Y-82329500D01*
X135950009Y-82329500D01*
X135124500Y-82329500D01*
X135057461Y-82309815D01*
X135011706Y-82257011D01*
X135000500Y-82205500D01*
X135000500Y-81854986D01*
X141275001Y-81854986D01*
X141285494Y-81957697D01*
X141340641Y-82124119D01*
X141340643Y-82124124D01*
X141432684Y-82273345D01*
X141556654Y-82397315D01*
X141705875Y-82489356D01*
X141705880Y-82489358D01*
X141872302Y-82544505D01*
X141872309Y-82544506D01*
X141975019Y-82554999D01*
X142249999Y-82554999D01*
X142750000Y-82554999D01*
X143024972Y-82554999D01*
X143024986Y-82554998D01*
X143127697Y-82544505D01*
X143294119Y-82489358D01*
X143294124Y-82489356D01*
X143443345Y-82397315D01*
X143567315Y-82273345D01*
X143659356Y-82124124D01*
X143659358Y-82124119D01*
X143714505Y-81957697D01*
X143714506Y-81957690D01*
X143724999Y-81854986D01*
X143725000Y-81854973D01*
X143725000Y-81717500D01*
X142750000Y-81717500D01*
X142750000Y-82554999D01*
X142249999Y-82554999D01*
X142250000Y-82554998D01*
X142250000Y-81717500D01*
X141275001Y-81717500D01*
X141275001Y-81854986D01*
X135000500Y-81854986D01*
X135000500Y-78613003D01*
X135020185Y-78545964D01*
X135072989Y-78500209D01*
X135089900Y-78493928D01*
X135125390Y-78483618D01*
X135261420Y-78403170D01*
X135373170Y-78291420D01*
X135401960Y-78242737D01*
X135453027Y-78195054D01*
X135521769Y-78182549D01*
X135586359Y-78209194D01*
X135619780Y-78250763D01*
X135683392Y-78379025D01*
X135802632Y-78527366D01*
X135802633Y-78527367D01*
X135950974Y-78646607D01*
X135950977Y-78646609D01*
X136121476Y-78731168D01*
X136306175Y-78777102D01*
X136348903Y-78780000D01*
X136550000Y-78780000D01*
X137050000Y-78780000D01*
X137251097Y-78780000D01*
X137293824Y-78777102D01*
X137478523Y-78731168D01*
X137649022Y-78646609D01*
X137649025Y-78646607D01*
X137797366Y-78527367D01*
X137797367Y-78527366D01*
X137916607Y-78379025D01*
X137916609Y-78379022D01*
X138001168Y-78208523D01*
X138047102Y-78023824D01*
X138050000Y-77981096D01*
X138050000Y-77530000D01*
X137050000Y-77530000D01*
X137050000Y-78780000D01*
X136550000Y-78780000D01*
X136550000Y-77030000D01*
X137050000Y-77030000D01*
X138050000Y-77030000D01*
X138050000Y-76578903D01*
X138047102Y-76536175D01*
X138001168Y-76351476D01*
X137916609Y-76180977D01*
X137916607Y-76180974D01*
X137797367Y-76032633D01*
X137797366Y-76032632D01*
X137649025Y-75913392D01*
X137649022Y-75913390D01*
X137478523Y-75828831D01*
X137293824Y-75782897D01*
X137251097Y-75780000D01*
X137050000Y-75780000D01*
X137050000Y-77030000D01*
X136550000Y-77030000D01*
X136550000Y-75780000D01*
X136348903Y-75780000D01*
X136306175Y-75782897D01*
X136121476Y-75828831D01*
X135950977Y-75913390D01*
X135950974Y-75913392D01*
X135802633Y-76032632D01*
X135802632Y-76032633D01*
X135683392Y-76180974D01*
X135619780Y-76309236D01*
X135572358Y-76360549D01*
X135504723Y-76378077D01*
X135438348Y-76356257D01*
X135401961Y-76317263D01*
X135373170Y-76268580D01*
X135373165Y-76268574D01*
X135261425Y-76156834D01*
X135261416Y-76156827D01*
X135222797Y-76133988D01*
X135175113Y-76082918D01*
X135162610Y-76014177D01*
X135189256Y-75949588D01*
X135198227Y-75939586D01*
X135900500Y-75237314D01*
X135966392Y-75123186D01*
X135990469Y-75033326D01*
X136026832Y-74973669D01*
X136035921Y-74966163D01*
X136107546Y-74912546D01*
X136193796Y-74797331D01*
X136201180Y-74777532D01*
X136243050Y-74721598D01*
X136308514Y-74697179D01*
X136376787Y-74712029D01*
X136426194Y-74761433D01*
X136435069Y-74781859D01*
X136465641Y-74874119D01*
X136465643Y-74874124D01*
X136557684Y-75023345D01*
X136681654Y-75147315D01*
X136830875Y-75239356D01*
X136830880Y-75239358D01*
X136997302Y-75294505D01*
X136997309Y-75294506D01*
X137100019Y-75304999D01*
X137237499Y-75304999D01*
X137737500Y-75304999D01*
X137874972Y-75304999D01*
X137874986Y-75304998D01*
X137977697Y-75294505D01*
X138144119Y-75239358D01*
X138144124Y-75239356D01*
X138293345Y-75147315D01*
X138417315Y-75023345D01*
X138509356Y-74874124D01*
X138509358Y-74874119D01*
X138564505Y-74707697D01*
X138564506Y-74707690D01*
X138574999Y-74604986D01*
X138575000Y-74604973D01*
X138575000Y-74330000D01*
X137737500Y-74330000D01*
X137737500Y-75304999D01*
X137237499Y-75304999D01*
X137237500Y-75304998D01*
X137237500Y-73830000D01*
X137737500Y-73830000D01*
X138574999Y-73830000D01*
X138574999Y-73555028D01*
X138574998Y-73555013D01*
X138564505Y-73452302D01*
X138509358Y-73285880D01*
X138509356Y-73285875D01*
X138417315Y-73136654D01*
X138293345Y-73012684D01*
X138144124Y-72920643D01*
X138144119Y-72920641D01*
X137977697Y-72865494D01*
X137977690Y-72865493D01*
X137874986Y-72855000D01*
X137737500Y-72855000D01*
X137737500Y-73830000D01*
X137237500Y-73830000D01*
X137237500Y-72855000D01*
X137100027Y-72855000D01*
X137100012Y-72855001D01*
X136997302Y-72865494D01*
X136830880Y-72920641D01*
X136830875Y-72920643D01*
X136681654Y-73012684D01*
X136557684Y-73136654D01*
X136465643Y-73285875D01*
X136465642Y-73285878D01*
X136435069Y-73378141D01*
X136395296Y-73435585D01*
X136330780Y-73462408D01*
X136262004Y-73450093D01*
X136210804Y-73402549D01*
X136201181Y-73382468D01*
X136193798Y-73362673D01*
X136193793Y-73362664D01*
X136123185Y-73268345D01*
X136107546Y-73247454D01*
X136107542Y-73247451D01*
X136050188Y-73204515D01*
X136008318Y-73148581D01*
X136000500Y-73105249D01*
X136000500Y-72258676D01*
X136020185Y-72191637D01*
X136036819Y-72170995D01*
X136132801Y-72075013D01*
X141275000Y-72075013D01*
X141275000Y-72212500D01*
X142250000Y-72212500D01*
X142750000Y-72212500D01*
X143724999Y-72212500D01*
X143724999Y-72075028D01*
X143724998Y-72075013D01*
X143714782Y-71975013D01*
X150325000Y-71975013D01*
X150325000Y-72250000D01*
X151162500Y-72250000D01*
X151162500Y-71275000D01*
X151025027Y-71275000D01*
X151025012Y-71275001D01*
X150922302Y-71285494D01*
X150755880Y-71340641D01*
X150755875Y-71340643D01*
X150606654Y-71432684D01*
X150482684Y-71556654D01*
X150390643Y-71705875D01*
X150390641Y-71705880D01*
X150335494Y-71872302D01*
X150335493Y-71872309D01*
X150325000Y-71975013D01*
X143714782Y-71975013D01*
X143714505Y-71972302D01*
X143659358Y-71805880D01*
X143659356Y-71805875D01*
X143567315Y-71656654D01*
X143443345Y-71532684D01*
X143294124Y-71440643D01*
X143294119Y-71440641D01*
X143127697Y-71385494D01*
X143127690Y-71385493D01*
X143024986Y-71375000D01*
X142750000Y-71375000D01*
X142750000Y-72212500D01*
X142250000Y-72212500D01*
X142250000Y-71375000D01*
X141975029Y-71375000D01*
X141975012Y-71375001D01*
X141872302Y-71385494D01*
X141705880Y-71440641D01*
X141705875Y-71440643D01*
X141556654Y-71532684D01*
X141432684Y-71656654D01*
X141340643Y-71805875D01*
X141340641Y-71805880D01*
X141285494Y-71972302D01*
X141285493Y-71972309D01*
X141275000Y-72075013D01*
X136132801Y-72075013D01*
X137740995Y-70466819D01*
X137802318Y-70433334D01*
X137828676Y-70430500D01*
X152071324Y-70430500D01*
X152138363Y-70450185D01*
X152159005Y-70466819D01*
X152863181Y-71170995D01*
X152896666Y-71232318D01*
X152899500Y-71258676D01*
X152899500Y-71525249D01*
X152879815Y-71592288D01*
X152849812Y-71624515D01*
X152792457Y-71667451D01*
X152792451Y-71667457D01*
X152706206Y-71782664D01*
X152706201Y-71782674D01*
X152698817Y-71802471D01*
X152656945Y-71858404D01*
X152591480Y-71882820D01*
X152523207Y-71867967D01*
X152473803Y-71818561D01*
X152464930Y-71798140D01*
X152434358Y-71705880D01*
X152434356Y-71705875D01*
X152342315Y-71556654D01*
X152218345Y-71432684D01*
X152069124Y-71340643D01*
X152069119Y-71340641D01*
X151902697Y-71285494D01*
X151902690Y-71285493D01*
X151799986Y-71275000D01*
X151662500Y-71275000D01*
X151662500Y-73753638D01*
X151642815Y-73820677D01*
X151626181Y-73841319D01*
X151612500Y-73855000D01*
X151612500Y-76224999D01*
X151749972Y-76224999D01*
X151749986Y-76224998D01*
X151852697Y-76214505D01*
X152019119Y-76159358D01*
X152019124Y-76159356D01*
X152168345Y-76067315D01*
X152292315Y-75943345D01*
X152384356Y-75794124D01*
X152384359Y-75794117D01*
X152414930Y-75701860D01*
X152454702Y-75644415D01*
X152519218Y-75617591D01*
X152587994Y-75629906D01*
X152639194Y-75677448D01*
X152648818Y-75697529D01*
X152656203Y-75717329D01*
X152656206Y-75717335D01*
X152742452Y-75832544D01*
X152742455Y-75832547D01*
X152857664Y-75918793D01*
X152857671Y-75918797D01*
X152868911Y-75922989D01*
X152992517Y-75969091D01*
X153052127Y-75975500D01*
X153729456Y-75975499D01*
X153796495Y-75995183D01*
X153842250Y-76047987D01*
X153852194Y-76117146D01*
X153823169Y-76180702D01*
X153817137Y-76187180D01*
X153511137Y-76493181D01*
X153449814Y-76526666D01*
X153423456Y-76529500D01*
X149026543Y-76529500D01*
X148959504Y-76509815D01*
X148938862Y-76493181D01*
X147970668Y-75524986D01*
X150275001Y-75524986D01*
X150285494Y-75627697D01*
X150340641Y-75794119D01*
X150340643Y-75794124D01*
X150432684Y-75943345D01*
X150556654Y-76067315D01*
X150705875Y-76159356D01*
X150705880Y-76159358D01*
X150872302Y-76214505D01*
X150872309Y-76214506D01*
X150975019Y-76224999D01*
X151112499Y-76224999D01*
X151112500Y-76224998D01*
X151112500Y-75250000D01*
X150275001Y-75250000D01*
X150275001Y-75524986D01*
X147970668Y-75524986D01*
X147470102Y-75024420D01*
X147436617Y-74963097D01*
X147439123Y-74900743D01*
X147447199Y-74874119D01*
X147486024Y-74746132D01*
X147505341Y-74550000D01*
X147497956Y-74475013D01*
X150275000Y-74475013D01*
X150275000Y-74750000D01*
X151112500Y-74750000D01*
X151112500Y-73746362D01*
X151132185Y-73679323D01*
X151148819Y-73658681D01*
X151162500Y-73645000D01*
X151162500Y-72750000D01*
X150325001Y-72750000D01*
X150325001Y-73024986D01*
X150335494Y-73127697D01*
X150390641Y-73294119D01*
X150390643Y-73294124D01*
X150482684Y-73443345D01*
X150606654Y-73567315D01*
X150706726Y-73629040D01*
X150753450Y-73680988D01*
X150764673Y-73749951D01*
X150736829Y-73814033D01*
X150706727Y-73840117D01*
X150556656Y-73932682D01*
X150432684Y-74056654D01*
X150340643Y-74205875D01*
X150340641Y-74205880D01*
X150285494Y-74372302D01*
X150285493Y-74372309D01*
X150275000Y-74475013D01*
X147497956Y-74475013D01*
X147486024Y-74353868D01*
X147428814Y-74165273D01*
X147428811Y-74165269D01*
X147428811Y-74165266D01*
X147335913Y-73991467D01*
X147335909Y-73991460D01*
X147210883Y-73839116D01*
X147058539Y-73714090D01*
X147058532Y-73714086D01*
X146884733Y-73621188D01*
X146884727Y-73621186D01*
X146696132Y-73563976D01*
X146696129Y-73563975D01*
X146500000Y-73544659D01*
X146303870Y-73563975D01*
X146115266Y-73621188D01*
X145941467Y-73714086D01*
X145941460Y-73714090D01*
X145789116Y-73839116D01*
X145664090Y-73991460D01*
X145664086Y-73991467D01*
X145587926Y-74133953D01*
X145538964Y-74183797D01*
X145478568Y-74199500D01*
X143591977Y-74199500D01*
X143524938Y-74179815D01*
X143479183Y-74127011D01*
X143471733Y-74099865D01*
X143470876Y-74100068D01*
X143469092Y-74092520D01*
X143469089Y-74092513D01*
X143443899Y-74024973D01*
X143418797Y-73957671D01*
X143418793Y-73957664D01*
X143332547Y-73842455D01*
X143332544Y-73842452D01*
X143217335Y-73756206D01*
X143217329Y-73756203D01*
X143197529Y-73748818D01*
X143141596Y-73706946D01*
X143117179Y-73641482D01*
X143132031Y-73573209D01*
X143181437Y-73523804D01*
X143201860Y-73514930D01*
X143294117Y-73484359D01*
X143294124Y-73484356D01*
X143443345Y-73392315D01*
X143567315Y-73268345D01*
X143659356Y-73119124D01*
X143659358Y-73119119D01*
X143714505Y-72952697D01*
X143714506Y-72952690D01*
X143724999Y-72849986D01*
X143725000Y-72849973D01*
X143725000Y-72712500D01*
X141275001Y-72712500D01*
X141275001Y-72849986D01*
X141285494Y-72952697D01*
X141340641Y-73119119D01*
X141340643Y-73119124D01*
X141432684Y-73268345D01*
X141556654Y-73392315D01*
X141705875Y-73484356D01*
X141705880Y-73484358D01*
X141798140Y-73514930D01*
X141855585Y-73554702D01*
X141882408Y-73619218D01*
X141870093Y-73687994D01*
X141822550Y-73739194D01*
X141802471Y-73748817D01*
X141782674Y-73756201D01*
X141782664Y-73756206D01*
X141667455Y-73842452D01*
X141667452Y-73842455D01*
X141581206Y-73957664D01*
X141581202Y-73957671D01*
X141534651Y-74082483D01*
X141530909Y-74092517D01*
X141524500Y-74152127D01*
X141524500Y-74152134D01*
X141524500Y-74152135D01*
X141524500Y-74922870D01*
X141524501Y-74922876D01*
X141530908Y-74982483D01*
X141581202Y-75117328D01*
X141581206Y-75117335D01*
X141667452Y-75232544D01*
X141667455Y-75232547D01*
X141782664Y-75318793D01*
X141782671Y-75318797D01*
X141917517Y-75369091D01*
X141917516Y-75369091D01*
X141924444Y-75369835D01*
X141977127Y-75375500D01*
X143022872Y-75375499D01*
X143082483Y-75369091D01*
X143217331Y-75318796D01*
X143332546Y-75232546D01*
X143418796Y-75117331D01*
X143453450Y-75024420D01*
X143469582Y-74981167D01*
X143511453Y-74925233D01*
X143576917Y-74900816D01*
X143585764Y-74900500D01*
X145478568Y-74900500D01*
X145545607Y-74920185D01*
X145587926Y-74966047D01*
X145664086Y-75108532D01*
X145664090Y-75108539D01*
X145789116Y-75260883D01*
X145941460Y-75385909D01*
X145941467Y-75385913D01*
X146115266Y-75478811D01*
X146115269Y-75478811D01*
X146115273Y-75478814D01*
X146303868Y-75536024D01*
X146500000Y-75555341D01*
X146696132Y-75536024D01*
X146850743Y-75489123D01*
X146920610Y-75488499D01*
X146974420Y-75520102D01*
X147722901Y-76268583D01*
X148405467Y-76951148D01*
X148438952Y-77012471D01*
X148433968Y-77082163D01*
X148392096Y-77138096D01*
X148349880Y-77158603D01*
X148335883Y-77162354D01*
X148294710Y-77173386D01*
X148294709Y-77173387D01*
X148214791Y-77219527D01*
X148214786Y-77219531D01*
X146974419Y-78459897D01*
X146913096Y-78493382D01*
X146850743Y-78490877D01*
X146696130Y-78443975D01*
X146500000Y-78424659D01*
X146303870Y-78443975D01*
X146115266Y-78501188D01*
X145941467Y-78594086D01*
X145941460Y-78594090D01*
X145789116Y-78719116D01*
X145664090Y-78871460D01*
X145664086Y-78871467D01*
X145571185Y-79045273D01*
X145568856Y-79050897D01*
X145566739Y-79050020D01*
X145534055Y-79099917D01*
X145470249Y-79128387D01*
X145453672Y-79129500D01*
X143599499Y-79129500D01*
X143532460Y-79109815D01*
X143486705Y-79057011D01*
X143476562Y-79010388D01*
X143475900Y-79010423D01*
X143475854Y-79010429D01*
X143475853Y-79010426D01*
X143475676Y-79010436D01*
X143475499Y-79007135D01*
X143475499Y-79007128D01*
X143469091Y-78947517D01*
X143459496Y-78921792D01*
X143418797Y-78812671D01*
X143418793Y-78812664D01*
X143332547Y-78697455D01*
X143332544Y-78697452D01*
X143217335Y-78611206D01*
X143217328Y-78611202D01*
X143082482Y-78560908D01*
X143082483Y-78560908D01*
X143022883Y-78554501D01*
X143022881Y-78554500D01*
X143022873Y-78554500D01*
X143022864Y-78554500D01*
X141977129Y-78554500D01*
X141977123Y-78554501D01*
X141917516Y-78560908D01*
X141782671Y-78611202D01*
X141782664Y-78611206D01*
X141667455Y-78697452D01*
X141667452Y-78697455D01*
X141581206Y-78812664D01*
X141581202Y-78812671D01*
X141530910Y-78947513D01*
X141530909Y-78947517D01*
X141524500Y-79007127D01*
X141524500Y-79007134D01*
X141524500Y-79007135D01*
X141524500Y-79777870D01*
X141524501Y-79777876D01*
X141530908Y-79837483D01*
X141581202Y-79972328D01*
X141581206Y-79972335D01*
X141667452Y-80087544D01*
X141667455Y-80087547D01*
X141782664Y-80173793D01*
X141782673Y-80173798D01*
X141802468Y-80181181D01*
X141858402Y-80223051D01*
X141882820Y-80288515D01*
X141867969Y-80356788D01*
X141818565Y-80406194D01*
X141798141Y-80415069D01*
X141705878Y-80445642D01*
X141705875Y-80445643D01*
X141556654Y-80537684D01*
X141432684Y-80661654D01*
X141340643Y-80810875D01*
X141340641Y-80810880D01*
X141285494Y-80977302D01*
X141285493Y-80977309D01*
X141275000Y-81080013D01*
X141275000Y-81217500D01*
X143724999Y-81217500D01*
X143724999Y-81080028D01*
X143724998Y-81080013D01*
X143714505Y-80977302D01*
X143659358Y-80810880D01*
X143659356Y-80810875D01*
X143567315Y-80661654D01*
X143443345Y-80537684D01*
X143294124Y-80445643D01*
X143294119Y-80445641D01*
X143201859Y-80415069D01*
X143144414Y-80375296D01*
X143117591Y-80310780D01*
X143129906Y-80242004D01*
X143177449Y-80190804D01*
X143197533Y-80181180D01*
X143217326Y-80173798D01*
X143217331Y-80173796D01*
X143332546Y-80087546D01*
X143418796Y-79972331D01*
X143441609Y-79911167D01*
X143483480Y-79855233D01*
X143548944Y-79830816D01*
X143557791Y-79830500D01*
X145505294Y-79830500D01*
X145572333Y-79850185D01*
X145614652Y-79896047D01*
X145664086Y-79988532D01*
X145664090Y-79988539D01*
X145789116Y-80140883D01*
X145941460Y-80265909D01*
X145941467Y-80265913D01*
X146115266Y-80358811D01*
X146115269Y-80358811D01*
X146115273Y-80358814D01*
X146303868Y-80416024D01*
X146500000Y-80435341D01*
X146696132Y-80416024D01*
X146884727Y-80358814D01*
X146888518Y-80356788D01*
X147058532Y-80265913D01*
X147058538Y-80265910D01*
X147210883Y-80140883D01*
X147335910Y-79988538D01*
X147428814Y-79814727D01*
X147486024Y-79626132D01*
X147505341Y-79430000D01*
X147486024Y-79233868D01*
X147439121Y-79079253D01*
X147438498Y-79009389D01*
X147470099Y-78955581D01*
X148538863Y-77886819D01*
X148600186Y-77853334D01*
X148626544Y-77850500D01*
X154096142Y-77850500D01*
X154096144Y-77850500D01*
X154185288Y-77826614D01*
X154265212Y-77780470D01*
X155358862Y-76686818D01*
X155420185Y-76653334D01*
X155446543Y-76650500D01*
X155632894Y-76650500D01*
X155699933Y-76670185D01*
X155735996Y-76705610D01*
X155769397Y-76755599D01*
X155769398Y-76755599D01*
X155769399Y-76755601D01*
X155790050Y-76769399D01*
X155852260Y-76810966D01*
X155852264Y-76810967D01*
X155925321Y-76825499D01*
X155925324Y-76825500D01*
X157550500Y-76825500D01*
X157617539Y-76845185D01*
X157663294Y-76897989D01*
X157674500Y-76949500D01*
X157674500Y-77275500D01*
X157654815Y-77342539D01*
X157602011Y-77388294D01*
X157550500Y-77399500D01*
X155703856Y-77399500D01*
X155614712Y-77423386D01*
X155614709Y-77423387D01*
X155534791Y-77469527D01*
X155534786Y-77469531D01*
X153719531Y-79284786D01*
X153719529Y-79284789D01*
X153684934Y-79344711D01*
X153684933Y-79344712D01*
X153673387Y-79364709D01*
X153673386Y-79364712D01*
X153649500Y-79453856D01*
X153649500Y-79533023D01*
X153629815Y-79600062D01*
X153577011Y-79645817D01*
X153549865Y-79653266D01*
X153550068Y-79654124D01*
X153542520Y-79655907D01*
X153407671Y-79706202D01*
X153407664Y-79706206D01*
X153292455Y-79792452D01*
X153292452Y-79792455D01*
X153206206Y-79907664D01*
X153206202Y-79907671D01*
X153155908Y-80042517D01*
X153149501Y-80102116D01*
X153149501Y-80102123D01*
X153149500Y-80102135D01*
X153149500Y-81097870D01*
X153149501Y-81097876D01*
X153155908Y-81157483D01*
X153206202Y-81292328D01*
X153206206Y-81292335D01*
X153292451Y-81407543D01*
X153292452Y-81407544D01*
X153292454Y-81407546D01*
X153328163Y-81434278D01*
X153370033Y-81490210D01*
X153375017Y-81559901D01*
X153341532Y-81621224D01*
X153280209Y-81654709D01*
X153240447Y-81654389D01*
X153240195Y-81656738D01*
X153172882Y-81649501D01*
X153172880Y-81649500D01*
X153172872Y-81649500D01*
X153172864Y-81649500D01*
X152756894Y-81649500D01*
X152689855Y-81629815D01*
X152644100Y-81577011D01*
X152634156Y-81507853D01*
X152663181Y-81444297D01*
X152682582Y-81426234D01*
X152707546Y-81407546D01*
X152793796Y-81292331D01*
X152844091Y-81157483D01*
X152850500Y-81097873D01*
X152850499Y-80102128D01*
X152844091Y-80042517D01*
X152832712Y-80012009D01*
X152793797Y-79907671D01*
X152793793Y-79907664D01*
X152707547Y-79792455D01*
X152707544Y-79792452D01*
X152592335Y-79706206D01*
X152592328Y-79706202D01*
X152457482Y-79655908D01*
X152457483Y-79655908D01*
X152397883Y-79649501D01*
X152397881Y-79649500D01*
X152397873Y-79649500D01*
X152397864Y-79649500D01*
X151602129Y-79649500D01*
X151602123Y-79649501D01*
X151542516Y-79655908D01*
X151407671Y-79706202D01*
X151407664Y-79706206D01*
X151292455Y-79792452D01*
X151292452Y-79792455D01*
X151206206Y-79907664D01*
X151206202Y-79907671D01*
X151155908Y-80042517D01*
X151149501Y-80102116D01*
X151149501Y-80102123D01*
X151149500Y-80102135D01*
X151149500Y-81097870D01*
X151149501Y-81097876D01*
X151155908Y-81157483D01*
X151206202Y-81292328D01*
X151206206Y-81292335D01*
X151292452Y-81407544D01*
X151292455Y-81407547D01*
X151407664Y-81493793D01*
X151407671Y-81493797D01*
X151476057Y-81519303D01*
X151534458Y-81541085D01*
X151590391Y-81582956D01*
X151614809Y-81648420D01*
X151599958Y-81716693D01*
X151565438Y-81756532D01*
X151517455Y-81792452D01*
X151431204Y-81907670D01*
X151431202Y-81907672D01*
X151380908Y-82042518D01*
X151374501Y-82102117D01*
X151374500Y-82102136D01*
X151374500Y-83122863D01*
X151374501Y-83122882D01*
X151380908Y-83182481D01*
X151431202Y-83317327D01*
X151431203Y-83317328D01*
X151431204Y-83317330D01*
X151517454Y-83432546D01*
X151632670Y-83518796D01*
X151632671Y-83518796D01*
X151632672Y-83518797D01*
X151767518Y-83569091D01*
X151767517Y-83569091D01*
X151774445Y-83569835D01*
X151827128Y-83575500D01*
X151827137Y-83575500D01*
X153172863Y-83575500D01*
X153172872Y-83575500D01*
X153232482Y-83569091D01*
X153367330Y-83518796D01*
X153451190Y-83456018D01*
X153516653Y-83431602D01*
X153584926Y-83446453D01*
X153634332Y-83495858D01*
X153649500Y-83555286D01*
X153649500Y-84345146D01*
X153629815Y-84412185D01*
X153577011Y-84457940D01*
X153507853Y-84467884D01*
X153460404Y-84450685D01*
X153444127Y-84440646D01*
X153444118Y-84440641D01*
X153277696Y-84385494D01*
X153277689Y-84385493D01*
X153174985Y-84375000D01*
X152750000Y-84375000D01*
X152750000Y-86800000D01*
X153174973Y-86800000D01*
X153174985Y-86799999D01*
X153277689Y-86789506D01*
X153277696Y-86789505D01*
X153444118Y-86734358D01*
X153444123Y-86734356D01*
X153593344Y-86642315D01*
X153717315Y-86518344D01*
X153751474Y-86462963D01*
X153803421Y-86416237D01*
X153872384Y-86405014D01*
X153936466Y-86432856D01*
X153944695Y-86440377D01*
X155784788Y-88280470D01*
X155864712Y-88326614D01*
X155953856Y-88350500D01*
X158803456Y-88350500D01*
X158870495Y-88370185D01*
X158891137Y-88386819D01*
X159855476Y-89351158D01*
X159888961Y-89412481D01*
X159883977Y-89482173D01*
X159842105Y-89538106D01*
X159833073Y-89544266D01*
X159713957Y-89618020D01*
X159563237Y-89755418D01*
X159440327Y-89918178D01*
X159349422Y-90100739D01*
X159349417Y-90100752D01*
X159293602Y-90296917D01*
X159274785Y-90499999D01*
X159274785Y-90500000D01*
X159293602Y-90703082D01*
X159349417Y-90899247D01*
X159349422Y-90899260D01*
X159440327Y-91081821D01*
X159563237Y-91244581D01*
X159713958Y-91381980D01*
X159713960Y-91381982D01*
X159813141Y-91443392D01*
X159887363Y-91489348D01*
X160077544Y-91563024D01*
X160278024Y-91600500D01*
X160278026Y-91600500D01*
X160481974Y-91600500D01*
X160481976Y-91600500D01*
X160682456Y-91563024D01*
X160872637Y-91489348D01*
X161046041Y-91381981D01*
X161196764Y-91244579D01*
X161319673Y-91081821D01*
X161410582Y-90899250D01*
X161466397Y-90703083D01*
X161485215Y-90500000D01*
X161484160Y-90488619D01*
X161466397Y-90296917D01*
X161433131Y-90180000D01*
X161410582Y-90100750D01*
X161399313Y-90078119D01*
X161325559Y-89930000D01*
X161319673Y-89918179D01*
X161196764Y-89755421D01*
X161196762Y-89755418D01*
X161046041Y-89618019D01*
X161046039Y-89618017D01*
X160872640Y-89510653D01*
X160872625Y-89510646D01*
X160809706Y-89486271D01*
X160754304Y-89443698D01*
X160730714Y-89377931D01*
X160730500Y-89370645D01*
X160730500Y-89333858D01*
X160730500Y-89333856D01*
X160706614Y-89244712D01*
X160675078Y-89190090D01*
X160660472Y-89164791D01*
X160660468Y-89164786D01*
X159215213Y-87719531D01*
X159215208Y-87719527D01*
X159135290Y-87673387D01*
X159135289Y-87673386D01*
X159135288Y-87673386D01*
X159046144Y-87649500D01*
X159046143Y-87649500D01*
X156196544Y-87649500D01*
X156129505Y-87629815D01*
X156108863Y-87613181D01*
X154595667Y-86099985D01*
X155625000Y-86099985D01*
X155635493Y-86202689D01*
X155635494Y-86202696D01*
X155690641Y-86369118D01*
X155690643Y-86369123D01*
X155782684Y-86518344D01*
X155906655Y-86642315D01*
X156055876Y-86734356D01*
X156055881Y-86734358D01*
X156222303Y-86789505D01*
X156222310Y-86789506D01*
X156325014Y-86799999D01*
X156325027Y-86800000D01*
X156750000Y-86800000D01*
X157250000Y-86800000D01*
X157674973Y-86800000D01*
X157674985Y-86799999D01*
X157777689Y-86789506D01*
X157777696Y-86789505D01*
X157944118Y-86734358D01*
X157944123Y-86734356D01*
X158093344Y-86642315D01*
X158217315Y-86518344D01*
X158309356Y-86369123D01*
X158309358Y-86369118D01*
X158364505Y-86202696D01*
X158364506Y-86202689D01*
X158374999Y-86099985D01*
X158375000Y-86099972D01*
X158375000Y-85837500D01*
X157250000Y-85837500D01*
X157250000Y-86800000D01*
X156750000Y-86800000D01*
X156750000Y-85837500D01*
X155625000Y-85837500D01*
X155625000Y-86099985D01*
X154595667Y-86099985D01*
X154386819Y-85891137D01*
X154353334Y-85829814D01*
X154350500Y-85803456D01*
X154350500Y-85075014D01*
X155625000Y-85075014D01*
X155625000Y-85337500D01*
X156750000Y-85337500D01*
X157250000Y-85337500D01*
X158375000Y-85337500D01*
X158375000Y-85075027D01*
X158374999Y-85075014D01*
X158364506Y-84972310D01*
X158364505Y-84972303D01*
X158309358Y-84805881D01*
X158309356Y-84805876D01*
X158217315Y-84656655D01*
X158093344Y-84532684D01*
X157944123Y-84440643D01*
X157944118Y-84440641D01*
X157777696Y-84385494D01*
X157777689Y-84385493D01*
X157674985Y-84375000D01*
X157250000Y-84375000D01*
X157250000Y-85337500D01*
X156750000Y-85337500D01*
X156750000Y-84375000D01*
X156325014Y-84375000D01*
X156222310Y-84385493D01*
X156222303Y-84385494D01*
X156055881Y-84440641D01*
X156055876Y-84440643D01*
X155906655Y-84532684D01*
X155782684Y-84656655D01*
X155690643Y-84805876D01*
X155690641Y-84805881D01*
X155635494Y-84972303D01*
X155635493Y-84972310D01*
X155625000Y-85075014D01*
X154350500Y-85075014D01*
X154350500Y-81666976D01*
X154370185Y-81599937D01*
X154422989Y-81554182D01*
X154450135Y-81546736D01*
X154449932Y-81545876D01*
X154457479Y-81544092D01*
X154457481Y-81544091D01*
X154457483Y-81544091D01*
X154592331Y-81493796D01*
X154707546Y-81407546D01*
X154793796Y-81292331D01*
X154844091Y-81157483D01*
X154850500Y-81097873D01*
X154850499Y-80102128D01*
X154844091Y-80042517D01*
X154832712Y-80012009D01*
X154793797Y-79907671D01*
X154793793Y-79907664D01*
X154707547Y-79792455D01*
X154707544Y-79792452D01*
X154592335Y-79706206D01*
X154592325Y-79706201D01*
X154552531Y-79691358D01*
X154496598Y-79649486D01*
X154472182Y-79584022D01*
X154487035Y-79515749D01*
X154508182Y-79487499D01*
X155858863Y-78136819D01*
X155920186Y-78103334D01*
X155946544Y-78100500D01*
X157550500Y-78100500D01*
X157617539Y-78120185D01*
X157663294Y-78172989D01*
X157674500Y-78224500D01*
X157674500Y-78574678D01*
X157689032Y-78647735D01*
X157689033Y-78647739D01*
X157689034Y-78647740D01*
X157744399Y-78730601D01*
X157813994Y-78777102D01*
X157827260Y-78785966D01*
X157827264Y-78785967D01*
X157900321Y-78800499D01*
X157900324Y-78800500D01*
X157900326Y-78800500D01*
X158499673Y-78800500D01*
X158499674Y-78800500D01*
X158501302Y-78800176D01*
X158502173Y-78800254D01*
X158505739Y-78799903D01*
X158505805Y-78800578D01*
X158570893Y-78806399D01*
X158626073Y-78849259D01*
X158649322Y-78915148D01*
X158649500Y-78921792D01*
X158649500Y-79303455D01*
X158629815Y-79370494D01*
X158613181Y-79391136D01*
X158391135Y-79613181D01*
X158329812Y-79646666D01*
X158303455Y-79649500D01*
X158189630Y-79649500D01*
X158189623Y-79649501D01*
X158130016Y-79655908D01*
X157995171Y-79706202D01*
X157995164Y-79706206D01*
X157879955Y-79792452D01*
X157879952Y-79792455D01*
X157793706Y-79907664D01*
X157793702Y-79907671D01*
X157743408Y-80042517D01*
X157737001Y-80102116D01*
X157737001Y-80102123D01*
X157737000Y-80102135D01*
X157737000Y-81097870D01*
X157737001Y-81097876D01*
X157743408Y-81157483D01*
X157793702Y-81292328D01*
X157793706Y-81292335D01*
X157851356Y-81369344D01*
X157879954Y-81407546D01*
X157995169Y-81493796D01*
X157995170Y-81493796D01*
X158000537Y-81497814D01*
X158042408Y-81553748D01*
X158047392Y-81623440D01*
X158013907Y-81684763D01*
X157952583Y-81718247D01*
X157882892Y-81713262D01*
X157867896Y-81706414D01*
X157732481Y-81655908D01*
X157732482Y-81655908D01*
X157672882Y-81649501D01*
X157672880Y-81649500D01*
X157672872Y-81649500D01*
X157672864Y-81649500D01*
X157344394Y-81649500D01*
X157277355Y-81629815D01*
X157231600Y-81577011D01*
X157221656Y-81507853D01*
X157250681Y-81444297D01*
X157270082Y-81426234D01*
X157295046Y-81407546D01*
X157381296Y-81292331D01*
X157431591Y-81157483D01*
X157438000Y-81097873D01*
X157437999Y-80102128D01*
X157431591Y-80042517D01*
X157420212Y-80012009D01*
X157381297Y-79907671D01*
X157381293Y-79907664D01*
X157295047Y-79792455D01*
X157295044Y-79792452D01*
X157179835Y-79706206D01*
X157179828Y-79706202D01*
X157044982Y-79655908D01*
X157044983Y-79655908D01*
X156985383Y-79649501D01*
X156985381Y-79649500D01*
X156985373Y-79649500D01*
X156985364Y-79649500D01*
X156189629Y-79649500D01*
X156189623Y-79649501D01*
X156130016Y-79655908D01*
X155995171Y-79706202D01*
X155995164Y-79706206D01*
X155879955Y-79792452D01*
X155879952Y-79792455D01*
X155793706Y-79907664D01*
X155793702Y-79907671D01*
X155743408Y-80042517D01*
X155737001Y-80102116D01*
X155737001Y-80102123D01*
X155737000Y-80102135D01*
X155737000Y-81097870D01*
X155737001Y-81097876D01*
X155743408Y-81157483D01*
X155793702Y-81292328D01*
X155793706Y-81292335D01*
X155879952Y-81407544D01*
X155879955Y-81407547D01*
X155995164Y-81493793D01*
X155995171Y-81493797D01*
X156063556Y-81519303D01*
X156119490Y-81561174D01*
X156143907Y-81626638D01*
X156129056Y-81694911D01*
X156094534Y-81734751D01*
X156017456Y-81792451D01*
X155931204Y-81907670D01*
X155931202Y-81907672D01*
X155880908Y-82042518D01*
X155874501Y-82102117D01*
X155874500Y-82102136D01*
X155874500Y-83122863D01*
X155874501Y-83122882D01*
X155880908Y-83182481D01*
X155931202Y-83317327D01*
X155931203Y-83317328D01*
X155931204Y-83317330D01*
X156017454Y-83432546D01*
X156132670Y-83518796D01*
X156132671Y-83518796D01*
X156132672Y-83518797D01*
X156267518Y-83569091D01*
X156267517Y-83569091D01*
X156274445Y-83569835D01*
X156327128Y-83575500D01*
X156327137Y-83575500D01*
X157672863Y-83575500D01*
X157672872Y-83575500D01*
X157732482Y-83569091D01*
X157867330Y-83518796D01*
X157982546Y-83432546D01*
X158068796Y-83317330D01*
X158119091Y-83182482D01*
X158125500Y-83122872D01*
X158125500Y-82102128D01*
X158119091Y-82042518D01*
X158087452Y-81957690D01*
X158065697Y-81899360D01*
X158067179Y-81898807D01*
X158054461Y-81840345D01*
X158078876Y-81774880D01*
X158134809Y-81733008D01*
X158204501Y-81728022D01*
X158265822Y-81761504D01*
X158265826Y-81761508D01*
X158613181Y-82108863D01*
X158646666Y-82170186D01*
X158649500Y-82196544D01*
X158649500Y-85546143D01*
X158673386Y-85635287D01*
X158673387Y-85635290D01*
X158719527Y-85715208D01*
X158719531Y-85715213D01*
X162370772Y-89366454D01*
X162404257Y-89427777D01*
X162399273Y-89497469D01*
X162357401Y-89553402D01*
X162348369Y-89559561D01*
X162253963Y-89618015D01*
X162253958Y-89618019D01*
X162103237Y-89755418D01*
X161980327Y-89918178D01*
X161889422Y-90100739D01*
X161889417Y-90100752D01*
X161833602Y-90296917D01*
X161814785Y-90499999D01*
X161814785Y-90500000D01*
X161833602Y-90703082D01*
X161889417Y-90899247D01*
X161889422Y-90899260D01*
X161980327Y-91081821D01*
X162103237Y-91244581D01*
X162253958Y-91381980D01*
X162253960Y-91381982D01*
X162353141Y-91443392D01*
X162427363Y-91489348D01*
X162617544Y-91563024D01*
X162818024Y-91600500D01*
X162818026Y-91600500D01*
X163021974Y-91600500D01*
X163021976Y-91600500D01*
X163222456Y-91563024D01*
X163412637Y-91489348D01*
X163586041Y-91381981D01*
X163736764Y-91244579D01*
X163859673Y-91081821D01*
X163950582Y-90899250D01*
X164006397Y-90703083D01*
X164025215Y-90500000D01*
X164024160Y-90488619D01*
X164006397Y-90296917D01*
X163973131Y-90180000D01*
X163950582Y-90100750D01*
X163939313Y-90078119D01*
X163865559Y-89930000D01*
X163859673Y-89918179D01*
X163736764Y-89755421D01*
X163736762Y-89755418D01*
X163586041Y-89618019D01*
X163586039Y-89618017D01*
X163412640Y-89510653D01*
X163412625Y-89510646D01*
X163349706Y-89486271D01*
X163294304Y-89443698D01*
X163272117Y-89381842D01*
X163271561Y-89381916D01*
X163271223Y-89379350D01*
X163270714Y-89377931D01*
X163270621Y-89374780D01*
X163270500Y-89373863D01*
X163270500Y-89373856D01*
X163246614Y-89284712D01*
X163244024Y-89280226D01*
X163235185Y-89264915D01*
X163235185Y-89264916D01*
X163200470Y-89204788D01*
X159386819Y-85391137D01*
X159353334Y-85329814D01*
X159350500Y-85303456D01*
X159350500Y-84145544D01*
X159370185Y-84078505D01*
X159422989Y-84032750D01*
X159492147Y-84022806D01*
X159555703Y-84051831D01*
X159562181Y-84057863D01*
X164886068Y-89381750D01*
X164919553Y-89443073D01*
X164914569Y-89512765D01*
X164872697Y-89568698D01*
X164863666Y-89574857D01*
X164793959Y-89618018D01*
X164793958Y-89618019D01*
X164643237Y-89755418D01*
X164520327Y-89918178D01*
X164429422Y-90100739D01*
X164429417Y-90100752D01*
X164373602Y-90296917D01*
X164354785Y-90499999D01*
X164354785Y-90500000D01*
X164373602Y-90703082D01*
X164429417Y-90899247D01*
X164429422Y-90899260D01*
X164520327Y-91081821D01*
X164643237Y-91244581D01*
X164793958Y-91381980D01*
X164793960Y-91381982D01*
X164893141Y-91443392D01*
X164967363Y-91489348D01*
X165157544Y-91563024D01*
X165358024Y-91600500D01*
X165358026Y-91600500D01*
X165561974Y-91600500D01*
X165561976Y-91600500D01*
X165762456Y-91563024D01*
X165952637Y-91489348D01*
X166126041Y-91381981D01*
X166276764Y-91244579D01*
X166399673Y-91081821D01*
X166490582Y-90899250D01*
X166546397Y-90703083D01*
X166565215Y-90500000D01*
X166564160Y-90488619D01*
X166546397Y-90296917D01*
X166513131Y-90180000D01*
X166490582Y-90100750D01*
X166479313Y-90078119D01*
X166405559Y-89930000D01*
X166399673Y-89918179D01*
X166276764Y-89755421D01*
X166276762Y-89755418D01*
X166126041Y-89618019D01*
X166126039Y-89618017D01*
X165952640Y-89510653D01*
X165952634Y-89510650D01*
X165881667Y-89483158D01*
X165826265Y-89440585D01*
X165806687Y-89399626D01*
X165786614Y-89324712D01*
X165763520Y-89284712D01*
X165740470Y-89244788D01*
X160186819Y-83691137D01*
X160153334Y-83629814D01*
X160150500Y-83603456D01*
X160150500Y-82945543D01*
X160170185Y-82878504D01*
X160222989Y-82832749D01*
X160292147Y-82822805D01*
X160355703Y-82851830D01*
X160362166Y-82857848D01*
X163846299Y-86341980D01*
X167139852Y-89635533D01*
X167173337Y-89696856D01*
X167168353Y-89766548D01*
X167151126Y-89797940D01*
X167060327Y-89918179D01*
X166969422Y-90100739D01*
X166969417Y-90100752D01*
X166913602Y-90296917D01*
X166894785Y-90499999D01*
X166894785Y-90500000D01*
X166913602Y-90703082D01*
X166969417Y-90899247D01*
X166969422Y-90899260D01*
X167060327Y-91081821D01*
X167183237Y-91244581D01*
X167333958Y-91381980D01*
X167333960Y-91381982D01*
X167433141Y-91443392D01*
X167507363Y-91489348D01*
X167697544Y-91563024D01*
X167898024Y-91600500D01*
X167898026Y-91600500D01*
X168101974Y-91600500D01*
X168101976Y-91600500D01*
X168302456Y-91563024D01*
X168492637Y-91489348D01*
X168666041Y-91381981D01*
X168816764Y-91244579D01*
X168939673Y-91081821D01*
X169030582Y-90899250D01*
X169086397Y-90703083D01*
X169105215Y-90500000D01*
X169104160Y-90488619D01*
X169086397Y-90296917D01*
X169053131Y-90180000D01*
X169030582Y-90100750D01*
X169019313Y-90078119D01*
X168945559Y-89930000D01*
X168939673Y-89918179D01*
X168816764Y-89755421D01*
X168816762Y-89755418D01*
X168666041Y-89618019D01*
X168666039Y-89618017D01*
X168492642Y-89510655D01*
X168492639Y-89510653D01*
X168492637Y-89510652D01*
X168492636Y-89510651D01*
X168492635Y-89510651D01*
X168348734Y-89454904D01*
X168302456Y-89436976D01*
X168101976Y-89399500D01*
X167946543Y-89399500D01*
X167879504Y-89379815D01*
X167858862Y-89363181D01*
X160986819Y-82491137D01*
X160953334Y-82429814D01*
X160950500Y-82403456D01*
X160950500Y-81705544D01*
X160970185Y-81638505D01*
X161022989Y-81592750D01*
X161092147Y-81582806D01*
X161155703Y-81611831D01*
X161162181Y-81617863D01*
X169491422Y-89947104D01*
X169524907Y-90008427D01*
X169519923Y-90078119D01*
X169514745Y-90090049D01*
X169509419Y-90100745D01*
X169509419Y-90100746D01*
X169453602Y-90296917D01*
X169434785Y-90499999D01*
X169434785Y-90500000D01*
X169453602Y-90703082D01*
X169509417Y-90899247D01*
X169509422Y-90899260D01*
X169600327Y-91081821D01*
X169723237Y-91244581D01*
X169873958Y-91381980D01*
X169873960Y-91381982D01*
X169973141Y-91443392D01*
X170047363Y-91489348D01*
X170237544Y-91563024D01*
X170438024Y-91600500D01*
X170438026Y-91600500D01*
X170641974Y-91600500D01*
X170641976Y-91600500D01*
X170842456Y-91563024D01*
X171032637Y-91489348D01*
X171206041Y-91381981D01*
X171356764Y-91244579D01*
X171479673Y-91081821D01*
X171570582Y-90899250D01*
X171626397Y-90703083D01*
X171645215Y-90500000D01*
X171644160Y-90488619D01*
X171626397Y-90296917D01*
X171593131Y-90180000D01*
X171570582Y-90100750D01*
X171559313Y-90078119D01*
X171485559Y-89930000D01*
X171479673Y-89918179D01*
X171356764Y-89755421D01*
X171356762Y-89755418D01*
X171206041Y-89618019D01*
X171206039Y-89618017D01*
X171032642Y-89510655D01*
X171032639Y-89510653D01*
X171032637Y-89510652D01*
X171032636Y-89510651D01*
X171032635Y-89510651D01*
X170888734Y-89454904D01*
X170842456Y-89436976D01*
X170641976Y-89399500D01*
X170438024Y-89399500D01*
X170237544Y-89436976D01*
X170237541Y-89436976D01*
X170237541Y-89436977D01*
X170121963Y-89481752D01*
X170052339Y-89487614D01*
X169990599Y-89454904D01*
X169989488Y-89453806D01*
X161786819Y-81251137D01*
X161753334Y-81189814D01*
X161750500Y-81163456D01*
X161750500Y-80545544D01*
X161770185Y-80478505D01*
X161822989Y-80432750D01*
X161892147Y-80422806D01*
X161955703Y-80451831D01*
X161962181Y-80457863D01*
X169784788Y-88280470D01*
X169864712Y-88326614D01*
X169953856Y-88350500D01*
X176775500Y-88350500D01*
X176842539Y-88370185D01*
X176888294Y-88422989D01*
X176899500Y-88474500D01*
X176899500Y-88874678D01*
X176914032Y-88947735D01*
X176914033Y-88947739D01*
X176914034Y-88947740D01*
X176969399Y-89030601D01*
X177029802Y-89070960D01*
X177052260Y-89085966D01*
X177052264Y-89085967D01*
X177125321Y-89100499D01*
X177125324Y-89100500D01*
X177125326Y-89100500D01*
X178874676Y-89100500D01*
X178874677Y-89100499D01*
X178947740Y-89085966D01*
X179030601Y-89030601D01*
X179085966Y-88947740D01*
X179100500Y-88874674D01*
X179100500Y-87125326D01*
X179100500Y-87125323D01*
X179100499Y-87125321D01*
X179085967Y-87052264D01*
X179085966Y-87052260D01*
X179030601Y-86969399D01*
X178947740Y-86914034D01*
X178947739Y-86914033D01*
X178947735Y-86914032D01*
X178874677Y-86899500D01*
X178874674Y-86899500D01*
X177125326Y-86899500D01*
X177125323Y-86899500D01*
X177052264Y-86914032D01*
X177052260Y-86914033D01*
X176969399Y-86969399D01*
X176914033Y-87052260D01*
X176914032Y-87052264D01*
X176899500Y-87125321D01*
X176899500Y-87525500D01*
X176879815Y-87592539D01*
X176827011Y-87638294D01*
X176775500Y-87649500D01*
X170196544Y-87649500D01*
X170129505Y-87629815D01*
X170108863Y-87613181D01*
X162586819Y-80091137D01*
X162553334Y-80029814D01*
X162550500Y-80003456D01*
X162550500Y-79595544D01*
X162570185Y-79528505D01*
X162622989Y-79482750D01*
X162692147Y-79472806D01*
X162755703Y-79501831D01*
X162762181Y-79507863D01*
X169034788Y-85780470D01*
X169114712Y-85826614D01*
X169203856Y-85850500D01*
X169296144Y-85850500D01*
X176888283Y-85850500D01*
X176955322Y-85870185D01*
X176999283Y-85919228D01*
X177060327Y-86041821D01*
X177183237Y-86204581D01*
X177333958Y-86341980D01*
X177333960Y-86341982D01*
X177377787Y-86369118D01*
X177507363Y-86449348D01*
X177697544Y-86523024D01*
X177898024Y-86560500D01*
X177898026Y-86560500D01*
X178101974Y-86560500D01*
X178101976Y-86560500D01*
X178302456Y-86523024D01*
X178492637Y-86449348D01*
X178666041Y-86341981D01*
X178816764Y-86204579D01*
X178939673Y-86041821D01*
X179030582Y-85859250D01*
X179086397Y-85663083D01*
X179105215Y-85460000D01*
X179086397Y-85256917D01*
X179030582Y-85060750D01*
X178939673Y-84878179D01*
X178816764Y-84715421D01*
X178816762Y-84715418D01*
X178666041Y-84578019D01*
X178666039Y-84578017D01*
X178492642Y-84470655D01*
X178492635Y-84470651D01*
X178341715Y-84412185D01*
X178302456Y-84396976D01*
X178101976Y-84359500D01*
X177898024Y-84359500D01*
X177697544Y-84396976D01*
X177697541Y-84396976D01*
X177697541Y-84396977D01*
X177507364Y-84470651D01*
X177507357Y-84470655D01*
X177333960Y-84578017D01*
X177333958Y-84578019D01*
X177183237Y-84715418D01*
X177060327Y-84878178D01*
X176969418Y-85060748D01*
X176967350Y-85066088D01*
X176965941Y-85065542D01*
X176932507Y-85118533D01*
X176869196Y-85148086D01*
X176850526Y-85149500D01*
X169446544Y-85149500D01*
X169379505Y-85129815D01*
X169358863Y-85113181D01*
X163386819Y-79141137D01*
X163353334Y-79079814D01*
X163350500Y-79053456D01*
X163350500Y-78921792D01*
X163370185Y-78854753D01*
X163422989Y-78808998D01*
X163492147Y-78799054D01*
X163498685Y-78800173D01*
X163500326Y-78800500D01*
X163500327Y-78800500D01*
X164099676Y-78800500D01*
X164099677Y-78800499D01*
X164124248Y-78795611D01*
X164172737Y-78785967D01*
X164172738Y-78785966D01*
X164172740Y-78785966D01*
X164172740Y-78785965D01*
X164179307Y-78783246D01*
X164248776Y-78775776D01*
X164311256Y-78807049D01*
X164314443Y-78810125D01*
X168784788Y-83280470D01*
X168848632Y-83317330D01*
X168864712Y-83326614D01*
X168953856Y-83350500D01*
X168953857Y-83350500D01*
X169046144Y-83350500D01*
X176908201Y-83350500D01*
X176975240Y-83370185D01*
X177019201Y-83419229D01*
X177057358Y-83495858D01*
X177060327Y-83501821D01*
X177073146Y-83518796D01*
X177183237Y-83664581D01*
X177333958Y-83801980D01*
X177333960Y-83801982D01*
X177405285Y-83846144D01*
X177507363Y-83909348D01*
X177697544Y-83983024D01*
X177898024Y-84020500D01*
X177898026Y-84020500D01*
X178101974Y-84020500D01*
X178101976Y-84020500D01*
X178302456Y-83983024D01*
X178492637Y-83909348D01*
X178666041Y-83801981D01*
X178816764Y-83664579D01*
X178939673Y-83501821D01*
X179030582Y-83319250D01*
X179086397Y-83123083D01*
X179105215Y-82920000D01*
X179086397Y-82716917D01*
X179030582Y-82520750D01*
X178939673Y-82338179D01*
X178839479Y-82205500D01*
X178816762Y-82175418D01*
X178666041Y-82038019D01*
X178666039Y-82038017D01*
X178492642Y-81930655D01*
X178492635Y-81930651D01*
X178322425Y-81864712D01*
X178302456Y-81856976D01*
X178101976Y-81819500D01*
X177898024Y-81819500D01*
X177697544Y-81856976D01*
X177697541Y-81856976D01*
X177697541Y-81856977D01*
X177507364Y-81930651D01*
X177507357Y-81930655D01*
X177333960Y-82038017D01*
X177333958Y-82038019D01*
X177183237Y-82175418D01*
X177060327Y-82338178D01*
X176969422Y-82520739D01*
X176969418Y-82520749D01*
X176969418Y-82520750D01*
X176959674Y-82554998D01*
X176958411Y-82559436D01*
X176921131Y-82618529D01*
X176857821Y-82648086D01*
X176839145Y-82649500D01*
X169196544Y-82649500D01*
X169129505Y-82629815D01*
X169108863Y-82613181D01*
X164361819Y-77866137D01*
X164328334Y-77804814D01*
X164325500Y-77778456D01*
X164325500Y-76949500D01*
X164345185Y-76882461D01*
X164397989Y-76836706D01*
X164449500Y-76825500D01*
X164775500Y-76825500D01*
X164842539Y-76845185D01*
X164888294Y-76897989D01*
X164899500Y-76949500D01*
X164899500Y-77296145D01*
X164912829Y-77345891D01*
X164912830Y-77345891D01*
X164923387Y-77385290D01*
X164969527Y-77465208D01*
X164969529Y-77465211D01*
X164969530Y-77465212D01*
X168164787Y-80660469D01*
X168244712Y-80706614D01*
X168333856Y-80730500D01*
X176868365Y-80730500D01*
X176935404Y-80750185D01*
X176979365Y-80799228D01*
X177060327Y-80961821D01*
X177183237Y-81124581D01*
X177333958Y-81261980D01*
X177333960Y-81261982D01*
X177382971Y-81292328D01*
X177507363Y-81369348D01*
X177697544Y-81443024D01*
X177898024Y-81480500D01*
X177898026Y-81480500D01*
X178101974Y-81480500D01*
X178101976Y-81480500D01*
X178302456Y-81443024D01*
X178492637Y-81369348D01*
X178666041Y-81261981D01*
X178816764Y-81124579D01*
X178939673Y-80961821D01*
X179030582Y-80779250D01*
X179086397Y-80583083D01*
X179105215Y-80380000D01*
X179086397Y-80176917D01*
X179030582Y-79980750D01*
X179026388Y-79972328D01*
X178955767Y-79830500D01*
X178939673Y-79798179D01*
X178827396Y-79649500D01*
X178816762Y-79635418D01*
X178666041Y-79498019D01*
X178666039Y-79498017D01*
X178492642Y-79390655D01*
X178492635Y-79390651D01*
X178374049Y-79344711D01*
X178302456Y-79316976D01*
X178101976Y-79279500D01*
X177898024Y-79279500D01*
X177697544Y-79316976D01*
X177697541Y-79316976D01*
X177697541Y-79316977D01*
X177507364Y-79390651D01*
X177507357Y-79390655D01*
X177333960Y-79498017D01*
X177333958Y-79498019D01*
X177183237Y-79635418D01*
X177060327Y-79798178D01*
X176979365Y-79960772D01*
X176931862Y-80012009D01*
X176868365Y-80029500D01*
X168576544Y-80029500D01*
X168509505Y-80009815D01*
X168488863Y-79993181D01*
X167271136Y-78775454D01*
X167237651Y-78714131D01*
X167242635Y-78644439D01*
X167284507Y-78588506D01*
X167349971Y-78564089D01*
X167371421Y-78564415D01*
X167475021Y-78574999D01*
X167749999Y-78574999D01*
X168250000Y-78574999D01*
X168524972Y-78574999D01*
X168524986Y-78574998D01*
X168627697Y-78564505D01*
X168794119Y-78509358D01*
X168794124Y-78509356D01*
X168943345Y-78417315D01*
X169067315Y-78293345D01*
X169159356Y-78144124D01*
X169159358Y-78144119D01*
X169214505Y-77977697D01*
X169214506Y-77977690D01*
X169224999Y-77874986D01*
X169225000Y-77874973D01*
X169225000Y-77737500D01*
X168250000Y-77737500D01*
X168250000Y-78574999D01*
X167749999Y-78574999D01*
X167750000Y-78574998D01*
X167750000Y-77737500D01*
X166775001Y-77737500D01*
X166775001Y-77874989D01*
X166785584Y-77978581D01*
X166772814Y-78047274D01*
X166724933Y-78098158D01*
X166657143Y-78115078D01*
X166590967Y-78092662D01*
X166574545Y-78078863D01*
X165636819Y-77141137D01*
X165603334Y-77079814D01*
X165600500Y-77053456D01*
X165600500Y-76949500D01*
X165620185Y-76882461D01*
X165672989Y-76836706D01*
X165724500Y-76825500D01*
X166074676Y-76825500D01*
X166074677Y-76825499D01*
X166147740Y-76810966D01*
X166230601Y-76755601D01*
X166285966Y-76672740D01*
X166300500Y-76599674D01*
X166300500Y-76000326D01*
X166300176Y-75998697D01*
X166300254Y-75997826D01*
X166299903Y-75994261D01*
X166300578Y-75994194D01*
X166306399Y-75929107D01*
X166349259Y-75873927D01*
X166415148Y-75850678D01*
X166421792Y-75850500D01*
X166942209Y-75850500D01*
X167009248Y-75870185D01*
X167055003Y-75922989D01*
X167058391Y-75931167D01*
X167081202Y-75992328D01*
X167081206Y-75992335D01*
X167167452Y-76107544D01*
X167167455Y-76107547D01*
X167282664Y-76193793D01*
X167282673Y-76193798D01*
X167302468Y-76201181D01*
X167358402Y-76243051D01*
X167382820Y-76308515D01*
X167367969Y-76376788D01*
X167318565Y-76426194D01*
X167298141Y-76435069D01*
X167205878Y-76465642D01*
X167205875Y-76465643D01*
X167056654Y-76557684D01*
X166932684Y-76681654D01*
X166840643Y-76830875D01*
X166840641Y-76830880D01*
X166785494Y-76997302D01*
X166785493Y-76997309D01*
X166775000Y-77100013D01*
X166775000Y-77237500D01*
X169224999Y-77237500D01*
X169224999Y-77100028D01*
X169224998Y-77100013D01*
X169214505Y-76997302D01*
X169159358Y-76830880D01*
X169159356Y-76830875D01*
X169067315Y-76681654D01*
X168943345Y-76557684D01*
X168794124Y-76465643D01*
X168794119Y-76465641D01*
X168701859Y-76435069D01*
X168644414Y-76395296D01*
X168617591Y-76330780D01*
X168629906Y-76262004D01*
X168677449Y-76210804D01*
X168697533Y-76201180D01*
X168717326Y-76193798D01*
X168717331Y-76193796D01*
X168832546Y-76107546D01*
X168918796Y-75992331D01*
X168931062Y-75959443D01*
X168972931Y-75903511D01*
X169038395Y-75879092D01*
X169106668Y-75893942D01*
X169122731Y-75904401D01*
X169222373Y-75980860D01*
X169222374Y-75980860D01*
X169222375Y-75980861D01*
X169356291Y-76036330D01*
X169483280Y-76053048D01*
X169499999Y-76055250D01*
X169500000Y-76055250D01*
X169500001Y-76055250D01*
X169514977Y-76053278D01*
X169643709Y-76036330D01*
X169777625Y-75980861D01*
X169892621Y-75892621D01*
X169892623Y-75892617D01*
X169892627Y-75892615D01*
X169898372Y-75886871D01*
X169900888Y-75889387D01*
X169944183Y-75857797D01*
X169986092Y-75850500D01*
X176775500Y-75850500D01*
X176842539Y-75870185D01*
X176888294Y-75922989D01*
X176899500Y-75974500D01*
X176899500Y-76494678D01*
X176914032Y-76567735D01*
X176914033Y-76567739D01*
X176914034Y-76567740D01*
X176969399Y-76650601D01*
X177025812Y-76688294D01*
X177052260Y-76705966D01*
X177052264Y-76705967D01*
X177125321Y-76720499D01*
X177125324Y-76720500D01*
X177125326Y-76720500D01*
X178874676Y-76720500D01*
X178874677Y-76720499D01*
X178947740Y-76705966D01*
X179030601Y-76650601D01*
X179085966Y-76567740D01*
X179100500Y-76494674D01*
X179100500Y-74745326D01*
X179100500Y-74745323D01*
X179100499Y-74745321D01*
X179085967Y-74672264D01*
X179085966Y-74672260D01*
X179058535Y-74631206D01*
X179030601Y-74589399D01*
X178947740Y-74534034D01*
X178947739Y-74534033D01*
X178947735Y-74534032D01*
X178874677Y-74519500D01*
X178874674Y-74519500D01*
X177125326Y-74519500D01*
X177125323Y-74519500D01*
X177052264Y-74534032D01*
X177052260Y-74534033D01*
X176969399Y-74589399D01*
X176914033Y-74672260D01*
X176914032Y-74672264D01*
X176899500Y-74745321D01*
X176899500Y-75025500D01*
X176879815Y-75092539D01*
X176827011Y-75138294D01*
X176775500Y-75149500D01*
X169986092Y-75149500D01*
X169919053Y-75129815D01*
X169899587Y-75111913D01*
X169898372Y-75113129D01*
X169892627Y-75107384D01*
X169892621Y-75107379D01*
X169777625Y-75019139D01*
X169777621Y-75019137D01*
X169643445Y-74963560D01*
X169589041Y-74919719D01*
X169578983Y-74889501D01*
X169542288Y-74929019D01*
X169495060Y-74945400D01*
X169392321Y-74958926D01*
X169356291Y-74963670D01*
X169356290Y-74963670D01*
X169356287Y-74963671D01*
X169222376Y-75019138D01*
X169222374Y-75019139D01*
X169168693Y-75060330D01*
X169103523Y-75085524D01*
X169035079Y-75071485D01*
X168985089Y-75022671D01*
X168969917Y-74975201D01*
X168969091Y-74967517D01*
X168918797Y-74832671D01*
X168918793Y-74832664D01*
X168832547Y-74717455D01*
X168832544Y-74717452D01*
X168717335Y-74631206D01*
X168717328Y-74631202D01*
X168623914Y-74596361D01*
X168567980Y-74554490D01*
X168543563Y-74489025D01*
X168558415Y-74420752D01*
X168592933Y-74380915D01*
X168657546Y-74332546D01*
X168743796Y-74217331D01*
X168751180Y-74197532D01*
X168793050Y-74141598D01*
X168858514Y-74117179D01*
X168926787Y-74132029D01*
X168976194Y-74181433D01*
X168985069Y-74201859D01*
X169015641Y-74294119D01*
X169015643Y-74294124D01*
X169107684Y-74443345D01*
X169231654Y-74567315D01*
X169380875Y-74659356D01*
X169380880Y-74659358D01*
X169517878Y-74704755D01*
X169575323Y-74744528D01*
X169590164Y-74780224D01*
X169635392Y-74738115D01*
X169690897Y-74724999D01*
X169787499Y-74724999D01*
X170287500Y-74724999D01*
X170424972Y-74724999D01*
X170424986Y-74724998D01*
X170527697Y-74714505D01*
X170694119Y-74659358D01*
X170694124Y-74659356D01*
X170843345Y-74567315D01*
X170967315Y-74443345D01*
X171059356Y-74294124D01*
X171059358Y-74294119D01*
X171114505Y-74127697D01*
X171114506Y-74127690D01*
X171124999Y-74024986D01*
X171125000Y-74024973D01*
X171125000Y-73750000D01*
X170287500Y-73750000D01*
X170287500Y-74724999D01*
X169787499Y-74724999D01*
X169787500Y-74724998D01*
X169787500Y-73250000D01*
X170287500Y-73250000D01*
X171124999Y-73250000D01*
X171124999Y-73079999D01*
X176894785Y-73079999D01*
X176894785Y-73080000D01*
X176913602Y-73283082D01*
X176969417Y-73479247D01*
X176969422Y-73479260D01*
X177060327Y-73661821D01*
X177183237Y-73824581D01*
X177234112Y-73870959D01*
X177329223Y-73957664D01*
X177333958Y-73961980D01*
X177333960Y-73961982D01*
X177432303Y-74022873D01*
X177507363Y-74069348D01*
X177697544Y-74143024D01*
X177898024Y-74180500D01*
X177898026Y-74180500D01*
X178101974Y-74180500D01*
X178101976Y-74180500D01*
X178302456Y-74143024D01*
X178492637Y-74069348D01*
X178666041Y-73961981D01*
X178809949Y-73830792D01*
X178816762Y-73824581D01*
X178816764Y-73824579D01*
X178939673Y-73661821D01*
X179030582Y-73479250D01*
X179086397Y-73283083D01*
X179105215Y-73080000D01*
X179095683Y-72977136D01*
X179086397Y-72876917D01*
X179065214Y-72802468D01*
X179030582Y-72680750D01*
X179023961Y-72667454D01*
X178976265Y-72571666D01*
X178939673Y-72498179D01*
X178860179Y-72392912D01*
X178816762Y-72335418D01*
X178666041Y-72198019D01*
X178666039Y-72198017D01*
X178492642Y-72090655D01*
X178492635Y-72090651D01*
X178324459Y-72025500D01*
X178302456Y-72016976D01*
X178101976Y-71979500D01*
X177898024Y-71979500D01*
X177697544Y-72016976D01*
X177697541Y-72016976D01*
X177697541Y-72016977D01*
X177507364Y-72090651D01*
X177507357Y-72090655D01*
X177333960Y-72198017D01*
X177333958Y-72198019D01*
X177183237Y-72335418D01*
X177060327Y-72498178D01*
X176969422Y-72680739D01*
X176969417Y-72680752D01*
X176913602Y-72876917D01*
X176894785Y-73079999D01*
X171124999Y-73079999D01*
X171124999Y-72975028D01*
X171124998Y-72975013D01*
X171114505Y-72872302D01*
X171059358Y-72705880D01*
X171059356Y-72705875D01*
X170967315Y-72556654D01*
X170843345Y-72432684D01*
X170694124Y-72340643D01*
X170694119Y-72340641D01*
X170527697Y-72285494D01*
X170527690Y-72285493D01*
X170424986Y-72275000D01*
X170287500Y-72275000D01*
X170287500Y-73250000D01*
X169787500Y-73250000D01*
X169787500Y-72275000D01*
X169650027Y-72275000D01*
X169650012Y-72275001D01*
X169547302Y-72285494D01*
X169380880Y-72340641D01*
X169380875Y-72340643D01*
X169231654Y-72432684D01*
X169107684Y-72556654D01*
X169015643Y-72705875D01*
X169015642Y-72705878D01*
X168985069Y-72798141D01*
X168945296Y-72855585D01*
X168880780Y-72882408D01*
X168812004Y-72870093D01*
X168760804Y-72822549D01*
X168751181Y-72802468D01*
X168743798Y-72782673D01*
X168743793Y-72782664D01*
X168657547Y-72667455D01*
X168657544Y-72667452D01*
X168542335Y-72581206D01*
X168542328Y-72581202D01*
X168407486Y-72530910D01*
X168407485Y-72530909D01*
X168407483Y-72530909D01*
X168347873Y-72524500D01*
X168347863Y-72524500D01*
X167577129Y-72524500D01*
X167577123Y-72524501D01*
X167517516Y-72530908D01*
X167382671Y-72581202D01*
X167382664Y-72581206D01*
X167267455Y-72667452D01*
X167267452Y-72667455D01*
X167181206Y-72782664D01*
X167181202Y-72782671D01*
X167130910Y-72917513D01*
X167130909Y-72917517D01*
X167124500Y-72977127D01*
X167124500Y-73250000D01*
X167124501Y-73425500D01*
X167104817Y-73492539D01*
X167052013Y-73538294D01*
X167000501Y-73549500D01*
X166674000Y-73549500D01*
X166606961Y-73529815D01*
X166561206Y-73477011D01*
X166550000Y-73425500D01*
X166550000Y-73350000D01*
X163950000Y-73350000D01*
X163950000Y-73422844D01*
X163956401Y-73482372D01*
X163956403Y-73482379D01*
X164006645Y-73617086D01*
X164006647Y-73617088D01*
X164092809Y-73732186D01*
X164092810Y-73732187D01*
X164149811Y-73774858D01*
X164191682Y-73830792D01*
X164199500Y-73874125D01*
X164199500Y-74142018D01*
X164179815Y-74209057D01*
X164127011Y-74254812D01*
X164057853Y-74264756D01*
X163994297Y-74235731D01*
X163977125Y-74217505D01*
X163924066Y-74148359D01*
X163892621Y-74107379D01*
X163777625Y-74019139D01*
X163777624Y-74019138D01*
X163777622Y-74019137D01*
X163643712Y-73963671D01*
X163643710Y-73963670D01*
X163643709Y-73963670D01*
X163571854Y-73954210D01*
X163500001Y-73944750D01*
X163499999Y-73944750D01*
X163356291Y-73963670D01*
X163356287Y-73963671D01*
X163222377Y-74019137D01*
X163107379Y-74107379D01*
X163019137Y-74222377D01*
X162963671Y-74356287D01*
X162963670Y-74356291D01*
X162947976Y-74475500D01*
X162944750Y-74500000D01*
X162962023Y-74631202D01*
X162963670Y-74643708D01*
X162963671Y-74643712D01*
X163019137Y-74777622D01*
X163019138Y-74777624D01*
X163019139Y-74777625D01*
X163107379Y-74892621D01*
X163222375Y-74980861D01*
X163222376Y-74980861D01*
X163222377Y-74980862D01*
X163226291Y-74982483D01*
X163356291Y-75036330D01*
X163500000Y-75055250D01*
X163590600Y-75043321D01*
X163638874Y-75046485D01*
X163653856Y-75050500D01*
X163653857Y-75050500D01*
X163746144Y-75050500D01*
X164078208Y-75050500D01*
X164145247Y-75070185D01*
X164191002Y-75122989D01*
X164200946Y-75192147D01*
X164199826Y-75198685D01*
X164199500Y-75200326D01*
X164199500Y-75799674D01*
X164202957Y-75817057D01*
X164214644Y-75875810D01*
X164214644Y-75924190D01*
X164199500Y-76000326D01*
X164199500Y-76575500D01*
X164179815Y-76642539D01*
X164127011Y-76688294D01*
X164075500Y-76699500D01*
X163500326Y-76699500D01*
X163424190Y-76714644D01*
X163375810Y-76714644D01*
X163299674Y-76699500D01*
X162700326Y-76699500D01*
X162624190Y-76714644D01*
X162575810Y-76714644D01*
X162499674Y-76699500D01*
X161900326Y-76699500D01*
X161824190Y-76714644D01*
X161775810Y-76714644D01*
X161699674Y-76699500D01*
X161100326Y-76699500D01*
X161024190Y-76714644D01*
X160975810Y-76714644D01*
X160899674Y-76699500D01*
X160300326Y-76699500D01*
X160224190Y-76714644D01*
X160175810Y-76714644D01*
X160099674Y-76699500D01*
X159500326Y-76699500D01*
X159424190Y-76714644D01*
X159375810Y-76714644D01*
X159299674Y-76699500D01*
X158700326Y-76699500D01*
X158624190Y-76714644D01*
X158575810Y-76714644D01*
X158499674Y-76699500D01*
X157924500Y-76699500D01*
X157857461Y-76679815D01*
X157811706Y-76627011D01*
X157800500Y-76575500D01*
X157800500Y-76000323D01*
X157785356Y-75924192D01*
X157785356Y-75875808D01*
X157800500Y-75799676D01*
X157800500Y-75200323D01*
X157785356Y-75124192D01*
X157785356Y-75075808D01*
X157800500Y-74999676D01*
X157800500Y-74674125D01*
X157820185Y-74607086D01*
X157850189Y-74574858D01*
X157907189Y-74532187D01*
X157907190Y-74532186D01*
X157993352Y-74417088D01*
X157993354Y-74417086D01*
X158043596Y-74282379D01*
X158043598Y-74282372D01*
X158049999Y-74222844D01*
X158050000Y-74222827D01*
X158050000Y-74150000D01*
X155450000Y-74150000D01*
X155439815Y-74160184D01*
X155430315Y-74192539D01*
X155377511Y-74238294D01*
X155326000Y-74249500D01*
X154809309Y-74249500D01*
X154690691Y-74249500D01*
X154576114Y-74280201D01*
X154576112Y-74280201D01*
X154576112Y-74280202D01*
X154473387Y-74339511D01*
X154473382Y-74339514D01*
X154439831Y-74373065D01*
X154378507Y-74406549D01*
X154308815Y-74401563D01*
X154252883Y-74359690D01*
X154235970Y-74328714D01*
X154218798Y-74282673D01*
X154218793Y-74282664D01*
X154132547Y-74167455D01*
X154132544Y-74167452D01*
X154017335Y-74081206D01*
X154017330Y-74081203D01*
X153931166Y-74049066D01*
X153875233Y-74007194D01*
X153850816Y-73941730D01*
X153850500Y-73932884D01*
X153850500Y-73674500D01*
X153870185Y-73607461D01*
X153922989Y-73561706D01*
X153974500Y-73550500D01*
X155326000Y-73550500D01*
X155393039Y-73570185D01*
X155438794Y-73622989D01*
X155443188Y-73643188D01*
X155450000Y-73650000D01*
X156509826Y-73650000D01*
X156549504Y-73628334D01*
X156575862Y-73625500D01*
X156924138Y-73625500D01*
X156991177Y-73645185D01*
X156997152Y-73650000D01*
X158050000Y-73650000D01*
X158050000Y-73577172D01*
X158049999Y-73577155D01*
X158043598Y-73517627D01*
X158043596Y-73517620D01*
X157993354Y-73382913D01*
X157993350Y-73382906D01*
X157907191Y-73267814D01*
X157907185Y-73267807D01*
X157850188Y-73225139D01*
X157808318Y-73169205D01*
X157800500Y-73125873D01*
X157800500Y-73074125D01*
X157820185Y-73007086D01*
X157850189Y-72974858D01*
X157907189Y-72932187D01*
X157907190Y-72932186D01*
X157993352Y-72817088D01*
X157993354Y-72817086D01*
X158043596Y-72682379D01*
X158043598Y-72682372D01*
X158049999Y-72622844D01*
X158050000Y-72622827D01*
X158050000Y-72550000D01*
X156990174Y-72550000D01*
X156950496Y-72571666D01*
X156924138Y-72574500D01*
X156575862Y-72574500D01*
X156508823Y-72554815D01*
X156502848Y-72550000D01*
X155450000Y-72550000D01*
X155439815Y-72560184D01*
X155430315Y-72592539D01*
X155377511Y-72638294D01*
X155326000Y-72649500D01*
X154449500Y-72649500D01*
X154382461Y-72629815D01*
X154336706Y-72577011D01*
X154325500Y-72525500D01*
X154325499Y-71977129D01*
X154325498Y-71977123D01*
X154325271Y-71975013D01*
X154319091Y-71917517D01*
X154303535Y-71875810D01*
X154268797Y-71782671D01*
X154268793Y-71782664D01*
X154182547Y-71667455D01*
X154182544Y-71667452D01*
X154067335Y-71581206D01*
X154067330Y-71581203D01*
X153981166Y-71549066D01*
X153925233Y-71507194D01*
X153900816Y-71441730D01*
X153900500Y-71432884D01*
X153900500Y-71240540D01*
X153917113Y-71178540D01*
X153966392Y-71093186D01*
X153984230Y-71026614D01*
X154000500Y-70965893D01*
X154000500Y-70834108D01*
X154000500Y-65451439D01*
X154020185Y-65384400D01*
X154072989Y-65338645D01*
X154081168Y-65335257D01*
X154192326Y-65293798D01*
X154192326Y-65293797D01*
X154192331Y-65293796D01*
X154307546Y-65207546D01*
X154393796Y-65092331D01*
X154444091Y-64957483D01*
X154450500Y-64897873D01*
X154450499Y-64102128D01*
X154444091Y-64042517D01*
X154443136Y-64039957D01*
X154393797Y-63907671D01*
X154393793Y-63907664D01*
X154307547Y-63792455D01*
X154307544Y-63792452D01*
X154192335Y-63706206D01*
X154192328Y-63706202D01*
X154057482Y-63655908D01*
X154057483Y-63655908D01*
X153997883Y-63649501D01*
X153997881Y-63649500D01*
X153997873Y-63649500D01*
X153997864Y-63649500D01*
X153002129Y-63649500D01*
X153002123Y-63649501D01*
X152942516Y-63655908D01*
X152807671Y-63706202D01*
X152807664Y-63706206D01*
X152692455Y-63792452D01*
X152692452Y-63792455D01*
X152606206Y-63907664D01*
X152606202Y-63907671D01*
X152555908Y-64042517D01*
X152549501Y-64102116D01*
X152549501Y-64102123D01*
X152549500Y-64102135D01*
X152549500Y-64897870D01*
X152549501Y-64897876D01*
X152555908Y-64957483D01*
X152606202Y-65092328D01*
X152606206Y-65092335D01*
X152692452Y-65207544D01*
X152692455Y-65207547D01*
X152807664Y-65293793D01*
X152807673Y-65293798D01*
X152918832Y-65335257D01*
X152974766Y-65377127D01*
X152999184Y-65442592D01*
X152999500Y-65451439D01*
X152999500Y-69592324D01*
X152979815Y-69659363D01*
X152927011Y-69705118D01*
X152857853Y-69715062D01*
X152794297Y-69686037D01*
X152787819Y-69680005D01*
X152637316Y-69529502D01*
X152637314Y-69529500D01*
X152577468Y-69494948D01*
X152523187Y-69463608D01*
X152442610Y-69442018D01*
X152395892Y-69429500D01*
X137635892Y-69429500D01*
X137504107Y-69429500D01*
X137376812Y-69463608D01*
X137262686Y-69529500D01*
X137262683Y-69529502D01*
X135099502Y-71692683D01*
X135099500Y-71692686D01*
X135033608Y-71806812D01*
X134999500Y-71934108D01*
X134999500Y-73012884D01*
X134979815Y-73079923D01*
X134927011Y-73125678D01*
X134918834Y-73129066D01*
X134832669Y-73161203D01*
X134832664Y-73161206D01*
X134717455Y-73247452D01*
X134717452Y-73247455D01*
X134631206Y-73362664D01*
X134631202Y-73362671D01*
X134591182Y-73469972D01*
X134549311Y-73525906D01*
X134483846Y-73550323D01*
X134415573Y-73535471D01*
X134366168Y-73486066D01*
X134358818Y-73469972D01*
X134318797Y-73362671D01*
X134318793Y-73362664D01*
X134232547Y-73247455D01*
X134232544Y-73247452D01*
X134117335Y-73161206D01*
X134117330Y-73161203D01*
X134031166Y-73129066D01*
X133975233Y-73087194D01*
X133950816Y-73021730D01*
X133950500Y-73012884D01*
X133950500Y-71238676D01*
X133970185Y-71171637D01*
X133986819Y-71150995D01*
X136670995Y-68466819D01*
X136732318Y-68433334D01*
X136758676Y-68430500D01*
X138312051Y-68430500D01*
X138379090Y-68450185D01*
X138421408Y-68496045D01*
X138432315Y-68516451D01*
X138563589Y-68676410D01*
X138618585Y-68721543D01*
X138723550Y-68807685D01*
X138906046Y-68905232D01*
X139104066Y-68965300D01*
X139104065Y-68965300D01*
X139122529Y-68967118D01*
X139310000Y-68985583D01*
X139515934Y-68965300D01*
X139713954Y-68905232D01*
X139896450Y-68807685D01*
X140056410Y-68676410D01*
X140187685Y-68516450D01*
X140285232Y-68333954D01*
X140345300Y-68135934D01*
X140365583Y-67930000D01*
X140345300Y-67724066D01*
X140285232Y-67526046D01*
X140187685Y-67343550D01*
X140115360Y-67255421D01*
X140056410Y-67183589D01*
X139914648Y-67067250D01*
X139896450Y-67052315D01*
X139713954Y-66954768D01*
X139515934Y-66894700D01*
X139515932Y-66894699D01*
X139515934Y-66894699D01*
X139310000Y-66874417D01*
X139104067Y-66894699D01*
X138906043Y-66954769D01*
X138823126Y-66999090D01*
X138723550Y-67052315D01*
X138723548Y-67052316D01*
X138723547Y-67052317D01*
X138563589Y-67183589D01*
X138432315Y-67343548D01*
X138421408Y-67363955D01*
X138372445Y-67413798D01*
X138312051Y-67429500D01*
X136434107Y-67429500D01*
X136343208Y-67453856D01*
X136343207Y-67453855D01*
X136306815Y-67463607D01*
X136306814Y-67463607D01*
X136192686Y-67529500D01*
X136192683Y-67529502D01*
X133049502Y-70672683D01*
X133049500Y-70672686D01*
X132983608Y-70786812D01*
X132949500Y-70914108D01*
X132949500Y-73105249D01*
X132929815Y-73172288D01*
X132899812Y-73204515D01*
X132842457Y-73247451D01*
X132842451Y-73247457D01*
X132756206Y-73362664D01*
X132756201Y-73362674D01*
X132748817Y-73382471D01*
X132706945Y-73438404D01*
X132641480Y-73462820D01*
X132573207Y-73447967D01*
X132523803Y-73398561D01*
X132514930Y-73378140D01*
X132484358Y-73285880D01*
X132484356Y-73285875D01*
X132392315Y-73136654D01*
X132268345Y-73012684D01*
X132119124Y-72920643D01*
X132119119Y-72920641D01*
X131952697Y-72865494D01*
X131952690Y-72865493D01*
X131849986Y-72855000D01*
X131712500Y-72855000D01*
X131712500Y-75304999D01*
X131849972Y-75304999D01*
X131849986Y-75304998D01*
X131952697Y-75294505D01*
X132119119Y-75239358D01*
X132119128Y-75239354D01*
X132165331Y-75210855D01*
X132232723Y-75192413D01*
X132299387Y-75213334D01*
X132344158Y-75266975D01*
X132352820Y-75336306D01*
X132322625Y-75399314D01*
X132318111Y-75404073D01*
X131985374Y-75736812D01*
X131892686Y-75829500D01*
X131864703Y-75857483D01*
X131799499Y-75922686D01*
X131763125Y-75985686D01*
X131712557Y-76033901D01*
X131690335Y-76042760D01*
X131574613Y-76076380D01*
X131574609Y-76076382D01*
X131438583Y-76156827D01*
X131438574Y-76156834D01*
X131326834Y-76268574D01*
X131326827Y-76268583D01*
X131246382Y-76404609D01*
X131246380Y-76404614D01*
X131202292Y-76556366D01*
X131202290Y-76556379D01*
X131199500Y-76591829D01*
X130000500Y-76591829D01*
X130000500Y-74604986D01*
X130375001Y-74604986D01*
X130385494Y-74707697D01*
X130440641Y-74874119D01*
X130440643Y-74874124D01*
X130532684Y-75023345D01*
X130656654Y-75147315D01*
X130805875Y-75239356D01*
X130805880Y-75239358D01*
X130972302Y-75294505D01*
X130972309Y-75294506D01*
X131075019Y-75304999D01*
X131212499Y-75304999D01*
X131212500Y-75304998D01*
X131212500Y-74330000D01*
X130375001Y-74330000D01*
X130375001Y-74604986D01*
X130000500Y-74604986D01*
X130000500Y-73555013D01*
X130375000Y-73555013D01*
X130375000Y-73830000D01*
X131212500Y-73830000D01*
X131212500Y-72855000D01*
X131075027Y-72855000D01*
X131075012Y-72855001D01*
X130972302Y-72865494D01*
X130805880Y-72920641D01*
X130805875Y-72920643D01*
X130656654Y-73012684D01*
X130532684Y-73136654D01*
X130440643Y-73285875D01*
X130440641Y-73285880D01*
X130385494Y-73452302D01*
X130385493Y-73452309D01*
X130375000Y-73555013D01*
X130000500Y-73555013D01*
X130000500Y-67930000D01*
X130634417Y-67930000D01*
X130654699Y-68135932D01*
X130668011Y-68179815D01*
X130714768Y-68333954D01*
X130812315Y-68516450D01*
X130812316Y-68516451D01*
X130812317Y-68516452D01*
X130943589Y-68676410D01*
X130998585Y-68721543D01*
X131103550Y-68807685D01*
X131286046Y-68905232D01*
X131484066Y-68965300D01*
X131484065Y-68965300D01*
X131502529Y-68967118D01*
X131690000Y-68985583D01*
X131895934Y-68965300D01*
X132093954Y-68905232D01*
X132276450Y-68807685D01*
X132436410Y-68676410D01*
X132567685Y-68516450D01*
X132665232Y-68333954D01*
X132725300Y-68135934D01*
X132745583Y-67930000D01*
X132725300Y-67724066D01*
X132665232Y-67526046D01*
X132567685Y-67343550D01*
X132436410Y-67183590D01*
X132423895Y-67173319D01*
X132275955Y-67051908D01*
X132236621Y-66994163D01*
X132234750Y-66924318D01*
X132266937Y-66868376D01*
X133848027Y-65287285D01*
X133909348Y-65253802D01*
X133975969Y-65257687D01*
X134160199Y-65320933D01*
X134160201Y-65320933D01*
X134160203Y-65320934D01*
X134397308Y-65360500D01*
X134397309Y-65360500D01*
X134637691Y-65360500D01*
X134637692Y-65360500D01*
X134874797Y-65320934D01*
X135102156Y-65242882D01*
X135313567Y-65128472D01*
X135503264Y-64980825D01*
X135554667Y-64924986D01*
X149775001Y-64924986D01*
X149785494Y-65027697D01*
X149840641Y-65194119D01*
X149840643Y-65194124D01*
X149932684Y-65343345D01*
X150056654Y-65467315D01*
X150205875Y-65559356D01*
X150205880Y-65559358D01*
X150372302Y-65614505D01*
X150372309Y-65614506D01*
X150475019Y-65624999D01*
X150749999Y-65624999D01*
X151250000Y-65624999D01*
X151524972Y-65624999D01*
X151524986Y-65624998D01*
X151627697Y-65614505D01*
X151794119Y-65559358D01*
X151794124Y-65559356D01*
X151943345Y-65467315D01*
X152067315Y-65343345D01*
X152159356Y-65194124D01*
X152159358Y-65194119D01*
X152214505Y-65027697D01*
X152214506Y-65027690D01*
X152224999Y-64924986D01*
X152225000Y-64924973D01*
X152225000Y-64787500D01*
X151250000Y-64787500D01*
X151250000Y-65624999D01*
X150749999Y-65624999D01*
X150750000Y-65624998D01*
X150750000Y-64787500D01*
X149775001Y-64787500D01*
X149775001Y-64924986D01*
X135554667Y-64924986D01*
X135666071Y-64803969D01*
X135797549Y-64602728D01*
X135894110Y-64382591D01*
X135953120Y-64149563D01*
X135972971Y-63910000D01*
X135972778Y-63907671D01*
X135956084Y-63706204D01*
X135953120Y-63670437D01*
X135894110Y-63437409D01*
X135797549Y-63217272D01*
X135791195Y-63207547D01*
X135715923Y-63092335D01*
X135666071Y-63016031D01*
X135503264Y-62839175D01*
X135503259Y-62839171D01*
X135503257Y-62839169D01*
X135313575Y-62691533D01*
X135313569Y-62691529D01*
X135102157Y-62577118D01*
X135102152Y-62577116D01*
X134874800Y-62499066D01*
X134696968Y-62469391D01*
X134637692Y-62459500D01*
X134397308Y-62459500D01*
X134349887Y-62467413D01*
X134160199Y-62499066D01*
X133932847Y-62577116D01*
X133932842Y-62577118D01*
X133721430Y-62691529D01*
X133721424Y-62691533D01*
X133531742Y-62839169D01*
X133531739Y-62839172D01*
X133368930Y-63016029D01*
X133368927Y-63016033D01*
X133237451Y-63217270D01*
X133140889Y-63437410D01*
X133081879Y-63670440D01*
X133062029Y-63909994D01*
X133062029Y-63910005D01*
X133081879Y-64149559D01*
X133140888Y-64382586D01*
X133166681Y-64441389D01*
X133175582Y-64510690D01*
X133145605Y-64573801D01*
X133140805Y-64578879D01*
X131382686Y-66337000D01*
X131289502Y-66430183D01*
X131289500Y-66430186D01*
X131223608Y-66544312D01*
X131189500Y-66671608D01*
X131189500Y-66932051D01*
X131169815Y-66999090D01*
X131123955Y-67041408D01*
X131103548Y-67052315D01*
X130943589Y-67183589D01*
X130812317Y-67343547D01*
X130812316Y-67343548D01*
X130812315Y-67343550D01*
X130790107Y-67385098D01*
X130714769Y-67526043D01*
X130654699Y-67724067D01*
X130634417Y-67930000D01*
X130000500Y-67930000D01*
X130000500Y-62430000D01*
X139119975Y-62430000D01*
X139140042Y-62684989D01*
X139199752Y-62933702D01*
X139297634Y-63170012D01*
X139297636Y-63170015D01*
X139431275Y-63388095D01*
X139431286Y-63388110D01*
X139434533Y-63391911D01*
X139434535Y-63391911D01*
X140148958Y-62677488D01*
X140173978Y-62737890D01*
X140245112Y-62844351D01*
X140335649Y-62934888D01*
X140442110Y-63006022D01*
X140502511Y-63031041D01*
X139788087Y-63745464D01*
X139788087Y-63745465D01*
X139791888Y-63748712D01*
X139791898Y-63748719D01*
X140009984Y-63882363D01*
X140009987Y-63882365D01*
X140246297Y-63980247D01*
X140495011Y-64039957D01*
X140495010Y-64039957D01*
X140750000Y-64060024D01*
X141004989Y-64039957D01*
X141253702Y-63980247D01*
X141490012Y-63882365D01*
X141490015Y-63882363D01*
X141708103Y-63748719D01*
X141711912Y-63745464D01*
X140997488Y-63031041D01*
X141057890Y-63006022D01*
X141164351Y-62934888D01*
X141254888Y-62844351D01*
X141326022Y-62737890D01*
X141351041Y-62677489D01*
X142065464Y-63391912D01*
X142068719Y-63388103D01*
X142202363Y-63170015D01*
X142202365Y-63170012D01*
X142300247Y-62933702D01*
X142359957Y-62684989D01*
X142380024Y-62430000D01*
X142359957Y-62175010D01*
X142300247Y-61926297D01*
X142202365Y-61689987D01*
X142202363Y-61689984D01*
X142068719Y-61471898D01*
X142068712Y-61471888D01*
X142065465Y-61468087D01*
X142065464Y-61468087D01*
X141351041Y-62182510D01*
X141326022Y-62122110D01*
X141254888Y-62015649D01*
X141164351Y-61925112D01*
X141057890Y-61853978D01*
X140997487Y-61828958D01*
X141546125Y-61280321D01*
X145874500Y-61280321D01*
X145874500Y-63579678D01*
X145889032Y-63652735D01*
X145889033Y-63652739D01*
X145907405Y-63680235D01*
X145944399Y-63735601D01*
X146027260Y-63790966D01*
X146027264Y-63790967D01*
X146100321Y-63805499D01*
X146100324Y-63805500D01*
X146100326Y-63805500D01*
X148399676Y-63805500D01*
X148399677Y-63805499D01*
X148472740Y-63790966D01*
X148555601Y-63735601D01*
X148610966Y-63652740D01*
X148625500Y-63579674D01*
X148625500Y-63024500D01*
X148645185Y-62957461D01*
X148697989Y-62911706D01*
X148749500Y-62900500D01*
X149942209Y-62900500D01*
X150009248Y-62920185D01*
X150055003Y-62972989D01*
X150058391Y-62981167D01*
X150081202Y-63042328D01*
X150081206Y-63042335D01*
X150167452Y-63157544D01*
X150167455Y-63157547D01*
X150282664Y-63243793D01*
X150282673Y-63243798D01*
X150302468Y-63251181D01*
X150358402Y-63293051D01*
X150382820Y-63358515D01*
X150367969Y-63426788D01*
X150318565Y-63476194D01*
X150298141Y-63485069D01*
X150205878Y-63515642D01*
X150205875Y-63515643D01*
X150056654Y-63607684D01*
X149932684Y-63731654D01*
X149840643Y-63880875D01*
X149840641Y-63880880D01*
X149785494Y-64047302D01*
X149785493Y-64047309D01*
X149775000Y-64150013D01*
X149775000Y-64287500D01*
X152224999Y-64287500D01*
X152224999Y-64150028D01*
X152224998Y-64150013D01*
X152214505Y-64047302D01*
X152159358Y-63880880D01*
X152159356Y-63880875D01*
X152067315Y-63731654D01*
X151943345Y-63607684D01*
X151794124Y-63515643D01*
X151794119Y-63515641D01*
X151701859Y-63485069D01*
X151644414Y-63445296D01*
X151617591Y-63380780D01*
X151629906Y-63312004D01*
X151677449Y-63260804D01*
X151697533Y-63251180D01*
X151717326Y-63243798D01*
X151717331Y-63243796D01*
X151832546Y-63157546D01*
X151918796Y-63042331D01*
X151927622Y-63018667D01*
X151969492Y-62962734D01*
X152034956Y-62938316D01*
X152043804Y-62938000D01*
X152462547Y-62938000D01*
X152529586Y-62957685D01*
X152575341Y-63010489D01*
X152578729Y-63018667D01*
X152606202Y-63092328D01*
X152606206Y-63092335D01*
X152692452Y-63207544D01*
X152692455Y-63207547D01*
X152807664Y-63293793D01*
X152807671Y-63293797D01*
X152942517Y-63344091D01*
X152942516Y-63344091D01*
X152949444Y-63344835D01*
X153002127Y-63350500D01*
X153997872Y-63350499D01*
X154057483Y-63344091D01*
X154192331Y-63293796D01*
X154307546Y-63207546D01*
X154393796Y-63092331D01*
X154421271Y-63018667D01*
X154463142Y-62962733D01*
X154528606Y-62938316D01*
X154537453Y-62938000D01*
X157890956Y-62938000D01*
X157957995Y-62957685D01*
X157978637Y-62974319D01*
X160213181Y-65208863D01*
X160246666Y-65270186D01*
X160249500Y-65296544D01*
X160249500Y-66954456D01*
X160229815Y-67021495D01*
X160177011Y-67067250D01*
X160107853Y-67077194D01*
X160044297Y-67048169D01*
X160037819Y-67042137D01*
X159591560Y-66595878D01*
X159558075Y-66534555D01*
X159556983Y-66508129D01*
X159555250Y-66508129D01*
X159555250Y-66500000D01*
X159548581Y-66449344D01*
X159536330Y-66356291D01*
X159480861Y-66222375D01*
X159392621Y-66107379D01*
X159277625Y-66019139D01*
X159277624Y-66019138D01*
X159277622Y-66019137D01*
X159143712Y-65963671D01*
X159143710Y-65963670D01*
X159143709Y-65963670D01*
X159071854Y-65954210D01*
X159000001Y-65944750D01*
X158999999Y-65944750D01*
X158856291Y-65963670D01*
X158856287Y-65963671D01*
X158722377Y-66019137D01*
X158607379Y-66107379D01*
X158519137Y-66222377D01*
X158463671Y-66356287D01*
X158463670Y-66356291D01*
X158444750Y-66499999D01*
X158444750Y-66500000D01*
X158463670Y-66643708D01*
X158463671Y-66643712D01*
X158519137Y-66777622D01*
X158519138Y-66777624D01*
X158519139Y-66777625D01*
X158590405Y-66870501D01*
X158600378Y-66896296D01*
X158613440Y-66899138D01*
X158629500Y-66909595D01*
X158722373Y-66980860D01*
X158722374Y-66980860D01*
X158722375Y-66980861D01*
X158856291Y-67036330D01*
X159000000Y-67055250D01*
X159008129Y-67055250D01*
X159008129Y-67058828D01*
X159060970Y-67067031D01*
X159095878Y-67091560D01*
X159413181Y-67408863D01*
X159446666Y-67470186D01*
X159449500Y-67496544D01*
X159449500Y-67779457D01*
X159429815Y-67846496D01*
X159377011Y-67892251D01*
X159307853Y-67902195D01*
X159244297Y-67873170D01*
X159237819Y-67867138D01*
X158466332Y-67095651D01*
X158444271Y-67055249D01*
X158418905Y-67046131D01*
X158404348Y-67033667D01*
X158091559Y-66720878D01*
X158058074Y-66659555D01*
X158057172Y-66633129D01*
X158055250Y-66633129D01*
X158055250Y-66625000D01*
X158044627Y-66544314D01*
X158036330Y-66481291D01*
X157984554Y-66356291D01*
X157980862Y-66347377D01*
X157980861Y-66347376D01*
X157980861Y-66347375D01*
X157892621Y-66232379D01*
X157777625Y-66144139D01*
X157777624Y-66144138D01*
X157777622Y-66144137D01*
X157643712Y-66088671D01*
X157643710Y-66088670D01*
X157643709Y-66088670D01*
X157571854Y-66079210D01*
X157500001Y-66069750D01*
X157499999Y-66069750D01*
X157356291Y-66088670D01*
X157356287Y-66088671D01*
X157222377Y-66144137D01*
X157107379Y-66232379D01*
X157019137Y-66347377D01*
X156963671Y-66481287D01*
X156963670Y-66481291D01*
X156944750Y-66624999D01*
X156944750Y-66625000D01*
X156963670Y-66768708D01*
X156963671Y-66768712D01*
X156972855Y-66790884D01*
X156980324Y-66860353D01*
X156949049Y-66922832D01*
X156888960Y-66958484D01*
X156874482Y-66961275D01*
X156856291Y-66963670D01*
X156856287Y-66963671D01*
X156722377Y-67019137D01*
X156607379Y-67107379D01*
X156519137Y-67222377D01*
X156463671Y-67356287D01*
X156463670Y-67356291D01*
X156444750Y-67500000D01*
X156458014Y-67600752D01*
X156463670Y-67643708D01*
X156463671Y-67643712D01*
X156519137Y-67777622D01*
X156519138Y-67777624D01*
X156519139Y-67777625D01*
X156607379Y-67892621D01*
X156722375Y-67980861D01*
X156722376Y-67980861D01*
X156722377Y-67980862D01*
X156754813Y-67994297D01*
X156856291Y-68036330D01*
X157000000Y-68055250D01*
X157008129Y-68055250D01*
X157008129Y-68059084D01*
X157059346Y-68066281D01*
X157095878Y-68091559D01*
X157638181Y-68633862D01*
X157671666Y-68695185D01*
X157674500Y-68721543D01*
X157674500Y-70050500D01*
X157654815Y-70117539D01*
X157602011Y-70163294D01*
X157550500Y-70174500D01*
X157224500Y-70174500D01*
X157157461Y-70154815D01*
X157111706Y-70102011D01*
X157100500Y-70050500D01*
X157100500Y-69103858D01*
X157100500Y-69103856D01*
X157076614Y-69014712D01*
X157067965Y-68999733D01*
X157051492Y-68931834D01*
X157052413Y-68921544D01*
X157055250Y-68900000D01*
X157036330Y-68756291D01*
X156980861Y-68622375D01*
X156892621Y-68507379D01*
X156777625Y-68419139D01*
X156777624Y-68419138D01*
X156777622Y-68419137D01*
X156643712Y-68363671D01*
X156643710Y-68363670D01*
X156643709Y-68363670D01*
X156543675Y-68350500D01*
X156500001Y-68344750D01*
X156499999Y-68344750D01*
X156356291Y-68363670D01*
X156356287Y-68363671D01*
X156222377Y-68419137D01*
X156107379Y-68507379D01*
X156019137Y-68622377D01*
X155963671Y-68756287D01*
X155963670Y-68756291D01*
X155944750Y-68899999D01*
X155944750Y-68902785D01*
X155944085Y-68905049D01*
X155943689Y-68908058D01*
X155943219Y-68907996D01*
X155925065Y-68969824D01*
X155872261Y-69015579D01*
X155803103Y-69025523D01*
X155773298Y-69017346D01*
X155643712Y-68963671D01*
X155643710Y-68963670D01*
X155643709Y-68963670D01*
X155571854Y-68954210D01*
X155500001Y-68944750D01*
X155499999Y-68944750D01*
X155356291Y-68963670D01*
X155356287Y-68963671D01*
X155222377Y-69019137D01*
X155107379Y-69107379D01*
X155019137Y-69222377D01*
X154963671Y-69356287D01*
X154963670Y-69356291D01*
X154944750Y-69500000D01*
X154951418Y-69550651D01*
X154963670Y-69643708D01*
X154963671Y-69643712D01*
X155019138Y-69777623D01*
X155019139Y-69777625D01*
X155107380Y-69892623D01*
X155113126Y-69898369D01*
X155110574Y-69900920D01*
X155142091Y-69943873D01*
X155149500Y-69986092D01*
X155149500Y-71296144D01*
X155167873Y-71364712D01*
X155173386Y-71385288D01*
X155219530Y-71465212D01*
X155341637Y-71587319D01*
X155458605Y-71704286D01*
X155492090Y-71765609D01*
X155487106Y-71835299D01*
X155456403Y-71917617D01*
X155456401Y-71917627D01*
X155450000Y-71977155D01*
X155450000Y-72050000D01*
X158050000Y-72050000D01*
X158050000Y-71977172D01*
X158049999Y-71977155D01*
X158043598Y-71917627D01*
X158043596Y-71917620D01*
X157993354Y-71782913D01*
X157993350Y-71782906D01*
X157907191Y-71667814D01*
X157907185Y-71667807D01*
X157850188Y-71625139D01*
X157808318Y-71569205D01*
X157800500Y-71525873D01*
X157800500Y-71200323D01*
X157785356Y-71124192D01*
X157785356Y-71075808D01*
X157800500Y-70999676D01*
X157800500Y-70424500D01*
X157820185Y-70357461D01*
X157872989Y-70311706D01*
X157924500Y-70300500D01*
X158499676Y-70300500D01*
X158575808Y-70285356D01*
X158624192Y-70285356D01*
X158700323Y-70300500D01*
X158700326Y-70300500D01*
X159299676Y-70300500D01*
X159375808Y-70285356D01*
X159424192Y-70285356D01*
X159500323Y-70300500D01*
X159500326Y-70300500D01*
X160099676Y-70300500D01*
X160175808Y-70285356D01*
X160224192Y-70285356D01*
X160300323Y-70300500D01*
X160300326Y-70300500D01*
X160899676Y-70300500D01*
X160975808Y-70285356D01*
X161024192Y-70285356D01*
X161100323Y-70300500D01*
X161100326Y-70300500D01*
X161699676Y-70300500D01*
X161775808Y-70285356D01*
X161824192Y-70285356D01*
X161900323Y-70300500D01*
X161900326Y-70300500D01*
X162499676Y-70300500D01*
X162575808Y-70285356D01*
X162624192Y-70285356D01*
X162700323Y-70300500D01*
X162700326Y-70300500D01*
X163299676Y-70300500D01*
X163375808Y-70285356D01*
X163424192Y-70285356D01*
X163500323Y-70300500D01*
X164075500Y-70300500D01*
X164142539Y-70320185D01*
X164188294Y-70372989D01*
X164199500Y-70424500D01*
X164199500Y-70999674D01*
X164202957Y-71017057D01*
X164214644Y-71075810D01*
X164214644Y-71124190D01*
X164202088Y-71187314D01*
X164199500Y-71200326D01*
X164199500Y-71799674D01*
X164200920Y-71806812D01*
X164214644Y-71875810D01*
X164214644Y-71924190D01*
X164199500Y-72000326D01*
X164199500Y-72325873D01*
X164179815Y-72392912D01*
X164149812Y-72425139D01*
X164092814Y-72467807D01*
X164092808Y-72467814D01*
X164006649Y-72582906D01*
X164006645Y-72582913D01*
X163956403Y-72717620D01*
X163956401Y-72717627D01*
X163950000Y-72777155D01*
X163950000Y-72850000D01*
X166550000Y-72850000D01*
X166550000Y-72774500D01*
X166569685Y-72707461D01*
X166622489Y-72661706D01*
X166674000Y-72650500D01*
X166746142Y-72650500D01*
X166746144Y-72650500D01*
X166835288Y-72626614D01*
X166915212Y-72580470D01*
X168608862Y-70886818D01*
X168670185Y-70853334D01*
X168696543Y-70850500D01*
X176850526Y-70850500D01*
X176917565Y-70870185D01*
X176963320Y-70922989D01*
X176967343Y-70933914D01*
X176967350Y-70933912D01*
X176969418Y-70939251D01*
X177060327Y-71121821D01*
X177183237Y-71284581D01*
X177333958Y-71421980D01*
X177333960Y-71421982D01*
X177403781Y-71465213D01*
X177507363Y-71529348D01*
X177697544Y-71603024D01*
X177898024Y-71640500D01*
X177898026Y-71640500D01*
X178101974Y-71640500D01*
X178101976Y-71640500D01*
X178302456Y-71603024D01*
X178492637Y-71529348D01*
X178666041Y-71421981D01*
X178815760Y-71285494D01*
X178816762Y-71284581D01*
X178816764Y-71284579D01*
X178939673Y-71121821D01*
X179030582Y-70939250D01*
X179086397Y-70743083D01*
X179105215Y-70540000D01*
X179089739Y-70372989D01*
X179086397Y-70336917D01*
X179044320Y-70189034D01*
X179030582Y-70140750D01*
X179019024Y-70117539D01*
X178985643Y-70050500D01*
X178939673Y-69958179D01*
X178816764Y-69795421D01*
X178816762Y-69795418D01*
X178666041Y-69658019D01*
X178666039Y-69658017D01*
X178492642Y-69550655D01*
X178492635Y-69550651D01*
X178361888Y-69500000D01*
X178302456Y-69476976D01*
X178101976Y-69439500D01*
X177898024Y-69439500D01*
X177697544Y-69476976D01*
X177697541Y-69476976D01*
X177697541Y-69476977D01*
X177507364Y-69550651D01*
X177507357Y-69550655D01*
X177333960Y-69658017D01*
X177333958Y-69658019D01*
X177183237Y-69795418D01*
X177060327Y-69958178D01*
X176999283Y-70080772D01*
X176951780Y-70132009D01*
X176888283Y-70149500D01*
X168453856Y-70149500D01*
X168367403Y-70172665D01*
X168297553Y-70171002D01*
X168239691Y-70131839D01*
X168212187Y-70067611D01*
X168223774Y-69998708D01*
X168247626Y-69965212D01*
X169826020Y-68386819D01*
X169887343Y-68353334D01*
X169913701Y-68350500D01*
X176868365Y-68350500D01*
X176935404Y-68370185D01*
X176979365Y-68419228D01*
X177060327Y-68581821D01*
X177183237Y-68744581D01*
X177333958Y-68881980D01*
X177333960Y-68881982D01*
X177433141Y-68943392D01*
X177507363Y-68989348D01*
X177697544Y-69063024D01*
X177898024Y-69100500D01*
X177898026Y-69100500D01*
X178101974Y-69100500D01*
X178101976Y-69100500D01*
X178302456Y-69063024D01*
X178492637Y-68989348D01*
X178666041Y-68881981D01*
X178816764Y-68744579D01*
X178939673Y-68581821D01*
X179030582Y-68399250D01*
X179086397Y-68203083D01*
X179105215Y-68000000D01*
X179086397Y-67796917D01*
X179030582Y-67600750D01*
X179020634Y-67580772D01*
X178986272Y-67511764D01*
X178939673Y-67418179D01*
X178816764Y-67255421D01*
X178816762Y-67255418D01*
X178666041Y-67118019D01*
X178666039Y-67118017D01*
X178492642Y-67010655D01*
X178492635Y-67010651D01*
X178371364Y-66963671D01*
X178302456Y-66936976D01*
X178101976Y-66899500D01*
X177898024Y-66899500D01*
X177697544Y-66936976D01*
X177697541Y-66936976D01*
X177697541Y-66936977D01*
X177507364Y-67010651D01*
X177507357Y-67010655D01*
X177333960Y-67118017D01*
X177333958Y-67118019D01*
X177183237Y-67255418D01*
X177060327Y-67418178D01*
X176979365Y-67580772D01*
X176931862Y-67632009D01*
X176868365Y-67649500D01*
X169671013Y-67649500D01*
X169581868Y-67673386D01*
X169501944Y-67719531D01*
X169501941Y-67719533D01*
X166512181Y-70709294D01*
X166450858Y-70742779D01*
X166381166Y-70737795D01*
X166325233Y-70695923D01*
X166300816Y-70630459D01*
X166300500Y-70621613D01*
X166300500Y-70400323D01*
X166300499Y-70400321D01*
X166285967Y-70327264D01*
X166285966Y-70327260D01*
X166268086Y-70300500D01*
X166230601Y-70244399D01*
X166147740Y-70189034D01*
X166147739Y-70189033D01*
X166147736Y-70189032D01*
X166090767Y-70177700D01*
X166028857Y-70145314D01*
X165994283Y-70084598D01*
X165998024Y-70014828D01*
X166027277Y-69968404D01*
X170108862Y-65886818D01*
X170170185Y-65853334D01*
X170196543Y-65850500D01*
X176888283Y-65850500D01*
X176955322Y-65870185D01*
X176999283Y-65919228D01*
X177060327Y-66041821D01*
X177183237Y-66204581D01*
X177333958Y-66341980D01*
X177333960Y-66341982D01*
X177357064Y-66356287D01*
X177507363Y-66449348D01*
X177697544Y-66523024D01*
X177898024Y-66560500D01*
X177898026Y-66560500D01*
X178101974Y-66560500D01*
X178101976Y-66560500D01*
X178302456Y-66523024D01*
X178492637Y-66449348D01*
X178666041Y-66341981D01*
X178794122Y-66225219D01*
X178816762Y-66204581D01*
X178816764Y-66204579D01*
X178939673Y-66041821D01*
X179030582Y-65859250D01*
X179086397Y-65663083D01*
X179105215Y-65460000D01*
X179086397Y-65256917D01*
X179030582Y-65060750D01*
X178939673Y-64878179D01*
X178880704Y-64800091D01*
X178816762Y-64715418D01*
X178666041Y-64578019D01*
X178666039Y-64578017D01*
X178492642Y-64470655D01*
X178492635Y-64470651D01*
X178353207Y-64416637D01*
X178302456Y-64396976D01*
X178101976Y-64359500D01*
X177898024Y-64359500D01*
X177697544Y-64396976D01*
X177697541Y-64396976D01*
X177697541Y-64396977D01*
X177507364Y-64470651D01*
X177507357Y-64470655D01*
X177333960Y-64578017D01*
X177333958Y-64578019D01*
X177183237Y-64715418D01*
X177060327Y-64878178D01*
X176969418Y-65060748D01*
X176967350Y-65066088D01*
X176965941Y-65065542D01*
X176932507Y-65118533D01*
X176869196Y-65148086D01*
X176850526Y-65149500D01*
X169953856Y-65149500D01*
X169864712Y-65173386D01*
X169864711Y-65173386D01*
X169864709Y-65173387D01*
X169864706Y-65173388D01*
X169784794Y-65219526D01*
X169784785Y-65219533D01*
X164969531Y-70034786D01*
X164969529Y-70034788D01*
X164946503Y-70074673D01*
X164946502Y-70074674D01*
X164924663Y-70112500D01*
X164874096Y-70160716D01*
X164817276Y-70174500D01*
X164449500Y-70174500D01*
X164382461Y-70154815D01*
X164336706Y-70102011D01*
X164325500Y-70050500D01*
X164325500Y-69682723D01*
X164345185Y-69615684D01*
X164387497Y-69575338D01*
X164465212Y-69530470D01*
X170688863Y-63306819D01*
X170750186Y-63273334D01*
X170776544Y-63270500D01*
X176868365Y-63270500D01*
X176935404Y-63290185D01*
X176979365Y-63339228D01*
X177060327Y-63501821D01*
X177183237Y-63664581D01*
X177333958Y-63801980D01*
X177333960Y-63801982D01*
X177339642Y-63805500D01*
X177507363Y-63909348D01*
X177697544Y-63983024D01*
X177898024Y-64020500D01*
X177898026Y-64020500D01*
X178101974Y-64020500D01*
X178101976Y-64020500D01*
X178302456Y-63983024D01*
X178492637Y-63909348D01*
X178666041Y-63801981D01*
X178816764Y-63664579D01*
X178939673Y-63501821D01*
X179030582Y-63319250D01*
X179086397Y-63123083D01*
X179105215Y-62920000D01*
X179104446Y-62911706D01*
X179086397Y-62716917D01*
X179030582Y-62520750D01*
X179020634Y-62500772D01*
X178967876Y-62394818D01*
X178939673Y-62338179D01*
X178848401Y-62217315D01*
X178816762Y-62175418D01*
X178666041Y-62038019D01*
X178666039Y-62038017D01*
X178492642Y-61930655D01*
X178492635Y-61930651D01*
X178368765Y-61882664D01*
X178302456Y-61856976D01*
X178101976Y-61819500D01*
X177898024Y-61819500D01*
X177697544Y-61856976D01*
X177697541Y-61856976D01*
X177697541Y-61856977D01*
X177507364Y-61930651D01*
X177507357Y-61930655D01*
X177333960Y-62038017D01*
X177333958Y-62038019D01*
X177183237Y-62175418D01*
X177060327Y-62338178D01*
X176979365Y-62500772D01*
X176931862Y-62552009D01*
X176868365Y-62569500D01*
X170533856Y-62569500D01*
X170444712Y-62593386D01*
X170444709Y-62593387D01*
X170364791Y-62639527D01*
X170364786Y-62639531D01*
X164531597Y-68472720D01*
X164470274Y-68506205D01*
X164400582Y-68501221D01*
X164344649Y-68459349D01*
X164322299Y-68409231D01*
X164310967Y-68352263D01*
X164310966Y-68352260D01*
X164298736Y-68333956D01*
X164255601Y-68269399D01*
X164172740Y-68214034D01*
X164172739Y-68214033D01*
X164172735Y-68214032D01*
X164099677Y-68199500D01*
X164099674Y-68199500D01*
X163970544Y-68199500D01*
X163903505Y-68179815D01*
X163857750Y-68127011D01*
X163847806Y-68057853D01*
X163876831Y-67994297D01*
X163882863Y-67987819D01*
X171103862Y-60766819D01*
X171165185Y-60733334D01*
X171191543Y-60730500D01*
X176868365Y-60730500D01*
X176935404Y-60750185D01*
X176979365Y-60799228D01*
X177060327Y-60961821D01*
X177183237Y-61124581D01*
X177333958Y-61261980D01*
X177333960Y-61261982D01*
X177363579Y-61280321D01*
X177507363Y-61369348D01*
X177697544Y-61443024D01*
X177898024Y-61480500D01*
X177898026Y-61480500D01*
X178101974Y-61480500D01*
X178101976Y-61480500D01*
X178302456Y-61443024D01*
X178492637Y-61369348D01*
X178666041Y-61261981D01*
X178816764Y-61124579D01*
X178939673Y-60961821D01*
X179030582Y-60779250D01*
X179086397Y-60583083D01*
X179105215Y-60380000D01*
X179086397Y-60176917D01*
X179030582Y-59980750D01*
X179020634Y-59960772D01*
X178980941Y-59881056D01*
X178939673Y-59798179D01*
X178816764Y-59635421D01*
X178816762Y-59635418D01*
X178666041Y-59498019D01*
X178666039Y-59498017D01*
X178492642Y-59390655D01*
X178492635Y-59390651D01*
X178397546Y-59353814D01*
X178302456Y-59316976D01*
X178101976Y-59279500D01*
X177898024Y-59279500D01*
X177697544Y-59316976D01*
X177697541Y-59316976D01*
X177697541Y-59316977D01*
X177507364Y-59390651D01*
X177507357Y-59390655D01*
X177333960Y-59498017D01*
X177333958Y-59498019D01*
X177183237Y-59635418D01*
X177060327Y-59798178D01*
X176979365Y-59960772D01*
X176931862Y-60012009D01*
X176868365Y-60029500D01*
X170948856Y-60029500D01*
X170859712Y-60053386D01*
X170859711Y-60053386D01*
X170859709Y-60053387D01*
X170859706Y-60053388D01*
X170779794Y-60099526D01*
X170779785Y-60099533D01*
X162762181Y-68117136D01*
X162700858Y-68150621D01*
X162631166Y-68145637D01*
X162575233Y-68103765D01*
X162550816Y-68038301D01*
X162550500Y-68029455D01*
X162550500Y-67496544D01*
X162570185Y-67429505D01*
X162586819Y-67408863D01*
X165117504Y-64878178D01*
X167780470Y-62215212D01*
X167826614Y-62135288D01*
X167835499Y-62102127D01*
X167850500Y-62046144D01*
X167850500Y-59224500D01*
X167870185Y-59157461D01*
X167922989Y-59111706D01*
X167974500Y-59100500D01*
X168374676Y-59100500D01*
X168374677Y-59100499D01*
X168447740Y-59085966D01*
X168530601Y-59030601D01*
X168585966Y-58947740D01*
X168600500Y-58874674D01*
X168600500Y-57125326D01*
X168600500Y-57125323D01*
X168600499Y-57125321D01*
X168585967Y-57052264D01*
X168585966Y-57052260D01*
X168530601Y-56969399D01*
X168447740Y-56914034D01*
X168447739Y-56914033D01*
X168447735Y-56914032D01*
X168374677Y-56899500D01*
X168374674Y-56899500D01*
X166625326Y-56899500D01*
X166625323Y-56899500D01*
X166552264Y-56914032D01*
X166552260Y-56914033D01*
X166469399Y-56969399D01*
X166414033Y-57052260D01*
X166414032Y-57052264D01*
X166399500Y-57125321D01*
X166399500Y-58874678D01*
X166414032Y-58947735D01*
X166414033Y-58947739D01*
X166414034Y-58947740D01*
X166469399Y-59030601D01*
X166526864Y-59068997D01*
X166552260Y-59085966D01*
X166552264Y-59085967D01*
X166625321Y-59100499D01*
X166625324Y-59100500D01*
X166625326Y-59100500D01*
X167025500Y-59100500D01*
X167092539Y-59120185D01*
X167138294Y-59172989D01*
X167149500Y-59224500D01*
X167149500Y-61803456D01*
X167129815Y-61870495D01*
X167113181Y-61891137D01*
X161962181Y-67042137D01*
X161900858Y-67075622D01*
X161831166Y-67070638D01*
X161775233Y-67028766D01*
X161750816Y-66963302D01*
X161750500Y-66954456D01*
X161750500Y-66296543D01*
X161770185Y-66229504D01*
X161786819Y-66208862D01*
X163491363Y-64504318D01*
X165240469Y-62755212D01*
X165286614Y-62675288D01*
X165286616Y-62675282D01*
X165293525Y-62649499D01*
X165308559Y-62593387D01*
X165310500Y-62586144D01*
X165310500Y-59129353D01*
X165330185Y-59062314D01*
X165382989Y-59016559D01*
X165389699Y-59013729D01*
X165452637Y-58989348D01*
X165626041Y-58881981D01*
X165776764Y-58744579D01*
X165899673Y-58581821D01*
X165990582Y-58399250D01*
X166046397Y-58203083D01*
X166065215Y-58000000D01*
X166059115Y-57934174D01*
X166046397Y-57796917D01*
X166033048Y-57750000D01*
X165990582Y-57600750D01*
X165990159Y-57599901D01*
X165940415Y-57500000D01*
X165899673Y-57418179D01*
X165776764Y-57255421D01*
X165776762Y-57255418D01*
X165626041Y-57118019D01*
X165626039Y-57118017D01*
X165452642Y-57010655D01*
X165452635Y-57010651D01*
X165326769Y-56961891D01*
X165262456Y-56936976D01*
X165061976Y-56899500D01*
X164858024Y-56899500D01*
X164657544Y-56936976D01*
X164657541Y-56936976D01*
X164657541Y-56936977D01*
X164467364Y-57010651D01*
X164467357Y-57010655D01*
X164293960Y-57118017D01*
X164293958Y-57118019D01*
X164143237Y-57255418D01*
X164020327Y-57418178D01*
X163929422Y-57600739D01*
X163929417Y-57600752D01*
X163873602Y-57796917D01*
X163854785Y-57999999D01*
X163854785Y-58000000D01*
X163873602Y-58203082D01*
X163929417Y-58399247D01*
X163929422Y-58399260D01*
X164020327Y-58581821D01*
X164143237Y-58744581D01*
X164293958Y-58881980D01*
X164293960Y-58881982D01*
X164393141Y-58943392D01*
X164467363Y-58989348D01*
X164467368Y-58989349D01*
X164467370Y-58989351D01*
X164497801Y-59001139D01*
X164530292Y-59013726D01*
X164585694Y-59056298D01*
X164609286Y-59122064D01*
X164609500Y-59129353D01*
X164609500Y-62343456D01*
X164589815Y-62410495D01*
X164573181Y-62431137D01*
X161162181Y-65842137D01*
X161100858Y-65875622D01*
X161031166Y-65870638D01*
X160975233Y-65828766D01*
X160950816Y-65763302D01*
X160950500Y-65754456D01*
X160950500Y-65096544D01*
X160970185Y-65029505D01*
X160986819Y-65008863D01*
X161846123Y-64149559D01*
X162780470Y-63215212D01*
X162826614Y-63135288D01*
X162850500Y-63046144D01*
X162850500Y-62953856D01*
X162850500Y-59096889D01*
X162870185Y-59029850D01*
X162909223Y-58991462D01*
X163086039Y-58881982D01*
X163086038Y-58881982D01*
X163086041Y-58881981D01*
X163236764Y-58744579D01*
X163359673Y-58581821D01*
X163450582Y-58399250D01*
X163506397Y-58203083D01*
X163525215Y-58000000D01*
X163519115Y-57934174D01*
X163506397Y-57796917D01*
X163493048Y-57750000D01*
X163450582Y-57600750D01*
X163450159Y-57599901D01*
X163400415Y-57500000D01*
X163359673Y-57418179D01*
X163236764Y-57255421D01*
X163236762Y-57255418D01*
X163086041Y-57118019D01*
X163086039Y-57118017D01*
X162912642Y-57010655D01*
X162912635Y-57010651D01*
X162786769Y-56961891D01*
X162722456Y-56936976D01*
X162521976Y-56899500D01*
X162318024Y-56899500D01*
X162117544Y-56936976D01*
X162117541Y-56936976D01*
X162117541Y-56936977D01*
X161927364Y-57010651D01*
X161927357Y-57010655D01*
X161753960Y-57118017D01*
X161753958Y-57118019D01*
X161603237Y-57255418D01*
X161480327Y-57418178D01*
X161393182Y-57593188D01*
X161345679Y-57644425D01*
X161278016Y-57661846D01*
X161211676Y-57639920D01*
X161167721Y-57585609D01*
X161162407Y-57570008D01*
X161153434Y-57536518D01*
X161153429Y-57536507D01*
X161053600Y-57322422D01*
X161053599Y-57322420D01*
X160918113Y-57128926D01*
X160918108Y-57128920D01*
X160751082Y-56961894D01*
X160557578Y-56826399D01*
X160343492Y-56726570D01*
X160343486Y-56726567D01*
X160130000Y-56669364D01*
X160130000Y-57566988D01*
X160072993Y-57534075D01*
X159945826Y-57500000D01*
X159814174Y-57500000D01*
X159687007Y-57534075D01*
X159630000Y-57566988D01*
X159630000Y-56669364D01*
X159629999Y-56669364D01*
X159416513Y-56726567D01*
X159416507Y-56726570D01*
X159202422Y-56826399D01*
X159202420Y-56826400D01*
X159008926Y-56961886D01*
X159008920Y-56961891D01*
X158841891Y-57128920D01*
X158841890Y-57128922D01*
X158711575Y-57315031D01*
X158656998Y-57358655D01*
X158587499Y-57365848D01*
X158525145Y-57334326D01*
X158508425Y-57315031D01*
X158378109Y-57128922D01*
X158378108Y-57128920D01*
X158211082Y-56961894D01*
X158017578Y-56826399D01*
X157803492Y-56726570D01*
X157803486Y-56726567D01*
X157590000Y-56669364D01*
X157590000Y-57566988D01*
X157532993Y-57534075D01*
X157405826Y-57500000D01*
X157274174Y-57500000D01*
X157147007Y-57534075D01*
X157090000Y-57566988D01*
X157090000Y-56669364D01*
X157089999Y-56669364D01*
X156876513Y-56726567D01*
X156876507Y-56726570D01*
X156662422Y-56826399D01*
X156662420Y-56826400D01*
X156468926Y-56961886D01*
X156468920Y-56961891D01*
X156301891Y-57128920D01*
X156301886Y-57128926D01*
X156166400Y-57322420D01*
X156166399Y-57322422D01*
X156066570Y-57536507D01*
X156066567Y-57536513D01*
X156009364Y-57749999D01*
X156009364Y-57750000D01*
X156906988Y-57750000D01*
X156874075Y-57807007D01*
X156840000Y-57934174D01*
X156840000Y-58065826D01*
X156874075Y-58192993D01*
X156906988Y-58250000D01*
X156009364Y-58250000D01*
X156066567Y-58463486D01*
X156066570Y-58463492D01*
X156166399Y-58677578D01*
X156301894Y-58871082D01*
X156468917Y-59038105D01*
X156662421Y-59173600D01*
X156876507Y-59273429D01*
X156876516Y-59273433D01*
X157090000Y-59330634D01*
X157090000Y-58433012D01*
X157147007Y-58465925D01*
X157274174Y-58500000D01*
X157405826Y-58500000D01*
X157532993Y-58465925D01*
X157590000Y-58433012D01*
X157590000Y-59330633D01*
X157803483Y-59273433D01*
X157803492Y-59273429D01*
X158017578Y-59173600D01*
X158211082Y-59038105D01*
X158378105Y-58871082D01*
X158508425Y-58684968D01*
X158563002Y-58641344D01*
X158632501Y-58634151D01*
X158694855Y-58665673D01*
X158711575Y-58684968D01*
X158841894Y-58871082D01*
X159008917Y-59038105D01*
X159202421Y-59173600D01*
X159416507Y-59273429D01*
X159416516Y-59273433D01*
X159630000Y-59330634D01*
X159630000Y-58433012D01*
X159687007Y-58465925D01*
X159814174Y-58500000D01*
X159945826Y-58500000D01*
X160072993Y-58465925D01*
X160130000Y-58433012D01*
X160130000Y-59330633D01*
X160343483Y-59273433D01*
X160343492Y-59273429D01*
X160557578Y-59173600D01*
X160751082Y-59038105D01*
X160918105Y-58871082D01*
X161053600Y-58677578D01*
X161153429Y-58463492D01*
X161153431Y-58463489D01*
X161162406Y-58429992D01*
X161198770Y-58370331D01*
X161261616Y-58339800D01*
X161330992Y-58348094D01*
X161384871Y-58392578D01*
X161393182Y-58406811D01*
X161480327Y-58581821D01*
X161603237Y-58744581D01*
X161753958Y-58881980D01*
X161753960Y-58881982D01*
X161853141Y-58943392D01*
X161927363Y-58989348D01*
X162070295Y-59044720D01*
X162125695Y-59087290D01*
X162149286Y-59153057D01*
X162149500Y-59160345D01*
X162149500Y-62803456D01*
X162129815Y-62870495D01*
X162113181Y-62891137D01*
X160587681Y-64416637D01*
X160526358Y-64450122D01*
X160456666Y-64445138D01*
X160412319Y-64416637D01*
X158302713Y-62307031D01*
X158302708Y-62307027D01*
X158222790Y-62260887D01*
X158222785Y-62260885D01*
X158217728Y-62259530D01*
X158217727Y-62259529D01*
X158146340Y-62240402D01*
X158133644Y-62237000D01*
X158133643Y-62237000D01*
X154574499Y-62237000D01*
X154507460Y-62217315D01*
X154461705Y-62164511D01*
X154450499Y-62113000D01*
X154450499Y-62102127D01*
X154450498Y-62102123D01*
X154450497Y-62102116D01*
X154444091Y-62042517D01*
X154442413Y-62038019D01*
X154393797Y-61907671D01*
X154393793Y-61907664D01*
X154307547Y-61792455D01*
X154307544Y-61792452D01*
X154192335Y-61706206D01*
X154192328Y-61706202D01*
X154057482Y-61655908D01*
X154057483Y-61655908D01*
X153997883Y-61649501D01*
X153997881Y-61649500D01*
X153997873Y-61649500D01*
X153997864Y-61649500D01*
X153002129Y-61649500D01*
X153002123Y-61649501D01*
X152942516Y-61655908D01*
X152807671Y-61706202D01*
X152807664Y-61706206D01*
X152692455Y-61792452D01*
X152692452Y-61792455D01*
X152606206Y-61907664D01*
X152606202Y-61907671D01*
X152555908Y-62042517D01*
X152549501Y-62102116D01*
X152549500Y-62102127D01*
X152549500Y-62113000D01*
X152529815Y-62180039D01*
X152477011Y-62225794D01*
X152425500Y-62237000D01*
X152099499Y-62237000D01*
X152032460Y-62217315D01*
X151986705Y-62164511D01*
X151975499Y-62113000D01*
X151975499Y-62077129D01*
X151975498Y-62077123D01*
X151975497Y-62077116D01*
X151969091Y-62017517D01*
X151968394Y-62015649D01*
X151918797Y-61882671D01*
X151918793Y-61882664D01*
X151832547Y-61767455D01*
X151832544Y-61767452D01*
X151717335Y-61681206D01*
X151717328Y-61681202D01*
X151582482Y-61630908D01*
X151582483Y-61630908D01*
X151522883Y-61624501D01*
X151522881Y-61624500D01*
X151522873Y-61624500D01*
X151522864Y-61624500D01*
X150477129Y-61624500D01*
X150477123Y-61624501D01*
X150417516Y-61630908D01*
X150282671Y-61681202D01*
X150282664Y-61681206D01*
X150167455Y-61767452D01*
X150167452Y-61767455D01*
X150081206Y-61882664D01*
X150081202Y-61882671D01*
X150030908Y-62017517D01*
X150027831Y-62046142D01*
X150024501Y-62077123D01*
X150024322Y-62080452D01*
X150023065Y-62080384D01*
X150004815Y-62142539D01*
X149952011Y-62188294D01*
X149900500Y-62199500D01*
X148749500Y-62199500D01*
X148682461Y-62179815D01*
X148636706Y-62127011D01*
X148625500Y-62075500D01*
X148625500Y-61280323D01*
X148625499Y-61280321D01*
X148610967Y-61207264D01*
X148610966Y-61207260D01*
X148555601Y-61124399D01*
X148472740Y-61069034D01*
X148472739Y-61069033D01*
X148472735Y-61069032D01*
X148399677Y-61054500D01*
X148399674Y-61054500D01*
X146100326Y-61054500D01*
X146100323Y-61054500D01*
X146027264Y-61069032D01*
X146027260Y-61069033D01*
X145944399Y-61124399D01*
X145889033Y-61207260D01*
X145889032Y-61207264D01*
X145874500Y-61280321D01*
X141546125Y-61280321D01*
X141711911Y-61114535D01*
X141711911Y-61114533D01*
X141708110Y-61111286D01*
X141708095Y-61111275D01*
X141490015Y-60977636D01*
X141490012Y-60977634D01*
X141253702Y-60879752D01*
X141004988Y-60820042D01*
X141004989Y-60820042D01*
X140750000Y-60799975D01*
X140495010Y-60820042D01*
X140246297Y-60879752D01*
X140009987Y-60977634D01*
X140009984Y-60977636D01*
X139791897Y-61111280D01*
X139788087Y-61114534D01*
X140502511Y-61828958D01*
X140442110Y-61853978D01*
X140335649Y-61925112D01*
X140245112Y-62015649D01*
X140173978Y-62122110D01*
X140148958Y-62182511D01*
X139434534Y-61468087D01*
X139431280Y-61471897D01*
X139297636Y-61689984D01*
X139297634Y-61689987D01*
X139199752Y-61926297D01*
X139140042Y-62175010D01*
X139119975Y-62430000D01*
X130000500Y-62430000D01*
X130000500Y-58950014D01*
X132817500Y-58950014D01*
X132817500Y-59700000D01*
X133863379Y-59700000D01*
X133844401Y-59745818D01*
X133817500Y-59881056D01*
X133817500Y-60018944D01*
X133844401Y-60154182D01*
X133863379Y-60200000D01*
X132817500Y-60200000D01*
X132817500Y-60949985D01*
X132827993Y-61052689D01*
X132827994Y-61052696D01*
X132883141Y-61219118D01*
X132883143Y-61219123D01*
X132975184Y-61368344D01*
X133099155Y-61492315D01*
X133248376Y-61584356D01*
X133248381Y-61584358D01*
X133414803Y-61639505D01*
X133414810Y-61639506D01*
X133517514Y-61649999D01*
X133517527Y-61650000D01*
X134267500Y-61650000D01*
X134267500Y-60604120D01*
X134313318Y-60623099D01*
X134448556Y-60650000D01*
X134586444Y-60650000D01*
X134721682Y-60623099D01*
X134767500Y-60604120D01*
X134767500Y-61650000D01*
X135517473Y-61650000D01*
X135517485Y-61649999D01*
X135620189Y-61639506D01*
X135620196Y-61639505D01*
X135786618Y-61584358D01*
X135786623Y-61584356D01*
X135935844Y-61492315D01*
X136059815Y-61368344D01*
X136151856Y-61219123D01*
X136151858Y-61219118D01*
X136207005Y-61052696D01*
X136207006Y-61052689D01*
X136217499Y-60949985D01*
X136217500Y-60949972D01*
X136217500Y-60200000D01*
X135171621Y-60200000D01*
X135190599Y-60154182D01*
X135217500Y-60018944D01*
X135217500Y-59881056D01*
X135190599Y-59745818D01*
X135171621Y-59700000D01*
X136217500Y-59700000D01*
X136217500Y-58950027D01*
X136217499Y-58950014D01*
X136207006Y-58847310D01*
X136207005Y-58847303D01*
X136151858Y-58680881D01*
X136151856Y-58680876D01*
X136059815Y-58531655D01*
X135935844Y-58407684D01*
X135786623Y-58315643D01*
X135786618Y-58315641D01*
X135620196Y-58260494D01*
X135620189Y-58260493D01*
X135517485Y-58250000D01*
X134767500Y-58250000D01*
X134767500Y-59295879D01*
X134721682Y-59276901D01*
X134586444Y-59250000D01*
X134448556Y-59250000D01*
X134313318Y-59276901D01*
X134267500Y-59295879D01*
X134267500Y-58250000D01*
X133517514Y-58250000D01*
X133414810Y-58260493D01*
X133414803Y-58260494D01*
X133248381Y-58315641D01*
X133248376Y-58315643D01*
X133099155Y-58407684D01*
X132975184Y-58531655D01*
X132883143Y-58680876D01*
X132883141Y-58680881D01*
X132827994Y-58847303D01*
X132827993Y-58847310D01*
X132817500Y-58950014D01*
X130000500Y-58950014D01*
X130000500Y-56124500D01*
X130020185Y-56057461D01*
X130072989Y-56011706D01*
X130124500Y-56000500D01*
X180375500Y-56000500D01*
X180442539Y-56020185D01*
G37*
G04 #@! TD.AperFunction*
M02*
